<mxfile host="65bd71144e">
    <diagram id="Z9WHHm6GwrlMFi-61mC9" name="第 1 页">
        <mxGraphModel dx="1135" dy="1777" grid="1" gridSize="10" guides="1" tooltips="1" connect="1" arrows="1" fold="1" page="1" pageScale="1" pageWidth="827" pageHeight="1169" math="0" shadow="0">
            <root>
                <mxCell id="0"/>
                <mxCell id="1" parent="0"/>
                <mxCell id="2" value="AAIController" style="swimlane;fontStyle=1;align=center;verticalAlign=top;childLayout=stackLayout;horizontal=1;startSize=26;horizontalStack=0;resizeParent=1;resizeParentMax=0;resizeLast=0;collapsible=1;marginBottom=0;" vertex="1" parent="1">
                    <mxGeometry x="110" y="284" width="360" height="138" as="geometry"/>
                </mxCell>
                <mxCell id="3" value="UBlackboardComponent* Blackboard;" style="text;strokeColor=none;fillColor=none;align=left;verticalAlign=top;spacingLeft=4;spacingRight=4;overflow=hidden;rotatable=0;points=[[0,0.5],[1,0.5]];portConstraint=eastwest;" vertex="1" parent="2">
                    <mxGeometry y="26" width="360" height="26" as="geometry"/>
                </mxCell>
                <mxCell id="4" value="" style="line;strokeWidth=1;fillColor=none;align=left;verticalAlign=middle;spacingTop=-1;spacingLeft=3;spacingRight=3;rotatable=0;labelPosition=right;points=[];portConstraint=eastwest;strokeColor=inherit;" vertex="1" parent="2">
                    <mxGeometry y="52" width="360" height="8" as="geometry"/>
                </mxCell>
                <mxCell id="5" value="virtual bool RunBehaviorTree(UBehaviorTree* BTAsset);" style="text;strokeColor=none;fillColor=none;align=left;verticalAlign=top;spacingLeft=4;spacingRight=4;overflow=hidden;rotatable=0;points=[[0,0.5],[1,0.5]];portConstraint=eastwest;" vertex="1" parent="2">
                    <mxGeometry y="60" width="360" height="26" as="geometry"/>
                </mxCell>
                <mxCell id="7" value="bool UseBlackboard(UBlackboardData* BlackboardAsset, UBlackboardComponent*&amp; BlackboardComponent);" style="text;strokeColor=none;fillColor=none;align=left;verticalAlign=top;spacingLeft=4;spacingRight=4;overflow=hidden;rotatable=0;points=[[0,0.5],[1,0.5]];portConstraint=eastwest;" vertex="1" parent="2">
                    <mxGeometry y="86" width="360" height="26" as="geometry"/>
                </mxCell>
                <mxCell id="6" value="bool InitializeBlackboard(UBlackboardComponent&amp; BlackboardComp, UBlackboardData&amp; BlackboardAsset);" style="text;strokeColor=none;fillColor=none;align=left;verticalAlign=top;spacingLeft=4;spacingRight=4;overflow=hidden;rotatable=0;points=[[0,0.5],[1,0.5]];portConstraint=eastwest;" vertex="1" parent="2">
                    <mxGeometry y="112" width="360" height="26" as="geometry"/>
                </mxCell>
                <mxCell id="8" value="UBlackboardComponent" style="swimlane;fontStyle=1;align=center;verticalAlign=top;childLayout=stackLayout;horizontal=1;startSize=26;horizontalStack=0;resizeParent=1;resizeParentMax=0;resizeLast=0;collapsible=1;marginBottom=0;" vertex="1" parent="1">
                    <mxGeometry x="861" y="213.5" width="379" height="190" as="geometry"/>
                </mxCell>
                <mxCell id="9" value="UBlackboardData* BlackboardAsset;" style="text;strokeColor=none;fillColor=none;align=left;verticalAlign=top;spacingLeft=4;spacingRight=4;overflow=hidden;rotatable=0;points=[[0,0.5],[1,0.5]];portConstraint=eastwest;" vertex="1" parent="8">
                    <mxGeometry y="26" width="379" height="26" as="geometry"/>
                </mxCell>
                <mxCell id="48" value="TArray&lt;uint8&gt; ValueMemory;" style="text;strokeColor=none;fillColor=none;align=left;verticalAlign=top;spacingLeft=4;spacingRight=4;overflow=hidden;rotatable=0;points=[[0,0.5],[1,0.5]];portConstraint=eastwest;" vertex="1" parent="8">
                    <mxGeometry y="52" width="379" height="26" as="geometry"/>
                </mxCell>
                <mxCell id="49" value="TArray&lt;uint16&gt; ValueOffsets;" style="text;strokeColor=none;fillColor=none;align=left;verticalAlign=top;spacingLeft=4;spacingRight=4;overflow=hidden;rotatable=0;points=[[0,0.5],[1,0.5]];portConstraint=eastwest;" vertex="1" parent="8">
                    <mxGeometry y="78" width="379" height="26" as="geometry"/>
                </mxCell>
                <mxCell id="62" value="TArray&lt;UBlackboardKeyType*&gt; KeyInstances;" style="text;strokeColor=none;fillColor=none;align=left;verticalAlign=top;spacingLeft=4;spacingRight=4;overflow=hidden;rotatable=0;points=[[0,0.5],[1,0.5]];portConstraint=eastwest;" vertex="1" parent="8">
                    <mxGeometry y="104" width="379" height="26" as="geometry"/>
                </mxCell>
                <mxCell id="10" value="" style="line;strokeWidth=1;fillColor=none;align=left;verticalAlign=middle;spacingTop=-1;spacingLeft=3;spacingRight=3;rotatable=0;labelPosition=right;points=[];portConstraint=eastwest;strokeColor=inherit;" vertex="1" parent="8">
                    <mxGeometry y="130" width="379" height="8" as="geometry"/>
                </mxCell>
                <mxCell id="44" value="bool InitializeBlackboard(UBlackboardData&amp; NewAsset);" style="text;strokeColor=none;fillColor=none;align=left;verticalAlign=top;spacingLeft=4;spacingRight=4;overflow=hidden;rotatable=0;points=[[0,0.5],[1,0.5]];portConstraint=eastwest;" vertex="1" parent="8">
                    <mxGeometry y="138" width="379" height="26" as="geometry"/>
                </mxCell>
                <mxCell id="11" value="const uint8* GetKeyRawData(FBlackboard::FKey KeyID) const" style="text;strokeColor=none;fillColor=none;align=left;verticalAlign=top;spacingLeft=4;spacingRight=4;overflow=hidden;rotatable=0;points=[[0,0.5],[1,0.5]];portConstraint=eastwest;" vertex="1" parent="8">
                    <mxGeometry y="164" width="379" height="26" as="geometry"/>
                </mxCell>
                <mxCell id="12" value="UBlackboardData" style="swimlane;fontStyle=1;align=center;verticalAlign=top;childLayout=stackLayout;horizontal=1;startSize=26;horizontalStack=0;resizeParent=1;resizeParentMax=0;resizeLast=0;collapsible=1;marginBottom=0;" vertex="1" parent="1">
                    <mxGeometry x="1310" y="172" width="320" height="138" as="geometry"/>
                </mxCell>
                <mxCell id="13" value="UBlackboardData* Parent;" style="text;strokeColor=none;fillColor=none;align=left;verticalAlign=top;spacingLeft=4;spacingRight=4;overflow=hidden;rotatable=0;points=[[0,0.5],[1,0.5]];portConstraint=eastwest;" vertex="1" parent="12">
                    <mxGeometry y="26" width="320" height="26" as="geometry"/>
                </mxCell>
                <mxCell id="18" value="TArray&lt;FBlackboardEntry&gt; ParentKeys;" style="text;strokeColor=none;fillColor=none;align=left;verticalAlign=top;spacingLeft=4;spacingRight=4;overflow=hidden;rotatable=0;points=[[0,0.5],[1,0.5]];portConstraint=eastwest;" vertex="1" parent="12">
                    <mxGeometry y="52" width="320" height="26" as="geometry"/>
                </mxCell>
                <mxCell id="19" value="TArray&lt;FBlackboardEntry&gt; Keys;" style="text;strokeColor=none;fillColor=none;align=left;verticalAlign=top;spacingLeft=4;spacingRight=4;overflow=hidden;rotatable=0;points=[[0,0.5],[1,0.5]];portConstraint=eastwest;" vertex="1" parent="12">
                    <mxGeometry y="78" width="320" height="26" as="geometry"/>
                </mxCell>
                <mxCell id="14" value="" style="line;strokeWidth=1;fillColor=none;align=left;verticalAlign=middle;spacingTop=-1;spacingLeft=3;spacingRight=3;rotatable=0;labelPosition=right;points=[];portConstraint=eastwest;strokeColor=inherit;" vertex="1" parent="12">
                    <mxGeometry y="104" width="320" height="8" as="geometry"/>
                </mxCell>
                <mxCell id="15" value="+ method(type): type" style="text;strokeColor=none;fillColor=none;align=left;verticalAlign=top;spacingLeft=4;spacingRight=4;overflow=hidden;rotatable=0;points=[[0,0.5],[1,0.5]];portConstraint=eastwest;" vertex="1" parent="12">
                    <mxGeometry y="112" width="320" height="26" as="geometry"/>
                </mxCell>
                <mxCell id="20" value="FBlackboardEntry" style="swimlane;fontStyle=1;align=center;verticalAlign=top;childLayout=stackLayout;horizontal=1;startSize=26;horizontalStack=0;resizeParent=1;resizeParentMax=0;resizeLast=0;collapsible=1;marginBottom=0;" vertex="1" parent="1">
                    <mxGeometry x="1710" y="172" width="240" height="112" as="geometry"/>
                </mxCell>
                <mxCell id="21" value="FName EntryName;" style="text;strokeColor=none;fillColor=none;align=left;verticalAlign=top;spacingLeft=4;spacingRight=4;overflow=hidden;rotatable=0;points=[[0,0.5],[1,0.5]];portConstraint=eastwest;" vertex="1" parent="20">
                    <mxGeometry y="26" width="240" height="26" as="geometry"/>
                </mxCell>
                <mxCell id="24" value="UBlackboardKeyType* KeyType;" style="text;strokeColor=none;fillColor=none;align=left;verticalAlign=top;spacingLeft=4;spacingRight=4;overflow=hidden;rotatable=0;points=[[0,0.5],[1,0.5]];portConstraint=eastwest;" vertex="1" parent="20">
                    <mxGeometry y="52" width="240" height="26" as="geometry"/>
                </mxCell>
                <mxCell id="22" value="" style="line;strokeWidth=1;fillColor=none;align=left;verticalAlign=middle;spacingTop=-1;spacingLeft=3;spacingRight=3;rotatable=0;labelPosition=right;points=[];portConstraint=eastwest;strokeColor=inherit;" vertex="1" parent="20">
                    <mxGeometry y="78" width="240" height="8" as="geometry"/>
                </mxCell>
                <mxCell id="23" value="+ method(type): type" style="text;strokeColor=none;fillColor=none;align=left;verticalAlign=top;spacingLeft=4;spacingRight=4;overflow=hidden;rotatable=0;points=[[0,0.5],[1,0.5]];portConstraint=eastwest;" vertex="1" parent="20">
                    <mxGeometry y="86" width="240" height="26" as="geometry"/>
                </mxCell>
                <mxCell id="25" value="UBlackboardKeyType" style="swimlane;fontStyle=1;align=center;verticalAlign=top;childLayout=stackLayout;horizontal=1;startSize=26;horizontalStack=0;resizeParent=1;resizeParentMax=0;resizeLast=0;collapsible=1;marginBottom=0;" vertex="1" parent="1">
                    <mxGeometry x="1730" y="20" width="470" height="112" as="geometry"/>
                </mxCell>
                <mxCell id="26" value="uint16 ValueSize;" style="text;strokeColor=none;fillColor=none;align=left;verticalAlign=top;spacingLeft=4;spacingRight=4;overflow=hidden;rotatable=0;points=[[0,0.5],[1,0.5]];portConstraint=eastwest;" vertex="1" parent="25">
                    <mxGeometry y="26" width="470" height="26" as="geometry"/>
                </mxCell>
                <mxCell id="27" value="" style="line;strokeWidth=1;fillColor=none;align=left;verticalAlign=middle;spacingTop=-1;spacingLeft=3;spacingRight=3;rotatable=0;labelPosition=right;points=[];portConstraint=eastwest;strokeColor=inherit;" vertex="1" parent="25">
                    <mxGeometry y="52" width="470" height="8" as="geometry"/>
                </mxCell>
                <mxCell id="28" value="virtual void PreInitialize(UBlackboardComponent&amp; OwnerComp);" style="text;strokeColor=none;fillColor=none;align=left;verticalAlign=top;spacingLeft=4;spacingRight=4;overflow=hidden;rotatable=0;points=[[0,0.5],[1,0.5]];portConstraint=eastwest;" vertex="1" parent="25">
                    <mxGeometry y="60" width="470" height="26" as="geometry"/>
                </mxCell>
                <mxCell id="64" value="void InitializeKey(UBlackboardComponent&amp; OwnerComp, FBlackboard::FKey KeyID);" style="text;strokeColor=none;fillColor=none;align=left;verticalAlign=top;spacingLeft=4;spacingRight=4;overflow=hidden;rotatable=0;points=[[0,0.5],[1,0.5]];portConstraint=eastwest;" vertex="1" parent="25">
                    <mxGeometry y="86" width="470" height="26" as="geometry"/>
                </mxCell>
                <mxCell id="29" value="InitializeBlackboard" style="shape=step;perimeter=stepPerimeter;whiteSpace=wrap;html=1;fixedSize=1;" vertex="1" parent="1">
                    <mxGeometry x="820" y="480" width="120" height="80" as="geometry"/>
                </mxCell>
                <mxCell id="30" value="InitializeParentChain" style="shape=step;perimeter=stepPerimeter;whiteSpace=wrap;html=1;fixedSize=1;" vertex="1" parent="1">
                    <mxGeometry x="1000" y="480" width="120" height="80" as="geometry"/>
                </mxCell>
                <mxCell id="32" value="递归 初始化&amp;nbsp;UBlackboardData-&amp;gt;Parent" style="text;html=1;align=center;verticalAlign=middle;resizable=0;points=[];autosize=1;strokeColor=none;fillColor=none;" vertex="1" parent="1">
                    <mxGeometry x="940" y="450" width="230" height="30" as="geometry"/>
                </mxCell>
                <mxCell id="33" value="UpdateKeyIDs" style="shape=step;perimeter=stepPerimeter;whiteSpace=wrap;html=1;fixedSize=1;" vertex="1" parent="1">
                    <mxGeometry x="1181" y="470" width="120" height="80" as="geometry"/>
                </mxCell>
                <mxCell id="34" value="强制更新FirstKeyID，这取决于父链" style="text;html=1;align=center;verticalAlign=middle;resizable=0;points=[];autosize=1;strokeColor=none;fillColor=none;" vertex="1" parent="1">
                    <mxGeometry x="1170" y="440" width="210" height="30" as="geometry"/>
                </mxCell>
                <mxCell id="35" value="根据配置生成变量" style="text;html=1;align=center;verticalAlign=middle;resizable=0;points=[];autosize=1;strokeColor=none;fillColor=none;" vertex="1" parent="1">
                    <mxGeometry x="800" y="595" width="120" height="30" as="geometry"/>
                </mxCell>
                <mxCell id="36" value="处理动态数据大小" style="text;html=1;align=center;verticalAlign=middle;resizable=0;points=[];autosize=1;strokeColor=none;fillColor=none;" vertex="1" parent="1">
                    <mxGeometry x="1600" y="76" width="120" height="30" as="geometry"/>
                </mxCell>
                <mxCell id="37" value="FBlackboardInitializationData" style="swimlane;fontStyle=1;align=center;verticalAlign=top;childLayout=stackLayout;horizontal=1;startSize=26;horizontalStack=0;resizeParent=1;resizeParentMax=0;resizeLast=0;collapsible=1;marginBottom=0;" vertex="1" parent="1">
                    <mxGeometry x="2365" y="206" width="270" height="112" as="geometry"/>
                </mxCell>
                <mxCell id="38" value="FBlackboard::FKey KeyID;" style="text;strokeColor=none;fillColor=none;align=left;verticalAlign=top;spacingLeft=4;spacingRight=4;overflow=hidden;rotatable=0;points=[[0,0.5],[1,0.5]];portConstraint=eastwest;" vertex="1" parent="37">
                    <mxGeometry y="26" width="270" height="26" as="geometry"/>
                </mxCell>
                <mxCell id="61" value="uint16 DataSize;" style="text;strokeColor=none;fillColor=none;align=left;verticalAlign=top;spacingLeft=4;spacingRight=4;overflow=hidden;rotatable=0;points=[[0,0.5],[1,0.5]];portConstraint=eastwest;" vertex="1" parent="37">
                    <mxGeometry y="52" width="270" height="26" as="geometry"/>
                </mxCell>
                <mxCell id="39" value="" style="line;strokeWidth=1;fillColor=none;align=left;verticalAlign=middle;spacingTop=-1;spacingLeft=3;spacingRight=3;rotatable=0;labelPosition=right;points=[];portConstraint=eastwest;strokeColor=inherit;" vertex="1" parent="37">
                    <mxGeometry y="78" width="270" height="8" as="geometry"/>
                </mxCell>
                <mxCell id="40" value="+ method(type): type" style="text;strokeColor=none;fillColor=none;align=left;verticalAlign=top;spacingLeft=4;spacingRight=4;overflow=hidden;rotatable=0;points=[[0,0.5],[1,0.5]];portConstraint=eastwest;" vertex="1" parent="37">
                    <mxGeometry y="86" width="270" height="26" as="geometry"/>
                </mxCell>
                <mxCell id="42" value="Text" style="text;html=1;align=center;verticalAlign=middle;resizable=0;points=[];autosize=1;strokeColor=none;fillColor=none;" vertex="1" parent="1">
                    <mxGeometry x="2205" y="15" width="50" height="30" as="geometry"/>
                </mxCell>
                <mxCell id="43" value="" style="shape=image;verticalLabelPosition=bottom;labelBackgroundColor=default;verticalAlign=top;aspect=fixed;imageAspect=0;image=data:image/png,iVBORw0KGgoAAAANSUhEUgAAAw0AAACbCAYAAAAgNncjAAAgAElEQVR4nOzdd3RU1RbA4V/CpJFGOqEkpNASEEIJvSrSOzZARH2AFKOIIl0UpSmKitQnIhZ8IkXpoIAgvQuEmoRAID1DGiQQyPtj7mQmk0kyCYGJsr+1XDIz55677wDh7Hv2OdfCx8cnFyGEEEIIIYQohKW5AxBCCCGEEEKUb5I0CCGEEEIIIYpk6ejoSJcuXcwdhxBCCCGEEKKcsnR2dsbe3t7ccQghhBBCCCHKKSlPEkIIIYQQQhRJkgYhhBBCCCFEkSxky1UhhBBCCCFEUWSmQQghhBBCCFEkSRqEEEIIIYQQRbK0sbGhUaNG5o5DCCGEEEIIUU5Zenh44OfnZ+44hBBCCCGEEOWUlCcJIYQQQgghiiRJgxBCCCGEEKJIlgkJCZw8edLccQghhBBCCCHKKXlOgxBCCCGEEKJIUp4khBBCCCGEKJJlhQoVcHNzM3ccQgghhBBCiHLK0tvbm/bt25s7DiGEEEIIIUQ5JeVJQgghhBBCiCJJ0iCEEEIIIYQokmViYiJRUVHmjkMIIYQQQghRTsmWq0IIIYQQQogiSXmSEEIIIYQQokiSNAghhBBCCCGKZOno6EiXLl3MHYcQQgghyjuPTrzx8SyGNdF/M5DB0z9jfB9fc0X1GHCn0xsfMzv/Fy/EI6VydnbG3t7e3HE8hnL4adUNWrjasO99LwbuN3c8jxM7eo5rQ79aNsrru0Rt2csH6zN1TbyqM2FCQ2pXVF5nJbB53iFWX33UsYqHw5dJi56gZt5cazybRx9mdY45YxKivAtk8Oi+1Ejczvyj+u9fZtu+K4zv+xrDYiay7GhhxxfT++DpvNXSE8jmyvb5zF0fXQYxG+fyzFpq161I2oGRhO8w72YwFTt9TXCLqlRQXmefW8bp1WvQ/3EUMHgMfWsksX1+Kb/cQt3ji6Wx9Pa9r3mZ4cTiMZWYFVvGp+mextmwbA6P8+DlM8Ya3GXdL7HUvupFj7dsiCzj0z+oYTNjmVLViYEv2bPP3MGYkcrcAZQ7zeYT2tmW6LmvEZ9l7mCKNmB6PPNq2hM2yIFfC2sUmMWuTxLwx5Hv3nJhipG/iQOmxzOvRbbyqgRJjOHAGjA6ADeFV3UmTAjG+s9SHFtYPIUM9IOGhtLPJ5XNHxWWBDgz7PWG1Ig/w/uzo7hSumhMiPUBr/eBufLazJY0c7MweL/kA+hGr7RnTK1EFk86y+H7ZRqkRoMgPhkZQIFQSzXYd+W1mfWpeeUMw+ZE8ejzBOV7TzvL8NlR3AXAh0mLGlAzNYpFk86UyXfY5+0e9K5Z4AvTUJfdeR4Jh2y290zC9kxl2p6ukPd27do3Wd8qi7PbKzMgpixOdI9v+1ynvavh+xWIPpL/3A/uPtOejONFKxde3GrHwTLs+eHwoNMbI2hpc4Ll09djOJxP3PE5S7ym89ag8fRJnEtpxvuXv5/OqO+BwMFMf+tdPqu1nflzC57rX6XhHOq2cCLpt0FEnUw22sS90xu81tKWE8unG3yvmoF2I0eDA+LclMGt8c8TdlWl6Wztn+UKhA2vRhjQOiyZFe3K5rL+3Qr53lFxbmVluvxQlpX/mqTuqQyPcpFMSdJgNiqef8HnIfZ/n9lfxfJC1YocvGyDf6CxNspsx31Xwjp7FZ54FCl/klC5a2Om9OnIZ54HGLs0qfThl1SdOswdWxOrYwd4eWkSebMJ45pBvsTBmVaBTtw8e7bwWYM63tT0yOT0uoeUMJQ3keYaPJfAqXDefi0c7YC7VtRB3l6WRKnGvA0qE+iaydE1Vx7SNfvTf2IYwVc+5YNVpk1N9Xn7iTJNGADWf7KR9Xn996C3Sj9JKW9saDZ8OgPtdvLG5zvMGEcFXlqv+bn8ZGgCy2vYMfVnR1aaMaJyI7AzrWqruLJ9O4Xd6768bR8XGvSl2dNNWF/a6QaAy9/z1To3xvdtxtNN1pd65qIo6tX9ykWi5lKzJlax+7heSMIAAXRpVRtV9Ha2F/I95E8CCso8q3f3vnsaZ8Pi2XqtrAe3jxMr+g7Q/Jx43GYgLGNiYlizZo254xBlLGR4Kl3vu9GzjwurM4y3GTA9WZMwFDVTUUJxW46x8EAalYIDeOZh5kT52NGzuw9OUWf4PC9Ruc2GeYfYn+5Jyy7ujyoQIYBI1uw6h0ObCcx9vSMuxbQOeaU9vWomsHnqP+jOf5nL5tCPR7hRuy8Lpg8myNzhCAMedOreAM/UcHYWNYWQuINNpxJwDurIgy5vSIxKJhNbXKo93usk3Dv1oIFnGuF/lNGMyyY7Lqbn4FZddtsXJVd+ZhqazSe0cx297ZyuEKVXImTfbSX1mniSN9meeozwryaTlgMwhMBJA6mwfx6ZQWOp5q70cm0jR75ZwD3tMX6TqTeoDQ56ybV6z3Nc2J1aoH+/8VvxU359+8x8Tq/dasJdTeXufiVnvYG45r0+99149nVb/ta2CVSiul2wbEhbdjT/z7u81j8dW0BXNmRwPNl8sS2FLwBQcfnnyjz5tSUnlrrQQGlRy2isOQyonU3KObcySxi0wg/Gk9iiBnUb2cPVTMCZYR+2paWHtoXe7IQyQ5D3UdeOfNNV+fXNSBa9e5bDQMF1CHDzmDKb4eVOcDUbbp9LN5gZuEOcOpuWAV483dWXXn2qkLd6x6MF3yzRP08kXgb9ewzvyTeG50I7m6LXF5kcXbqTr45pXxexZsLk6y0f+rzTg96WZ/kq0ZdRzRyVvx+6kqA+7/Sgd6D2b40jIxf5M1J5FbllEzPW31dKi7yIWrab6x2757VXHz2gmS3o0ZTlPSsTpW2vaPRKe8Y0s+DY0t18daz4f+BKFiu4De+R9/ubFwuAEo+uZSlKoA4uYXxCfyaGDeCjaV7M/mAVRuccGgQxKNSSY8uOsLrAFIBSsqS/7mLMYU07pVzL8vgB3lmapPsZ16MJX/f05orBd2mc0n/0mfwzEPn6rsi7ixpQYdsBEkOb60rZogyOKSpWU2WsZc7Y6wyf/hJjPndj3RufU/I5B8PyIiNlRe6ZHOuVjO5WQslKj2rXvsn6pvfZss+Gdh20/RTs48nQBJbX06txvePAmk2uvKU2jDGR/72i/bU1R/RKrTTlV2nkVYBmuOhmPvJKtjyICojL6+/ODQ+DcidNGdSrvro/wIZtDGNNu+BN/X1WelftjJeLPamRJwqdZdC6fPAyCS2D8fCABxnlevi5YU8W12NK2En1cQS92AknvdGN/rqF/OsH0on/7TWDsqB++L0zHC87g34z/ubC4vGob2GkH2PrEAr2kxdHgRg70WhaJ+XX14n+6lVilZCcvVywT4vgRBnNtrQOS6O+ox17N5as1K51WDIrumeS96cirwRKT/c0zobdxCHvDTt2FraGod5t/pqZSHUbbUmP5u3MBAveXBqjW2NheB4TzlF0rJrSompHqzL21k1du2LPA8QV/z3li6FdBb5ea8ngIdp+CpYvDZsZy5TGej8o89aUGJZAxbNrm/FrLvJ6693mr5lqMv7nxu2+8Xn95Zt9AgqsbTHSZtjM2PKRNGgH7DeVAbzxz29xZW4XJYloSbVRUwga/ZFe4gAubcfBnuc4uDtVSRB6ENj+O6XPIQS+0Ia7fymfG8jcPIRDm3kEaxosmTC6KhOAkOFqfupWSDP3FN5s50pYZx9+1SYaozPovd8h73iT1jQUJjAHLzsVKbfusGv9Dfy1P9iSymDmQZ1Jyi0rvDztgPv0HFcf63UbeFkZVAcNbcc7XZsx+tpOvjp2nvEjzhdb4x80NISQiH28PE+/DKoJ0/rs5YMDAHdRJ9w2OOo2EcnZ4Ak3txxjzJZjaBOYoKtGyqfmbWcDKAP7KkTnSwQUderwVh9nzi3dUPAzIC9h8LzOohFKAlCnDnPHtmEae/lgvWnXW5xaQ97nzeYeRj7J4sq2z5j76zXTO/Ovx7Il9XSv1ZEs0l+b4F+P0Zxh2IgocpTyoG7j/Fg3J4r1H2tKYIpf0+BAk+E9CDh6gFdHaBOF+ow8vpuvNkZwuKUXzWr7okJbJuVKaKADN48eZJEJCYP+tRQXq34SUyAZ6dGU5T0dOLZ0Y95nfd7pQe+vQqGkiUPkGma9eZ0Rc4cwYa47v8z6kp1q/QbuvPtaZVK3buKro4bXqBmEu584wH+UpCDklfa8viAUxhxm9alw/rrsT2//yjS2TMr7zvvUqYxl1BlmF5swAFxlyxF/Apt50McqKm+AH9LYE9ebUSz+bxL30EwX+ndtgcuxA/xnUhL3GgTxych6TOgTrSQmxcRaksQh+xBLJ56l37tz6btgOl4Lp/N9uPbDe/g2vU50U8ODrJX/32fakynYH/XBVxl0PxmawPKmifyiVgbiDtls73STzCNVafwg6xOsM+jfCtas8+EttXKeBql8GuPKW2rNYH9BLVXe5/lpS6CKWdPgnskKPxteXu6j+cwhm+0945naRcXFvPb38G2aCEeq4ru+gpIQpTC3vjaBURIUBwfWrHM1EosSu36sDtls7xnLafQSBw8/3OyzUScmFv/dpMajzmysmSE4WtKswYNOb4ynb23NLZnUE8tLWJrUD7/nO8GRkRwsZHHzrR2vcmQHysC9uZEWa4n6eC15R1cfR9CLQai/NUwYIOarLsrgXpMg1H8GJXHQvK50ZRlHtYlEwzk07rWIIEYSvmMe4TPnAcqC7Er7OL5sHncKxOKOv5s92epETPjmC2UfrD/g1AxcjS9GLkT3ND6r4cDTnd00A0hlwL/sU1XeoFI7cFXvqkpwEaVSGLT1zWurufXh2SGOp8560aGzDZHKeeZPsNWUX3VP42xYBtdWVssbeA+bGcuUeYl8ox1EmxCr5jzX+SHOjYGd3dhn6nmqluA7A3BI47V+Tiwe6sOsWKWPfmlM3KlZaN46LJl3a9uxeKi3kYXn2hKoYtY0mHS9OdQdksy5ldXw/cFSub5kFg7SJjBKgmLhxOKhxhfBD5sZy5TadqhsbGwIDg7m+PHjJfw2ysoQvBt6knVmPpeMDOb1P0/MG8TvJ2bLPioNqo9LLVvSlH9Ubuv3EXWNrPtg+EfXxe9FKuzWm30or2478t1U7eDdkqOJKl6oVNYnySGwdTbfveVDh0jN659W3WDOlyqiXrfl7zI5x202zPsr3zuamYgqJeolfMV+PtB7HXc8gZinPfKGC4+WPYGN3eGYkTUbdXxpUyuHo0v1ZgzOR7P3og/d63hSg7JZJ3Fx5XuMKqtC6+LWNKgjWfSx9vMU4tSU6gkv+e7mb0zgcvfKuFa3gGMpLN4fT2hPD/qqojQD8waVCXRN4MC0Eq5beKBYXXmtpRcWkWdZopdMrP/4NEGLnqBOD0tYfx9qvsj7Y1ugn7JlXdnG/Lm/GplNOMiS8Qn0nxjGgI/mEvzLLL7cqXzkV5kAMLqwLeQVfwJTtQN3jRPLI7nctAF1umviWL8jktYjK9O0kQWHj+YCPgQF3OLo11dMXrdg2Ce40izQgaiDe/Ilf+pjejMa2oSlji9WRFHPhFjhKcI+70cd/ZvXqSf59v2lHCpwcyaDtXPGcn34dF4as4DA/QuZvv4Exu7maxdCa1jywR/5E+k/Iu1Jqpdu0P89vKveofnpB1l8bM2R3bpBeEyqNbcM/6Ra36ZJtXugLmVykmRPi616rzOs+CtBhZ9V/mZpFzx130mWiuTbKLPTULt2OqGu1hzZbjxhwCGbdwPuEn3KTfd5hg1zImxZXiOLIVhpZjWcvXCxh1smB2+DywNMNWRfebAF0E41+mGNsUF4SemSkNhk3XteDauSeUD/vbXEn+yOe/1mOFZcQ3ar7rjbXSdmp97Mw8l3iay5ltolik0zw4Ph/TADnh2uE91B99rwDnHBNQ0xHKle9DqIfDY50XST3usz1hyPs+SpvDfuMq5tJnfOevFckX3epuO8q3TEjp3jfIwmLvliPWPHt2esmFI3i1bY8lzvNBziXJihd6d+2SR3uv0SS70e9+BMBRNiVejfjde28czBH3izdxoWZz0Y9cBrPuzY+Z5uEH4uzpq7tQ2aONyiXUcnZpX2XCZeb8IuL90MR7QV6mzdZ9rZp53jCtk1q95tXqqXy7n/OaHy8PDAz8/PjEmDRlbKgSIHB8Y/r4Stpw2EGzmggJVcnglMGkjTaT00bxmWLz12VFze4KxXGqVizi5Hfup2m2f9bfm7tMv0Xexxrai781+wnAcgs2T/IBiW9QBwV3c3CCtcPO0A/bv2dgS42ZCtvkVCya6gcOfPM/4zmDtWV96kX7qkYU8TvdImrWzz7upndurEFL2/w9HMHKn3J2BjBIdbtqTFy+6sWZZEr6f9cYs6yzozrM5Wp6Qb/Vnk4uGKJUncv/Qd7436zsTemjNi7hAacI5fJmtnGpQ6kqgzDD/jxuKe7Rkds6vgbIOLHyMX+eWVe2nl/bXUDt6fqoHVUe3gPYHFx0tSq6yZbXi9eRChv53hcDd/mrolsHWTCalaJXtCLNEkKMXFyu988cbvJsbkQL935/JU9QT2L5iomWlwKPYgwEg5DwDWup8TGTY8vcGL7T3j80qCCpbzPLgLFyrRB1jfSjszUprdl4zv5HTnRgmDuWOtqRIt4jxGZ3Ay9OpqUuNRZ4INpjJxVqKARKKSM6Fk95T0rCXqY+Cd4bpyn9gdhdzFL57LM4OpdGUZp43MWji1WETzFgZvZiTn+3WWscG+oxf2FeGOSRlYKvHqTF0WWIjiFkLns8mJ+a0ylYG4qYt3je8WlHnW4HWCqpjdfew4edCS4OaZukG+KRzu0tZb8yVkJqswNq6198zBnwpEmhprvn40O0hp3KW6630yI4u7lgf31xduDCWZFUNiiB4Cpdt9ybTrLVaGFRcLW4sPaGYrYspHeVLp3SQrIbv4ZnlWcnnmSi4D2nUQTV/m8UwcLquIv51D7ar30b8VG1DlDrYPeP8+qLkXHllqjhzPVMp5PEjYslNXhqOU/5jMqzoTRujvjISuvAcgPomzMdnUcHWkBkm6O/mFrnV4QOeVEiNQrqUFnw3XTxwM1ziUvTItTyoXUjh8OYPQWl40sbQnyD+To/99WLsblU7+pMcE/v2ZGPYk1VP2Fr6mYeNRFni25/VhTXnmlEEpjwnboq4/H0fPnh70sUrFzcgMgSlOHEsgJVQzY1GlTmVSjx1krSlTFTczOXEf6pkYq0lsmjF8+ks0rHiBdWNKuKbBPZMfW2WSeKSqbnDunsmxXgYzDRk2PL1K2aVBKfn5rsvDSRzqXtBMD2uSmTj2YGricJ9pT8bT3tqFqcu1uzdpy5nKMEjApIQmMYrkTBuCTZk9cPbCxb4UaxEUl7+fzthSHamlX16kKRNqNIwSJw4VO31NYKV9nFq2xujPoaKe71DR6LuK9HgyTZ6ySSIyORObeh484BKRB3CPL5bG0yjTjYEDtEmGUjJTit5SVrsxNBlWdC/BDk4ZVuyJheeKaKJJWMoiVkuupVhSOy8Jebj++sKNwC/cAKVsa0gcWzE1cSjb35uiaRKacrDf1kpuXsnBpe0SfIOMpdPaz+fglfdxS6p1bYXD9b+ICS/twgNNvwUkJHLrfg0qNXcuRZ+aMiLs79LUHzBc9FzGIm5Yk+WeyXMtS3O0ZlahYqN0PvRX3grMYnTDbFKOOxp9noMpgoa2450WdkTtOlP4MxAGG84YAPFpJGdaUaWOJzWKPYsdPQfX1Xs+xG02bLpKml893hjunr/NnUhWPcytX8/HcinR8LU9TZ4NJrSo40p0vQVdXPkeo0aNMvLfW2ZJGI4nZIKLJ01DCnkugCl9LI/isrM/z8/0J/DKlXwlQo+GJnGp1KQ+IxvrrqPPO/WpmRrJtt9KMCJuPoK5bz+JS8QvTC4sYVCcWL6b3y550m1BKM8oA8ITxxJIqeTH8/9xL1Bimc/GSI4ke9JiRgNCLa+ULEatU+H8dbkiTQa0p21gAge+SSr6JkqPJvSseYujv2vKoEyOtTgO/Xj3s5d4Ins/C0q1CNrQPb5trb/g2Qil5Odhu3DdjmsF7jpbsi9dhbX7bZ4tbostoHbtNF7wLVkafeG6HdfuZdC/UzpDjDXIsOKvBAt8G6TyaZExaO54O/uHUNzziAObB+KZGlnKhbuBDJ6+kIWzhhV7HtOs5eYV04uq8jScQ90WELPWWKKh6dOpxRS83Ywffut8OJm2T1Cje3/dndmGc/Cve4/4IytKlLykxqvJdAogpKweBN09jTcb53Juu12ptwhtHXaTbr76P2us2HzRCs8O8WwdVPzPoL++cGPOMQvqDokrun2+WCvw8xk7rIOTWah3zLCZSTSycGLtt8Z/+hSMtTgVOJ1UAXvf2zznrT2HwWLlh+SvnRWJK3AfvGA8RSn59SrntUrjtdmZtDLW4Iw1x+PuU7dfGqqEhAROnjxZohOUtaQfe3C720rqDViP7jvR7Z6U9GMPGLiRQL0djUpcWmRk5yTNDkwGfUR9RNTxldRr+z+at9W8ZfruSfDLdDcGrLrBi4vSeRG4fdGTLw6kMkz7w0X7sDW9mV9NW93OR6Y6sdSZdQ1ieeG9q8odCL0+2mZwcnKK3naP2QXOc2KpC5OrxDNv0VVeVFql7KtCyAcl+UfUCj/9HYCyEtj80Z+6hEGp5++X1+YuUXvOc8G+ukE/qSz7/hI1x9bjPe2iXO1uQvHX+O2UP++00C8JOs3+xDq6Py9GyoYexm5ExkqtsqPOMDsvMUll2ZQ98GFbRi7x1yvXMHzoXRHXW4bxmsRwIXRpdgvaeITf6vagt96ORJEm7eCjL5qtR/w0OyatNphlMHy4m1sLvm5SyliLcHz5bhbQnjF611FgYXix/OnfoS4Ze2eb/JyG9Z/8TdCiBnTTW+j89iL4ZGQL/rtEv6XhrkQpLN4fx9c9vYna8mep7/Rr1kcEYHn8tNFZBpfG+nHEs3nMTl0MJsdaFBuaDWxKlQvrGFPa5zQk2fFrdCqvNtUrCTrlzgW7NF2bAjsnoexIpFtYnL8kKIsZr6iZUcLyogI7J6HsSGRw/B+H3dhd5Tr9+2bQH9DtnmTJB6ec6d0rWTm/Js6fztjSr8CD54qQYcPTq6rybZ/run7QL8my5IM/KsOTcbza96oSg168eTsoJbJj0ylavdWYjn18OVrotquBNA/0JDVyY7G7LD0URnZO0ux6pB38N8J72Af4eusaOPX6Aa9e+rsf9cOvUwOsAN/RW9Ft+KrbaUm9uh8XnllL7Xyf6/VxbR7h30HQi8NoMm1YgeNLImnHRk61GkfjJ/vge7R06zyMLYTOu5Odt4uRrv1rK9J4La9dBcJ+deLJsGR+3KbEHufGT8fu0FPvPu+ySd6cC9MvtYGidk9aNsmT+ktj6T1Eu75Cc4e/UbDhLkFV8o4vWM6DwROsTYu1ONrYNN+DZp3FO5symNlY28KwJEh7vpKVFxlLRhJ2VaW1wfHadRvaeHTfa9lcL2fsaN3Lm3W/xOr6QX99SQXChnvD0lgsfHx8ZLNeIUS58NCfLP1v1KMJX/e0ZGtJdyrS1yCIT0ZWJuq/hmsrdDsj5dvaVTyGlJ2NKl9k+cRlRpOCwMHTeavxLbbPL90ToYVx7p3e4N2+3lxcPuGhPOhOCFOVg/IkIYQAejRVZhnCJWEwVYMgPunhzZUtR0ufMODDpNcCsDz+N4sLbP0qhFYiOz5fwv7sEAaN74PhI9c8Or3BiJY2nPhBEoaylrTjcxbvzyJk0LsP/NA8IR6EqkKFClSqVInk5JJNmQkhRFnQPMTNEQsyOGrig9wee8pD3CwpTRmYQq/kK9+WqkIU6jLff7UOt/EdebrJer273oF0blWDxO3z5U74QxLx/QLWub3Lk083Yb18ycJMLFq2bJnbrFkz1qxZY+5YhBBCCCGEEOWQlCcJIYQQQgghiiRJgxBCCCGEEKJIlomJiURFPeaPqhVCCCGEEEIUSrZcFUIIIYQQQhRJypOEEOWMJY1encmCt7qZO5BS8+8/kfnTXsDH3IEIIYQQZaQkj/41vyE3iRiUhuqKB41H2JFU/BEPiSNtR02gbdIKPvz5ktmiEOLfyKrXOP7T6B6HF282dyilFrlmF+eaDWHM6/HM+nInanMH9E9SuyYfhdWhivZfp7SrrPzgFLvSdU3qDmzFW+1c8/4BSzt9hCkL4kg37EsIIUSZUVWrVo3HZ8vVbLZvisdua3XafGlhtMW0+TG8Wldvz/ObLrz/kiPLswDHNoya0I7kFR/yZ1IabQEqP8uUd9z5c9xC9poUQxXe/rwxwfke8X2Lv7//k8/25pTyugw5M3R6K9p5V8j3btrfR5j8VRwZpegrJPF4KY599Po3j+fToOy811nXPHl2hy2nTO7hPrOejqVfrpuR4zSfDXR0JmyNA78CkMNP/W/QwsaR7ze6MDmtLK5COU+1/Lvmp4RXIeRg2eX5ht8VAKmuetdWwr6q2pfqWH2WjV7l/S6+XN44hhWnde+7PRXC9GfcuPzt73y+X/Oe3+DWTGvjyNXf/+K91WUzXNT06VLg/TvXwvnkwwhSngph+jPVcMj3YRI75h/gxwj9Nw+yZHFVJoYN4PUXLvPBqqtlEl9JGA6sAaMDcJP7Csngx1IcW1g8xgf6VRg3sg4O544QVlgS0KEhr7ezJfyHrXy2p9RPtCs+1ge8XiGE+Lf5Z800rKxEwMpKD637afNjeNXbmfd7K0mCkmS897mK30bYkZS+l7Wn2jFt7DyqR8aSxXMsnObBjd0LTEwYdK7t3MG0/2UB8HRYF14YHMrgc/v5vgynT/IlCXVqMfP1pnw59RzjZ1wmsexOU07oDd5/8cobvIcEp/JRkDU9wh9OJV7/5sllnDDo6Cc8IcFqfmqWwM60ynQsy2vJlyRovsMvBt4l9CFcT/Gs6PFkY5yTD7OquEkG31oML+OEASDq+794+XtN/7Mm+RCnl6QAuIFBkmBDlzfb8tz4p/AwaEvkGnada8aQkOTR54sAACAASURBVN503PolO80x3ZAvSXDmpfdaMeQTe6pN3c93CY8ujKfCOjMoOJ2dUzdozlu7Jh+FNeXDMQaJQwdPAuySOfBz4bMGT9X3wi4mglUPKWEQQghhnKxpyJNDoFsu3FTxW5b2PRv+upT/K4r7+UNGjfqYq7b+VLe9yGej3njgEqXtZ+LJwg6Pug8xhzt/kUlrYsiq5svgNv+sXNEUhQ3eT5x1fmgJQ0iwmplBsG/nwx9gn7hmx43sHFycSvHkX5OpeH6HJ5EW6XQLKqtZL9NZNhpCc7/7RBxYwemiGrpU5Z2w2jicOl6mCUPpZLN1/gH2xNkR1DGAmgafHtxxiGvWdWndpfSrG5qPmMvCMlkfkcq375/kzG03mjxbGccH7s9EtWvSoXYOf/9wRJeoXLjE5F+uYVXfnz6ejyoQIYQQD0KVmppKZmam+SJomcmxqcnc2qxXMtQyk2NT04n+ojL9tujauCtjv7Sj3jSfbIUuam3ZkTdRoXG081Q2hNKufTA4nh7XiO6h/Dqv/EjFkB2ORAxKZNdHmv6fmpzAy3VVHJuvWz9R+dkpTGvvgVqdwDV1LcYu/Jwbuxc8QOLgzNC23timXefEcb2BWscQFj1XjbwqprSrfDv9FLszNTMT3e+dNFIupCl9ctp/iEhjp9oZT0TvatR4wh2HvZpjgwa1ZmxbF92UU4x2JsKgjMq7KV8u0TZK5o/JerMiRcT6aOTwTNVsshKd+bmYwbthSY6u5EeZqXDWfpLAb69of23Dvs1eDIzT68gpi08b3ub6wcr53wcKlhepiDiozBA4ZbGrZwJVEgzKprwzONk1hdzwKoQcLJjk9A9Kxd/Ghn1X9BI+pS9/m4JxhgSr+amOFeMLlAvpyq+WGhtvp1lzMLECA6tm0RvlWCW2vKKdLG1yZnid2XzxSgpfGF5zMbFqVajmSqX7kfxV5CyDDV1eCiJQHc4nC+MLfGpYXpRx6jCvL4wnb0YgIMOglMiBl9/vQFuHaJaP+7vEM4bKWdh9SU3bZp40DYjgkn6ZUuQJLsa3oZl7IC5cLQdrG25wKrI+9Xy9aOIYp5mB6NCQhc9Xx07bRG92QjNDYK184MqQT3wYory6vut3pvx0W/PCcB0CyexUZjPqNvbEU3Wb8+cNZgZuZKLOqU7tjp68VLsJ7avoyik7zuhJR/3znKhm0H9dZi2pW+Bc2tkU/b6IOcfEGZfJ+6NWxJoJk68XIHgoM0aH4pZyhEVTvik60RVCiH8BVXp6Olu3bjV3HEXbb0/jrvZADiu/iyWkkGY+PWJhY3V8v7RQEo1E1r1enTZfao8vZk3DykoErLRj+6ZYwrehSSjySpUAxzb0awB/fvYGf4a8y39Yy6jvQ5jyTifa/HypRAOO6h078Y32X8WYc4x/R69kqE4tZjZPZ9qIDcp7mgH8S29lcnbGZWKSM6jo74Ad5E8a6jjgqrpF4o17UBcjMklS3yPYVTm2YwhDK11m7Aj9Eqa6TBmdweSvbvDJGzcodk1DMbGaUgbV/a2v6B5obI3JTY4tm8LXJ4q5u+6Ug5ct3LquKnLtQv/m8Xzqb60rX3LKYlfPG5xAkzg8v8aHotc0aN3hzU4pVIqoQkiBWQy9dQ/L9QfdceykMh3DbVkQYcOn/rd51smWU0qS0983E5dUV8IOqgDN9dpW10tcshz5/hf9GY0cfmp3m/0bfOiQpnfejmo+2ujC5BQrbtvcJdQJfs2XSN3Hz/Eet66ruGL02iw5mqZioLtyLFnsagzvLffJV8I0uJMVh9c4MHF7VSZS3JqGYmJN05y3vocLueqLXDMal4Zj66Y85xXP8nERGKbpfoNbM63ZPXbM3aBJClyq8s6UUL4cpUkctq6Lpt2kAGo3coQIJWPyrUKtyrc5+W1pEwaNtLhMMqzd8PAC8q1tiOR6yh0cvLxwhHKQNMD1pAxygu2pZgdUqclHLTL4YMQGZVBdhXHzGzPkzUzOzbjM719s43eKq/GvwrjBFfl9woZ8ZVAd32lAzAenNP2mZRJz2+CwC5mk3AUX0vn2/c18C0oCU5EDBcqnLjF5tOZ3/KmwzgxyjsifCCieCmtO+/sXmTii4GdAXsKQu/d3XlYSgKfCOjNkGvDBKROvVwghHk//qjqVtKPedNEmA/tVJN9Hd/fMFMruTLeOehM02YJF38Xy3q+Z9JivzHik72Xh5L2AI207OUESEPczH44reazaNQ1Ph3XhBWeDD89fZNJM/Tdu8HfEEwTrt3OyJ9gedjcLYdFzduybvJ/vAbhN4rkcVE+aEMTOE4zfqX/eeC4mBhaalBllSqzF2PTpaDaV5JzFyXdnXLnjHXOHMQH3iDjhrBt4pykDeP276qZwzsAfSLlu7Ny36FpNxb7Nev3FVmRLTCr9qt6hQbgta8KdGROQQotqzhBuiWam5B4R5yrmi0G7psEyWM1PDQxPpOL5DfoLdi35+XpF+rnrvWV7B7+KAFns6plC7onKdAzXHKtOswQnE641zZYOG/Ofd/V1G1pUNeHYksRKBaq5FrdeyY6AADvIMDKd5FKVASGOXN3zl24WQX2dX074MS3EizbEszc6mj/P+dK3tic1SecS4NfGE9drUSzfX7DLMuXgTqALXDUpa/Cn/8QwnqxurfdeGyYsbKP5ZdxeZn+wijJZWn3hEpMN/v6eiqxPvRL8/YUbzJt6Q+91KocvpdK6RD9IylA1Tzp5Xja6ZuOpzv5UiTvHRL0Zg9+3RdIhzIeGIVbsKsk6ibMrmDpqRRkELIQQ/wz/qqThweSwslM6t/RKn4a86M3K72JpNzSdV3bpzTiQzp6Fk9lTBmfdvj2S9q/7MrjNFb3dk4zvfkSM5n/hsZnktNXcKXy6nhO31fbUetIWEu1xuaW5o1fD6NnscXepQNrFDDT/ZBrbyQnSSrRKuuhYH4k0FfFZUMUxhwaoOBXrQMPlDspMQopewxwCmscQ3dzg+FT7kp0v1ZWw/fB+18IWJmfTqttVog3ezdLeQk+zZUFEBT6te4ve4Q5cDU4nxMaOX2KMr704cdaRE3Vu0C3Ikcl6uycZ3f0oS6lUz1Shzr5HZdf7hLjdxjW7AlS9Q4MY8LKtQGxKYUnDfZo45UC2PYf1ZwUMdnIq6XdWZKwA3CMm5WYxicxtTn57kLTOHRg8JZO4Dw1nG1T4PNWeb54yOCwvychWZhv86NYygs/PaRKNuIOnCsxalJRTZXsc7mSSWLBiSokhicsmTzNEsmbWm2j2s1MSCKtDZZYoVHV3QJUWp9z5N1LOAyX++5u/rEeRpjcv6aTMbOjfta9tj6vVLZJulN36md+/2AZhnRmUV96kX7qkqKZf2qR1y4xbeAshxD+DytnZmXbt2vHbb7+ZOxYzu0dl11xuHlbprZVQsea8DW2eeIinPX+R3Rf86a63zuDpsBa0s7/Ot2/p1gXkm5G4kYk6xw6owhOeN/ntzzSea1KNVip7VGlxnM0sJGno6EWA7S0u/p1EBs4Mnd6Q4CT93ZSUUqQShF9srCZ44PIk7d1vg5IfY+3y1dk/iFgHXj50l5+aJ/JjisF6B2NrIAysibZnalAmz1WuSHTVW9yK9CpiMbWKOecd+amObkYkbxH2Zp+884Toz0goiZQn93m26j3OnnDGO+Q2z3pY4ZJrzf5bhZzK6Q7NPe6REmHLr0D/5okMdK+YrzRKU4pk2tekjavIWAG4z+lENRYhrlSHIurDM/hm/nHcpzQibFSGsl5BK6f43ZSib3AxrjaNGnrhVtETH67z8wMvpnagfU0X7sSHcyTC8DN/qrpak6GOLyfPEKhCA39r0i7HczRdKedxuM7Kt3VlOJryH9N7rDuwFc8Fp+cbnGvKezS/PncsgYRWPrjXsYIE3Z38Qtc6PCBtiREo1zKjJegnDoZrHIQQQpjE0tHRESsrK/NFoJQRVaqcgz0UWPRctioQl2KBT70s3Av7rHUGr+Tdec9mdMssLPPtqFT2tp+Jx/qJYIYVtqtRxxD6Buv9Hp3PICXHDo8+3njGxnN0SySHKrjTyA7SU7SzCAX7WPRcNe78fZZlhTwPImhQfVoZzhiQyo2U+zjV8KKJKTeXDWM1waZPRzNq1Cgj/00yIWHQWBPuTKRFOoM7ZdDbWIM0aw4m5hLQMJWPirybranpt/W4zbPFlO+cOOvCpHBo1S2eHysrb8bacj41m1atColDK7YiW2JyaNw6kX7uFdkcXvSk34lrdtywTWF680Luyjpl8WnDdN1idCyJSs/FxSOL5ta2/C/ClgUx92jheQ+yrZRZhIJ97OqZgH+WK9MLex6EdwZTDWcMgMh0a7KcM3muspFjio1V415MCjct/alT3IOg1df5+IsLZDQI5ctRXsp7SZy+loNP23oMDCjq4Ax+2xsDdYOY3LUyKQejHmgtQ95Catck/lxVcJ0F/iHU8rrDtbMnysF6Bs16hXp3r7L+28KfgdDPcMYAOBebyV0ndxqGmPB3u3ZNBrfSez7EhUvsuqDiiUFNedEzf5v4XSce6tavv5+Oz/fz8PfT8dyuVpcxzxdduGrS9QYPZcbChSycN47uVcomXiGEKM/KQXmSDU//z4mIQcriY6w5Nt+T5DE381r0npzA/LZZuv1hPfUWKr+kXzZUHBVDFrlybGoix7Ypb+nvnqSUI733q5r3lI/TjnoTlG+npodgZySH2nrTrlcw7Y+fUkqWavPSpz68BJB2lW0H1DxZXXtAJklqG9o1teGPyZrZicOXVIxt60LszptkoNmixukJ/R2PbvH391v0SqBSWbEnlmbP1WWudqo+5hwbzzpoHlqnZ/sXf/PE54118ejtnlR8rI9Imi0dfqiiec5A3g4+ACplXaolE7d7w9OxDB6QzmC9Qw0fmrbmoBvPVL2h167wmQNt21bd4vlxsxcD41Q8v6aQOPLNclgy8bQzXbumkBvuVvyWrdr1F0HJ/HjFi4FKyZKuDMqGfYdccWmgvWurLGgOSkN9sLJmrUS0LVO7pmB3zZMrQCCAc0q+OFPCq+Cr/12EOzMmIEH3XWQ5su2kI+388od34qwza6vGMjAvHt31nig2Vo37x1dyMKoxnVsMpf7mYrZdjb7I0r2eTGujt9B5/h54sy3Pje9JJ72muh2UNJJ/v8TxNpodk9YZzDIY7r5U+aWefPOS3sPdAKzd6aR3jjvXwpn5upGEAfAPqYXXnWscOlHalEG/VKkUnHzy7QCUdjr/Q9M09fx1dG3SrrJ9fwodDfd33XWStfU7M2hQF74ZpHlLu5vQuR+jOB/aWG/Ho2R2br6GS2vd4QXLhozsRvTAjJVa3eLvH/boEpNdJxkFLHz+Kb7poNfM8KF3RVxvnrNHiEgOxc2tCnVCqrDphv66DiGE+PexaNCgQW6HDh1Yu3atuWMR4vHincHJrpmEF1PK9DixbPQqH/4nhKSNY/i0uAe8lZpmdqBR/GGD8qYy5t+fiWFPYnVotlmeCC0evuChMxgdWpGITfOYt0mSBiHEv5ulWq2WhEGIR80pi10dNbMMkjDo3D/+Ne9tjSaw+wyG1n8YZ7Chy5staOsQzc8PM2GgOSNeexKXiF/4UhKGfyfvbnSu7wYpZ9guCYMQ4jFQDsqThHiM6G0Ha1gWJTTu/jaP/3p8yCudurHidFlNNyhrDyoDGQ/yIDfT+PfvQN2MvXz65c5ysJZBlDXNDIMbtyM28eG8TUjKIIR4HFj4+PjkmjsIIYQQQgghRPll6ejoSJcuXcwdhxBCCCGEEKKcsnR2dsbevoQPtxJCCCGEEEI8NlQuLprtBb29vc0cihBCCCGEEKI8UtnZaR5y4+xcgkeACiGEEEIIIR4bquTkZJKTk80dhxBCCCGEEKKcenx3TwoYwKSwukR9PINVMeYOxlyCGDx9FFVPTWDOugxzByOEEEIIIcopS3MHoNOWKWG72P7Br8ysZ1doq1Y9V7P1gz/Zrvy3+ple2Jb4XC157bWOVLr0F1se24QBIJzv912iSqfJDA+1NncwQgghhBCinFLZ2NgQHBzM8ePHzR1L8VouYXJTa47/3IVJZ26XspMABkx6jifS9jJzwS5u6n3Sd3wPegVY5GutPnqAccuSKKvpmMavtmd0qCP5zqKOZOHEsxwp4Ukav9qe0TUTWVSKY/Ps+JwlXtMZNXQsfcPnIBMOQgghhBDCkMrDwwM/P79ykDTs4cMvOhTZYmhgAKqrW5hT6oQBaNmJZtWyCV+9BaOTDJGneXXOFe4D9GzK8h4tmJKwkRm/lmEVV74kwZWRs1oxarE9m0Ye5pf7ZXcaU4V/v49LTfsSOjCUTUsPc+fRhyCEEEIIIcqxclSe9CgEMKB9XexjT7B+183im29IICIXXDzd8s8MlKkUFk38m8u5XrR81f0hnqcoO9hxJAHHhh3o7mCWAIQQQgghRDmmMncAAEOH/M7AQCvl1RU2zHqJL7WTCQEz+P7FtnjmpTe9WP1BL+Nti+WFu4sVscf3Gp9lMND4VT8CLDI4dixZrzzJl8mLnyAwb3SfwdElu/nqeK5mZqLVLaPlQn3H96CXxRm+SjJ2pmjCI+vTK8CLJhZJmmMbBDFvZACueeeJz5uJyF9G5cioxf55PUVu1p8VKSJWA+HHL5PUPBiPIGs4LHMNQgghhBBCR5WQkMDJkyfNGsSKlU+xAqDlEjZ3MVjWHDGVwdM1vxw65HcGWm/hmf/OI7U0Jwqogqt1Buq4Igr3/evz9ZL6yot4g5IhV0bO8uLCqA18pLzXd3wPeo1oyoCRh/nlaibq7g74WmCQNLhS2cUCdWRGoWsjriZnkBtgrxzry+TnLfhp5IZ8JUzdZwYTPfEs6+ZuZB3FrWkoJlbDMqjweNT3WuJS1RqkQEkIIYQQQuixvHPnDhEREeaO49HwcsfFqpg2kad5dcQGXt4YZ2SAn8KiifkH3OvOxRu0s8eroQWau/w9mdpbV3CkTjD1eRjRfJQvEUjh8OX0Ei7GNiXWgip5BCH7KAkhhBBCCH3lojzpkYlPQn3Xv/h2ABsiONKyFS1fdWeN3u5JRnc/Il7zv1OZpOCAa3WgqieuNzNwqeOL5a+5uLpkkHINcDd+Oh83ByzUiUQrJzK2kxPqRNNiNyXWQtxMDJd5BiGEEEIIkY+qQoUKVKpU6fF4KnTEDVLuOOBR2QEobiF0Cov2x7G8ld46g55NGR1qwbElG3XrAno2ZXkP7bA8nRS1Ji/oW9eByJ8jqTTci34hGbiSyYWTuRBi7Fy+BPlboD4Wz9FczWC/Z0BCvtIoTSlSCa612FgNBHnhUiGVG9clZRBCCCGEEPlZent70759e3PH8YjEk6S+i3dgG6qZ0nxDAhGV/HnhP4XtauTL5O6V9T5LIU6di4tnEEEuCRw+Ec3WIxWp28QCbmbmzSIU6GPxEwTejGTVfwt5HkSDIAY2NZwxgGMJmeDiSWiIKXsuGcaaX1CjQNzTozh5UpIGIYQQQgiRXzkoTxrGF9MGU0cvkp4T/6QncOXP3gz/w4StUU0WwS+7z9FscAh9OmxhQbHbrkaz9Ygfo0PrM+rYbr5SSpZCR/TgGwAyOLo5kpSu9nlHXE3OoFKoP+rNGzWzE0cTGDgyANeo0xzTTjS4+Ofb8Uh99ACv6JVAHfs6ioimT9B9UU+6AxDPps1xdGthEN6GI2yo24NeefHo7Z5kQqw6QTQKdCc9ajOSMwghhBBCCEMWLVu2zG3WrBlr1qwxdyyPSAADJoXRscJBZs5YZdLWq/92QYOnM6rlbf4YL0+EFkIIIYQQBVWwtbWdbmVlRWxsrLljeUTUhO9No3rPnnSpfYsjh6+QZe6QzKnTG0x5uhJnVszih6h75o5GCCGEEEKUQ5bZ2dkcP37c3HE8YvtZvHgnN2u2pqtJixv+rYIY3KomN3Z8xFJ5oJsQQgghhCiERbNmzUq2/b8QQgghhBDisaJydnY2dwxCCCGEEEKIckxlb29PjRo1OHnypLljEUIIIYQQQpRDqvj4eGrUqEFERIS5YxFCCCGEEEKUQ5bmDkAIIYQQQghRvlmmpqaSmZlp7jiEEEIIIYQQ5ZSFj49POdo96Wne+KIPtVVA9A7embMOSWeEEEIIIYQwL5W5A9D39Bs9qH1dkgUhhBBCCCHKk3K0piEYL1dLoi9ul4RBCCGEEEKIcsTS2dmZXr16mTsOIYQQQgghRDll6ejoiJWVlbnjEEIIIYQQQpRT5ac8KbgRgW7pqK/fNXckQgghhBBCCD2qzMxMcnPNuIFS8Iu8P7IFHuknWfHWRA7fMV8oQgghhBBCiILKz5arwS/y/sggrq98j6WSOQghhBBCCFFulJ/ypLPHuZzsiEtVWV8hhBBCCCFEeVJ+kgYhhBBCCCFEuWTp6OhIly5dzB2HEEIIIYQQopyydHZ2xt7e3txxCCGEEEIIIcqpclSedJb4lPv4hg4i1NrcsQghhBBCCCG0ylHSANs/X8KBO08wdP5CFr7bF5n/EEIIIYQQwvzKz5arQgghhBBCiHKpXM00CCGEEEIIIcofSRqEEEIIIYQQRVLZ2NgQHBzM8ePHzR2LEMIEVapkUqVKprnDMMmNG/bcuCGrk4QQQoh/OpWHhwd+fn6SNAjxD2Frm0OlSlnmDsMkCQl25g5BCCGEEGVAypOEEEIIIYQQRSo3SYOzszP9+/c3dxhCCCGEeCxYEPLqR3w1rnu+dy17vs1XHw7lCTNFJUR5pUpISODkyZPmjuPfo10GJyem4GKheXnzUBUaTVNxr4xPM3PBVQZZehIwypYcYw2GqbkyIJvDcyrz7M4yPvkDy2Ln1gQs1vvQYbG5YzGnIAZPH0TFLR+w9FC2uYMpnWrzmTHpDSpFj+T1OY/1b6ZZNRvRkdca6daOJOzfw7vfppoxIiHKP8ue4xjWKJfDSzble//+xj843nwYI8YlMnrepkKOLrZz3l7QFX8gN+UwS6as4O8HD1mUI6HDZzO0oZPyKpPza2fzxe/JZo2pdJxpP2YyzwY5KK/vErPrC2aujijQUnXnzh0iIgp+8Nhpl8HJiRlcnGswyB6m5sqAXFZ3d+Wdl9VcGZCORb4DHfi5uyvvaEfufzrQ8E8HIIefVt2g7qOK/x/smenxfNLCKt/3OHPBVQbVtOZQWSU9Bsmcoch1jzCBCRrM9EEV2fLBUuLV9/ED6PQGnze6xuQ5a8kwoYtqL5xh0lNVif7OhTm7Ne+FjI1nTD0nEvZ1ZuLyPWUWruZcwdgor+8mrODTiS9zsczOUDZq9GvGhM6eeXFqlXgA7evHe+MCyd68l9lbH8baEQeendiarjWsCnxSmsF+jX7NeLlRDvvmbeC/ZvhNqdG3GRO62HDs0z0su6B5L3R4R0Y2VnFh/V5mb7n94CdpUo/PhvlRyeiH2WV3nkdkYMs4Zno78M4aB1Zr37S4y8/9YwlN9aTGDtsyOY91vRQuhRb8iZKb6pr/3GVAVTWdY51vEb7Fixdiy7Djh8Qi5FVmdPUjYtNoVhiO5nNP8PXULbgs6MaHQ68xpUADE9zfwCejNgCW9Hx7Aa99FcjhJVMKnqswHtV4d2IIVS4c5I0liZr3atZhzts1cb5ylrmzIokseVQFKX16Gr6fncDWTw/xvytlcRKFRzXenVgP27/+4v21pvxL9w8Qv4+P3/+BKIO3G77cjrDmWWx94xA/K/+M9BrXnb61bnPsv7tZcOR+mZxe02fBoqGbxw8yfkkiwS+3I6y5U/5x680olk4+w4G8O86p7F4wnt0Azu0ZM7kvToYdKlRlEnUZyMrKIjo62txhmCD/QHbmgqsM+t6K4y84skoek1c2hqkZWJYJA+glcxSeID4q4d+zL+FzXvrsXSIjU6HNXBb63+Lkt4tNShiMCtnKkIeQMGgSEWsufmehSU6UmYW3ZlEuEwdIZd+8PWYZPJsug59nbeVnlESndQ4bZx9jY0Jp+nIgtLYLORfPsuEhXbNLhzFM7JrDuvGLOWDKAU3q8UJZJgwAR88w9uiZvP4/G+ZKuF6SUu7Ueo4pYwK5+OFH/Fyq39eyceeMK75nXMEyi91DE7h/0IeO4eaLp/ywpMeTjamUcpj/FTaRcH8jfxxrzrCmnei+4m9KOd8A3GfDvGV4fjiMpp26s+Lv0vbkxKtDyjhhALh0nndHnNf0P6MdT8ToJSmi7HRrQq8yThgAfpu3id+U/v/buwLb9ZKUPPmSBFeGf9SS4V/ZU91Y22JYVqhQATc3tzIJ/kFkZ2dz9OhRc4dRYpNOOZLrcpdGFcwdyb9EuwxO9k8nal15LKsqOzs+f4NRo45zt7o/bmk/MnbUxNKXKFWbz4xhnVFdHFumCQPV5tOvphMJ+3rnzWYQ8yZTl23jtmcf+rYvu1OJ8ku961dOZDzBi/MnMsC/mMa+fkx70Y+7+w/9o+78l7mL/2PPeVfaT5/NqDYOxbcXj5RFyMs0988l8kBRJUO5nPjmIJEW/rQY+oCrG3JPkaAGXDxKuU7Clu5jm9HaNopvyzJhEI9G/brM7eXNtW1/lmnCUDopLJ38NxfvedLiJQ8KzncXTeXt7U2zZs1Ys2bNQwnv3y2HnzqmYxHhyUSjCwuKOG7VDVq46t4xVh6jKdHReyOi8DUMmhKfbFC7MOEFR1YBYE10bgYnt+rKcgzPU/w5iok1r3zLierf6doVex4w8oMvh59eS8HicBWeMlIqlHeNCt16ESVGC+Xa82Z8NGsnAiKLWPuhRxOjQbmZQd8578XzSZ2KTNiZw6z+2lK1grMihtdr+H10euNz+ta+hVp9hWSngXy2sA8nv51eisThCV4Y8R88UlfwqZE1BZqZAt3E862L2rUHT/DCjP085RHLvk9rsjzvLnVvxn62nnqqvWze74qbTRbRkQaJSOJ5MrI7U63Za3AZIIuMRHfGfpZLPWVOs1yWMCl3qM/+cI2qA+pRQ6ljyisJMiyB6duJb/oqv064xNypTk74twAAIABJREFU5zmnlBa1vXOWGX86M0HbPvMGa2YfY2OCO2PmtqBxtra9wteP98bVwyP6JDPmXSO+rGOlIbOXNNT8Mi8WACUeZ13XJS+BusaqDyYTN2Yiz7w9F/fvxrPY6JSDA88MrI3n1ZN8aKR/TcmSbt1F4v49jP82VXPcxNZ080xk7axjbMi7M+/O6DktaHL3EnOn6H2XhdD0n8P+fDMQ+fuO79ORkT43WHnMmee6aEvZUg2OKSpW0+1ZOI6456Yw5oW5TPaezkelmHIwLC8yVlb0ceerPFuVItsUSimJqhVThR3ON/L6KdCHMlPhp3eoOrwKDQ+qCsTYsutVtDUDudf0Sq2UczXTq3uI0Jv50JZsTbhwhzl5/dmw36DcSVMGpdb7s2/QxjDWXEd++MaFSfqXXc0Fl9xI9hd30//+Ji5EdqWLW3V4kBUJFg3wdAFSEkvVi2fnILr6pbH10zMFZ/sMy4vSolj6jqadZ+dGTOvnSeK2/OVAtYe0ZUIrK459/QcLDhd3dlu6j21DT9sIfrpejZdaKT9MCpQvaWYqWuvVOWVrZ0UMY+zcgW86F4xXe64BdXTleWnHdTMfnp0bMa27FXtXp9JosLa/u1wxuD5taVedvL/Chm0MY71V4LvQfHdV0f0UKNjGNK4Mfz4AqxMHmbm24OpWw/KiK9s28/7ae2hnBFqorhiUEvkwcWEDal07y6hZkZTu1sxVzkbUp5a/F01UiXp9F6/clCf9c9yh2btXiX5Xeal2YcLo4gek+mYuSMZymQ++yiDzmenxfNI3jp8vagee2oG64QDWGP22XgZtM3h2gjWH5vjw7E7teVL4+L+aPmcuuMogdxcmdNEOtDWD7IiFukF28bEq59mUQeQ6H3wXm34ew+UFTT6/gb/akwAjC8d16x6015jFzq03OP6BJnF4fqcjVwZk0reDI6u0cQ27jb+FAz+Hmfb7M2m1K90mptDkP66gHX+3y6KOizWH5mpifwbARc3s/g783N1Hd33D03lhl6ZNgettl8HJiVfZhZI4BA2mledZvh27FKfXZuB3cDyjTr3G5+2743DItDUNWk6ddvCU03G+e73gAD1kbDxjaqexb46XJimoNp8Zkxbx5bvw+pzFrFr7F6Fj2lGzdVu4qCQGISPxcbrJxe/acsj7DE/eTSLxhkHHMbtIyX5D7x9tWzxbzcDh4kheHbsYQrby2ZjnefmVb9g44XTxF2HVi3c+75JvQKKVm3yYxVNXYEIvCmdajetJq7zXWVxYp782wZlWg2DfvA28f1G7DqIB/zmwh/9qS2BMWNNgX6shs6veYM3UDXmJQpcXEzgy7xobDyZQr7MnrWqd55zym1KjsSfeOTfY+J0JCYP+tRQXq34SUyAZ0cRVJ/4kE8YrnzWpx2fD2jKHkiYOanYtGM/lF6Yx8cX5TKz6BbN+yZ/2e/UOpaX9FebOukacwdGhwzsysm4qa6fu1CQFvn5Me6stc9EMxlfviKHlsCoEN7Zjg3aGokllAiulsv/T4hMGgMPbougSXI+azZ3hgnJtvh7UrXyfC1vD2ZAAoQAeNRnS9gZrp25gQ4KSVLxYh7+UxKS4WEvi4v8+JCx2FPOen85s91V8uHBv3t9vC+cUPnklhU8MjslVTqGqms5h74r4LlfuxCiD4Y87qVitDMQHtozjGQdX3l7+YOsTXIJu0Cm8Cr7bVHnnmdzcltUHVZrBfr8EKoVXwfdgwSGDtgSquDUNHz+dwr19Pvgqnw1sGces5vGsUuvaWzinMLu2K28v92E1moTomZYZPKMkMNoERV1ILNrY9WMd2DKOWS+rIS9xsKCBpwu56ktcK/abySVGrQY/zQxBSQf8FiGv8uGwxrgA5EawaXIpSpOcazCunxPnv/6j4PqCmnWY83YNbm3bxctrM9AOuod/DLxzhgPbLnOidVWa1vbEnwzlRp0TrWs6k3b8YIkGwDY1gnmes8wYsYdIZdDd4QV/jsyKJFKZCWl66ywzRhiZCdGWQBWzpqH2kEY0iT7Ay59pPtMM3BvzXj+99jaedHkGts7awP+uKAlQ+2CeO64kMHrrPma8ZWxWRhO7fqyenRsx7dUnGYOSFNSsw7h+Lpz/ekMpkoT8aoW1ICAjnFFLErlr8Fmvcd3p6xnN0tFKUlC/LnNHd+M9NvP+2hSW7osjtLcnjUMsOaCdoejmSUCFBLZ8VtqEQeNqSga5teyprqJESUO52XLV1taWdu3amTsME2gG4b6dNf/9kKRm9tYUPi5B+jVpjFe+u9Krd9mj1l8PMSyd5q7WHJpTTMIQkEDEthu0UHsS0NlY2/x3wFdPdyYiN4Mm/wHaZdAtECJ369+Zt6XjGkdyA24xS2VirAr9O+maNnfwbas9jzWHlha35iMD/8DCPstiZPNsItfpX6Mt/2/vzMOiKts//gFBUFAYlhFQQRY1l1xwATVNzdzQDLcy2zUX1LfeMsu93DLTt8XCrMzfW6m95pq7laWlCSqoqansiArDMuyyCb8/zpmZMwswbIJ2Ptc11zVzznOe5z7DzPDcz/2972fDaRsc291hogXwZTNOZxTRfmAJGqXYqq45ZIU1521zvxDH7TkYDT5dCrTe9IRBeShiHXlGTyql78wt+MEJtWMewYPKuV/Dfq98xzsLvyCssCMtFOJX8KePedXMJGgdjri5GaWvCWikReFTdFGEpNfYFaWiaatnGAgQOY/wW3dRtH2JdmKT7gO700S1h92/me62PHQRDP1+u5pzcfGPfBASQoiJx6wqOQwg5DTs46XpmsdPBhP/Aq7tDtfmPMQn5lXvh1dvNT+NMzF52Dna4QTE74rhUpYDbftolveFvIOsC9FVzFuoma1txvrS2SGL8/skzsTZS3wfkYfSz10s0mDFE2+GEhoqeXy2nBcfNt3njW3LWPhDNIrBc/lo/nh0aiUHfH3L2fnby5vhnay4dvSKLoqQEMfhy3m4thXtOBvPqXhLWnV0wU1s0ttfifX1OPaZm7dg2CfQxl+JR04ie6VSqfxbkohGLj/8lESmq5JH2ptpK9DpxeX671noOt4I8jBt14lQ3vjoOLkPTWLN6hA0aqWyLGFy7KV5bHYnLFt3WcnNZnSTJkSX2nLmpnH3Fg55jHU38z0qh7IbSrppJuFljVBlG7dxbFkgLJpUkzeP6DsT2xPsyDQypBlbJRGOyJzGunMWxXz3UK6+rQY8E5hJmywnVkrObz3tSJxFDoEdtR3RSqGoku0WCmdaV+kKCWUZhH8eQsisddXKi2ju62acpAyALUGjWuMQf51vtRPwAg7sv4GqeQt69AbIZt8fNylxd6VXG7FJWw/aOag4daSKeQvZUmlUEckZxgsqNtJxqsG1b07pOROqCBU38gxb5XPuO12EQ52Si66J8J4os8uXcSmH+dHdQcWv23TnVUeiiVQ1pW13V0lLw9fVQYmvbznT7Ic78EjbO5zbcUU3af/rb/6IKqVNey+aAByMJTytKb7+zloZ0RMdWpATEcvuetrf1So1NZW4OMO873uPjY0NLi4u9W1GlVkwW0ngYZX+6nRlvGKqClNjg0aNSahMnh6j4LRCTaBvPu9Z2VYSkdDh5FFCo7+FMVJN6kfECf8x823V60eadPxKMY4WZtwL9mwPakqP/SrOLTNdptYnOJGEYIOD6qbiE020IZvVVk682U+YvF9bU7Vyt0K0IZOtg92YeEx0VvaYE6kowrUdCEuiBtEoDUZFyq7w3TsLq2CdIZlc//ZFisbs4en3NnPLSA5ki7LfcTb1M7gsXzMLuyhGG54keOBLvB8tOBrqs5u5DrQCsHbB1QP0Om41CCebAnJTrwAPlWudtb2vyejBA0FeHjESByBs4zHCtK/S2H9axduP+DFKeY79nm3o0yafyzvroQRqXh7JRjMzwM4OXyX8rSrhxw9ChEQ6M2g9aQnz+ztx49habaRBmCNkceo/V2j8ch9mvZHHinWG0QYb2j85hM1PGnSonbfkitEGb0a3v8GXBcLkPelwmlHUoiLCj8Qx/PW2jBmRwN+H7AgKVJJ9xZxIhS3OPk3gijm2wuX/W0zI/5lp1IAQ1j3dmeJL25gnRhqeMec6E3IegDLJ8vjWU25AMu9pJUHGcp4aU2bNxJ3ubB93WxsZqU71JdOVnAxrnVVOZk7FK3TlRXB0P79i9MB0KS6TlKnTzYhKmLjuggp1DX8FsyNOE3qnA28/G8BTKuNqRjZtOrF4YyeDq/K19qqORBP5yKP0HebK/zbmCI7G7RjO1GZVJAo48OHv8O/+jJ8/muFQvepLJis5FVNVUwsz8iuO6NooGa6xU0J2kvgk6ipvrYX35wayeaN4LqI6CeIqDr16G9//dGXV9BzmGUUb7OgxNYjNUw0u096wEG34aowPwbapbG8rOBoxm9KNohZVxdPJHovMdG5USVoPVoWFhURERNRw+AeA41ZkzBcnfpJV5Qkti7BQNyWitjZa0Cb6SjTuYjWfqmPN5EkefLftFhOrUMEp41ZlE2lxkl8btl63JrMsV+eEVIgtg99z4vz8W/w8wzjHo9KyqF82IXac4MBNcDMVITCD47ZcnZFBh4ElNPK9g0+mgvkbzblQ6jjVcuWnCtnLh+s+ZvmCV5nzVpjBXgkFlVdTitxAYvYwfAJm0Mp9CM53z7BdbJ/0+8+k95+Oo88A+E3XR6v+QyS5DmPL7bo4N8aoDJ1JalWe1DCIP6fi9kA/OvvbkuqlxPp6VJ1VN6oWBk5P5SgYNHs+EzrCxW9fKyenIY3PQi+x5PVuvP5CtoGUx4yyqGeTiZ7gTdtAB9pkCxGCj6uaTJ2Qyt/J7Xm0owtuqQ74Nb7FsUPmOGsFpMdqxqq9Eq7tnlrE7Ec9SPmt6jkNHwy9Te8yfenRB8MSjVb7t55yY+sp4fkzfZN5b0QK2+rCcdjhKTwXnZkPxgFmOg5WLXM40ztXL4dBI2eqbSp3aMq4oFJj4S9EDyqWHIlRCXX1chEo3cfaWfuqc6Ue174JZ4dzf8bP6kzim/p5DYWVVlPK5o+oLB55uAV9XG3o3LqUS9/XRTJ1AQc+/EmMpoi5Ca8HgLmOg2sr3prZFtuI07ykmZxr5Ey1bao5Do22qhSiMxPIx9Or4zgk8t4GO9bMCmTBWE2+goa8yqspHVQRM6orHUY2opuDEpeEeJbWOJnak06+lmReSOFsFZ2GBiNPKioqIj+/9n9AzMeW09HgMzCHSdpldWGlOfN6E7aXMxlf9akK30wFX5g1sTSFkPyrt3/Al02ILctl4ndSW8rDiqcnKYlxVLN6W8Xt9Ww9bstVdREB0/Tv99i4iiQ9JmytjONWZCCVDYnJyeX1cdyebjub4R2cyK8zNAfFv01wZTIwQbLkMzCFRYFlhO2oWq6JgBCxcAhII+KxHOJ+q8wRE98TjYNi8n2tY8SKRiXtNrD+LfFNS/qaK+l3UfbexMvtKrp4Lz+EX6aR90rm9fclK3IRWmVS0mvsispG2W8vb2kqJbX6iOn9O3H3+nxdRSUDWk3aSn+PYuKOvMQFc+yvVXlSLZCQQ3qBLa06udKi2n3EcfjyXdoP7cNTnUr0JUL3iPhzKm5beTD8uda6++jZmaf9G3HtZLxZeQICrZm0ZCUT/NQcW1teErRIQhzLvo3Duu8A1rwgyrMSUvk72ZL2Qzsyuhw1nUAaB06raN7Nn38NdCD+ZEIVbNQgRCyK23Vg3vhWFJ+PliRWm8KFWRO8dTIos22tnAEh63jtUXuubptXrSRoQxp3ztBLeDaFSclPbVNmzZ5bhtFmKLltjZpCOniZ8atrUczWPuqqLPZrx1V0vMWxjqabbE+wI8shg4WBFdtQlqRGbeHDQ0EVNgPLINr7lBF7tXplUi1HzyU09DPeqGycSingwIdh/FHgzbQPOtNHPHbmSjolbdrx3NiKK3RdOxTL1UatmPBGB7xT4zhYQ52+OfaeuZKOkbIoNZu0PGvc2yuprBAb2BL0bAdJMrP545a06cSr001Li1QRKm6UKBk0yccMG0SibnG9Jl/hv/5m3o+3aT1sJEvHigLqv1KITm9Kj/Ed6VPhvCaRQ2ey8QoYwPMBjYj4Ob5GuQzaROqcOLZvMs6zqIwGkwh9584dDh06VK82LJjtgc+2W6w+rGa1eMx4R2cTidCSFX7DCj8E3CL2iKTdcXsOTshgskRqE7tbScyT0p96WwYP9+B7A1vKr56kWaHPYPXhYvyDnHjzujWZZTn6tsYo8X1ac70VT08yHkPvfs2ytTJ00YPYIyCswnugeuVW+ROyLxVs7ZrD5GBd8vCC2Z7waSKTD+QyUdLU8O/zwzsOzBQrJlU5yqAdvxmnB+fQx0LBapPOoJD4rbEjM8wDH60Npt9XqOMN5CKH882lFGZ3liQ6L+4Ly08x5K0ypAolvfwDIGnbQqJ6CxWTdhlEJSI/bMGn/05h9nNlbHrOxPViUrRHuw1s2rRBOFYczcn3FZKKTPcSw0To6lQLSuPT7XF8+IqkIpHKoBqSGYQdFhJzXRPOG0QZjDd3G7fcg3HVsrUCEuJ4dx0sfUNyH0aJ4ZWjGDSG7vYX+fY1M/dpOHuJbf5KZvaVJDq/9wfMf4Sxy0frxaYMqxLF747hr0ChYtKX1V3pPxvPqcdbCRWTTEUZmnowdrmH1o7UUyeYrbUh12xbK6TdUwx4KIPf3qn+Pg3zLykYOixDTxL0v6uNmSiZRBlWTgKhIpEmymAkCQpMJCGwivIiE5WThIpEBteX2jI03J6o3rdIECf1mupJJTebcfSmmoni+AAxYUriAqr2Wd96yo0d2RlESfqRSrJKbjajxxE4N0xng85eXQWlssjNnI7twfA+L9LlQPllVy2D2uNTFsuB6m/SUItks+mbKNrNbStJdI5gGf4sGSupRgQGFYmA1CT2nPcRKibtMogyGEqClKIkp0ryIuPKSZpqQ/rXa+5BIqnS2Kq1USoJ+os/VA8JUlkzUR2JYHZsvp60SK96UmoS778Hb83vbiDr0lVHMq6cJEZ0arJ/xcGz/NghiOBhkkTnhadgZV+mfebNNElTXQUlgfOb44gK7Uq7hMtsMogyGFZfGvHxaEag29wNAEdvvTEyI04zzURitjlY9O3bt0wuuSrz4CBWZtpTkwm6uJt3lHFuhandq+81Pj5Z+PjUpj5eKLPqkzzTQN5Uc65fV5CY2KxW+7xvqPOdpR9EhDKrXleqXqlIh1AR6dGiy0a5FdrKSHqlXWX+iQiVjfzJODCLdaacAsvRzP10OI7hG6u3I3QDo/3zA3j74Qx9Z0KmRvSetpoX3f8yuSN07SJEBxr/bChvqgM0O0Kf+YRVPxglYjYceZKMTM0p4fttQpTh8RrMfVd9KuzLsHpp1ZKo70+6MGn5Fjpb/c7OWnYY/tm4MHtWZ1wTrrJZdhjMxJ4J83vSsziKzTWItvSe1puRylSOfGtc+lVGRkNZ5CYWH4rDd+QKjPZus+jOlOUj8I45+EA4DMph/szpZ825H2SH4f7DiWkru9DuxmXW1LXDYAYNRp5kY2PDww8/fF/uCi1T30jyJCrYAK9iJJvYqQ03iXsQETdxaw7k/863cwZQxSqrMqYQN3FrYwN5183cyO0fj7iJmyOQat5GbsaI+y20sTYoqSojUz6l+9bxpXIFUx8P4v8u6sINlqMew78snI0mQxD3D8Imbg5Uf2MymUpp0Y83Q/sBeVzdtZpPfk6vpY7F3INGQHxNNnIzBwcGzl7IxI6a3JhiksppadGpU6eyfv36cfjw4TozxxwcHBwYMmSILJOSkamE2pcn1R3/aHmSjIyMjIzMA4RlTk5OvTsMMjIyMjIyMjIyMjINlwYjT5KRkTGP3NzG3LpVpTp09UZBgfwTIyMjUzEuLgU0blz/em1zUKmaUlJyr+ppy8g0LCw8PT0faOW2jIyMjIyMTMOlRw8VCsX9UTDgjz885MUQmX8slg4ODjzxxBP1bYeMjIyMjIyMjIyMTAPFslmzZlhbW1feUkZGRkZGpoHgOvRVPnhvKj3KbeHHs+98yLwxnvfQKplyCZjG+2vmMNipvg2Rkbk3dH5+GZ/NG4NtfRtSizSYfRqsrKzw8vKqbzMeHPqtJ3DJNjzb1bH20m8pXZYcJlB8dB0zuMpd+E8ZyNcbezO+UQ3sGN2LrzcOYpb//ak19Z8ykK9Xd6J3g/lG3ocMyCXycCIJR4THxeXFctLWvcCmiB8nJpLwsvCIGZ3PsMqvqhl+zzLryTaknj7KOZMNXBn66nT62lzml72JdW1NvTFuSQrxRzSf+WR+eLyeDfIey9sry3EMwn4iLMOX8bOfoc09N8x8mgeF8+mmOywNrm9LZOqGUj4Ivan9P5GwW82yOpp6XvrmFFGth7HklZ4PzP8iq7y8PMrK6j+twc7Ojp49e5KQkFDfpjQQptJ28XgsfhvF9d/raethc4h+l4vLAAbQes586nYRyYuFn3fBT+sXpHAgJJwd90f+XINj5ac3eLZtOd99tYIFk62ZckDc/0JC3G5PBlZ5HzhhLw3LPdW5VsJUNXETcnSrHbFK2s20pRDghD3dT9gDJWzbeotONRimQWBTxI9jkulqrztUkupCyL6mHDG7kzLmDEjmNQcHo+vad0/jaBc4etCFV1KNr5nbuimfbHFgXWVDFDbmie2ekrHMNq56uA7l1el9sYnYxDvlOAR+z87iyTapHPnwK4lTUcAvh1T4leOYZ4W70yM+l+sTcwxW0+z5YYwTc6squZ+iJm5iGTurc62E5etv8Hw73fc0fq8nj4YKz3cua8FOgP65RC7Mrf4gNcR77NtMbRnOuvU3yShsCUDAtPcZlruBZVvjxVZx7Fq9DZf3XyBkTjKr1x8jQ9uDkqBFFxnbKpb9M/zZDUAHZq65Qk/FTc5vaMX6iNqytgVBi64x1lvzQS1BfX4ic9fvrq0BzMJ+XCDrh7rqHStVRfHJ4qtcqKUxbAIeZvXLbXDUGySLk5+d4KtL1ejrRQWXq3FtrTA4h4tv5aD63o0hm/W/ob1mZLAluITwxUqerXQvCkveDGnJm5rr6nSF4zAfbVSybObLvD7mEmv23h95OxVhqVar2bVrV33bISNTMaN78fXGLjif+5Mp0/fx0vR9vDQ9hfZvtHlgPPh7zcLZrfEa5onXME++i7IQJuDia6+nm7FFdMbidntq23n90Ayv4PpZxV/56Q0SJhRyZo3EnnN3ODzjHhtyL7DP58/JybRXueH1taf24Vslh6FirkU15VajAh72NPC6bYp53K2YgptNKncY6gG/YX1pbxXP6aOmYwy4DiWoq5Ksy7+g71PY8tgIzWdHSXSpMAHXfJa6LLamGBCcBN3xb67nMWFvfaziF/DLoUSed3VkUZDOnhMdMljbwPQOcbt+JaHVeFYs6U/zfBv83wrlBb8k/jgcb9AyjJ/CEmnc4RGGVxJucJ95qA4chg7MXJMsOCdTLJgyxYJ/74rEttt21s6ph9BCyS12av6fvX6ZG8q2zH69de2OUZrFyfWa/5kH+OqCFf3mjOTt4bU7TJ1zrAlX1SW06l5MR70TpUzscgebtKZsaYib1136hlNRd2kT8Bw9H4DJiiyGkLkPcGJGHzcsYv9i3pdplGqPJ7ByTXw1dn+WqTZfKXjzlA3Ne+fwXuN7OO6AXEb6lRG3242Jv+jbM6gmkYsGSvu2+XjcbcqJy3X4Jufacl5ViqtHoZ6cSOlRgK99I6Jv3Ms/sJmU6xDoqNSpqCKL57hzMq2I3mPvcC8LHY9bkoWvpT0/vNiMbyU/covn1CxyUTeE8cVbIYQcycbVR0nhkUWEzFvPsQzjlnG7fuVKjhvdRg8uNzLdPCichT1bkHiwNh0GaB70XzopbnL+C000A7IP9Gbl2ZsoOi2mXhVJeYlcTQBLhR1d62yQUk5+foIjCY1o2++hOhynLrBi9/XGNGmdz9NSOVG7Inq1vEv6VVsO1ZttFXP45zOkOXRncFAD8/arQYPxe3Jzczl+/Hh9m4FGFuQskWRk/CqRCPktpcszfWiqPavm1vfPkHhdCB+7PncIX4s9XFYPoFN3Z7FNDLErZqHSznYFKU9LhWSQ+N2EfbORMsP+B+0ncJD4PDOMy+uXkmO2miyDApbQZYmuP7170djrbcIOc9+P2kKdR+LIXnw9yg1hqFzObvyNzyLKoKsbfk65nN2RULmD0Loja6f5aO2NPbSf5Xt0d+M/ZSCzezdDezuxf/HK+6Lj0bUja2e2IO6LWByn6WRQ6rN/MlfirBj1oelKMlbwm6N4QqejMrJDGMtX731FracRabDs+NWOhX0y6PWyE4gTdkOpU1a4O/6LrSkZkEvkggycNPcZnEiC5j+zWsGCybqIxvilKaztWyj52+ikR+MH5aHIVLD2y5paL0iX+jrrjhjJrQxtNtHGSNplcC8ABE5nzfNdsU/+ndXLtmE8x/Vh3Px/8VjrIv7e8R7rj6l13WU2JrdRJgM6FcFv5U/e23dP42j3fO3rglg32v/WGChlw6gkRio1Z9L44mXN80ZcOt6SoBhLPrrZlJFd8hnv2pQjqQBlPNU6D/tCe47FaNqLciW/YhPjmINgy1ALqbRKODY4V9KPoRzrblNj6ZSDEoVdFjGR5TkErvg421F4O5LIWktlsGLnNRv69rvDu7ZNxAm7odSpMeFr3Zjwk5BnsK6f7nM8YW8uE8TnWeHu9NBGNErYuuUW/Vx0I+mkRyWMa19IdrgT82vqIPTPJXKh9PNsLLcytNm4jbG0S/9eApj2/gt0s1CjvqHCZtgKQof/zY7VphyHMC7EjKWbmxvNAaPTzRfwrxHdKTg/kXeNFEOiZEn7/S0gcX8ToV3zBSxatRKvgh/ZMHcMWl/DfTtrVkygeeIn7LvbjiZ3Y0kycETyElXc6fkwXYLhlyKgNJ2MnO2s2TQBYai6lzDZBHQgwKuUtFMpEnmSFU87IvCBAAAaRUlEQVQvGMEw7SS5FNWpU7z1XzXY+fDO2lYkmZAL2Y8LZP3gYvZ+U2RipBL2X0tl2BAlvTpf5cIloLGSOcsD8NfqmO5ybfdBVh82llH1mzOafpqerp3nlf/cqNzWWmLbb3bMD8ih72AHECVKvQbn42FrS/gR3XR20rJkVgfo7v3OtRaM/ZcNV8wapZQPQm8z0cGBGZPtRUdEODa6xEXSj9jOV/Ojb0WUCekUAJciiE4P4CFlZ6w4azCP6czzy2YS6JJF5NdL+PJsw14GtWrWrBn9+vWr912h7969S1paWr3aoHUIjCbO+ucLfh3FRXHSbD96C52f3goSx4E2wXRiN2HLNlImOgg+z04nVezT9bn5tMzaQ9h6E2NocwRqI6fBF5+nnbj1/QguXi8TbB30McqTggPj+twhfBXhXF6ucUSEMQOeR7x/4XXTi2s4vfeY0GW/9QQ+tp921LLjoPBh5qgUDoTsY8ddcdI9sSO9z18m3NMOJ4s8Tl+ozFuyp+fIPG0f/lMGMjuwI71/vEx4KTC6F5MtLzF1uugAdO3I2pkPs+aVXIlTYE/P6T6c3biflyLKBFnUqIeZeU50YEb3YnZvC85t3C86NMLkP+uwgcPgHMeGmeK4XTuyduYoFiO2kVwzV7zGf8pAZrc1/+1q9/y7vBboauJMAfFHPmTN3hsmztUSJ6xQLwCXlsVYYc2TS1Poe6k1XrPF81PVxE24zc8zPBn4uSbPoJKchqlqFlk54TfMWvhBHZBL5AIVZ5YLzkd31yIs1A41zl9Z+Wk6jTZ54iVGK8YvTWFtcDLbozQRjAKOLcgga48n3cuJYIxfmsJkF0cWjDRwEmoRVVxzxjoWcbR7Mgk+pnMZtDkJ+zyFibU46b42UJiIz9wvzTMwzmkAUaLUPUOQKKU2MilNat89g8l5Sry+FioVKL2z+XWQitM57gSeq0n1Agmi7e1Vbnhtb6y7v5FpfClxHFx9nLErVJNarn/tgFJhR0FSkgknrfrsvNmYtRTi1R/4qYStW/KJDPbkMXFSvXz9DZ6fm8Ha352Yq8kzqCSnYfn6dKz/zxOvn4TX45aksG5MMj9EuTHhpxJaOIH6pGZSXl0K+GVmGf8Z5SlGKwRHZcL/WXPhWTGCMUXN2n7W7BjTopwIRglbt6hwPeuO32LT9niPHYRX0g4Wrc9j/JLeRL8fwu/j32fY8DYc22ooUQJVmpoiP2d8nCBez2toSs9FK3FOXckMowm64DD4W/7IZ1MEp6B5UDirxt5hKU14d/cqNl2exgr/HvTzhwjRMXB/sjfOxZHsf3cVLHqB0twbGGZOZkfEkz/2Yd0By5Z0mzSaxP0WzNsN7jPjWeG/njn+u/njj4re7ypi5cG4jR6MA4SJ+gFWa6dilvSb0Y82Eft4aZVwRJjA9+HtlIOsPpZLerY9Lq0APafBkq6uTSnNuMUNTFfGLE7KI9PSSbzWiqdff4g73+7jpUuacQcydcwApiad4Kudp3lpZ2U5DZXYWlvTy2NNuDpNTZfuxXTcbMMVrTTJQStN6jUjg38Vu+A1THQiBudw8a0Uvlvsgf/y2lonlzgWw0THYnAOF99K5mdMOQ6XUGWUEqhoacJpuL+wdHBwwM7u/thdtq5x7RNI08wwLn9rYjIvOX/7D92fPHffRm6qHVF0GKRrqNfHCQoyTXTWpguudS4O04+C5O77lfQyXxz7WYHfUty9LciIXC6JXHxF1LEorW32owfhbBHD7X3HdF2enENMXBlO3lOMVtprhn5S8+6jsaQ7KunVrSqj5HJ24xltHxGqPFDY4anpYt8Z3pDKmy4kE20ifB57SHQQABLzyJB8GPyVdqBWceZ8mV4fCldnQevXtSP9fPM4u/2K4DAAXLjCyZgyfNp7YQUED/XBOe4v3ttT/QIE179ZSkhIiInH63XrMJhgx7st9CVCXzUhrqq39pWCboutdT+mJ2y5auJvU1MWzm6hJ2/a8asdahO2enctwKaijhR5jBlYyWCnNzIvJIQQk1EGgFh2vvcaISHz9KIMGq5FuuD1tSdDI5ti5ZrGFy8ncm2guHpmU8QHbQu4fUmhW4kvbMybUU2xbXmHNyoxTYuBREnpUYBvE31Z1LVIZz3nQHXLlphazrlt3zGbrtYOfCGJXly70pwLd/RzLhyUioolQq4+ONf5vzMrnpms7wgsPm8vkU2ax+I5LZjwk+71znI+izXDlseekcqbhKiJ8TC59HrZ6KAeDm0LeLqcOVfcrtUsXH+MDO+WOIlfnLAv3pIkQZvAXoFbc4Nj1u1xczbZWisturhVF0XIPvACl9Ntce+yAoDbW74grrAFXv004cwOPOndEvXl5VQtRiCJYJjst5bQ5DS8ftnIkRGkRMf1Jty5h1UG7SxQtFAgrPKP5ktJPkSpOg/z8pVL+H611BEo5WxkKqamLeVjjq21gYFEqV0RvVpaEPVzU6006cznTvSROgfHmnC19oIdAoPzGOZrze8f2+skUcfsOBJTZiLnQoKjks5G36FLfLNkFiEhCxp8lAEakDzJ0tISW1tb8vPzK29cl2TeIreiH+5yzjdxaIsFx4xPmCD12xHw3CF8Fx3GBzCWL9UtTZwGwG0ANQUpppZKnbD1syAfIDONO6beD0cP7C2oglSqOtjj5AncBbCjRVcLiKjJgIbVlwTUceb3EKHKg95KenW7QrhWOgXq8HTJpMGentNHsdnw4lgAJ1ooLFDH5VZ5ktFgGFCCAsi4KY0K6Mt5AKrwtqKJRBhWasqKkbxQFDO+kW3NVvcNqy8BIJXZ2DJ4uJJjh1Vc1yzLSys0IThJLE1h7bxEEuYJ14etMci1qEWuRbrgFamRIqVy4EZLgpIASnHvepMEQ2FyYVXKF0klSk1o1zoP2wwHdkhX8u3z+XNiGh4G192u3u2Uj00W/3o5i39VME6WSk1eRe5caizpeeBWy6aNa1mEBY1J+F18bSTnAbA3cWUFTFETZ1SpSV/ypXAvxpqaRRsMqy8BoNYJbNmkwBuIm5hIwhjhkLRCk+AkebB1yy1WHFCzAkCtYNGz+rkWAMTtYvVCMw3LVZOcbXCsOJL970bTZ8VbrJ1zzlgOZNmSbrPK2GR4WZ74JFuMNnRdTDC7+SXov3RSpHDt+91AC6EL+9Z4AVKFUnP/NjQtTedGAuBensFW2Dv1AMLMvMEqkBfPT5FteLnfQ3Q9rKueZLL6EXe5BlCUQWqWJV2c7cFOQbvmueS2VDKK29g7NSHjZi4YXKnBupUdjqW5XE4SXpuq5ERpVpVuoUJbaxGpRKmXTT4epU34/pjkW9SugN8+UOFtkD6QXst2QAH9lycaOUZ3KrrhTBWXGr5fUCENxmlo1qwZQ4YMYefOnfVtSrW4kxVlMjpRHqnfjkDzf9n1uUP4LvoM7pHjcCfjBNC/ghYZFESXQfsKmlTmXNUKuWQkAhEqYoLc8O3hjGVEWjUn207MWNUFvzhJDgNOzFjVj3ZV7kvfKTDKV5DmY5ggRV1GgJM9llT3XupXnjR+UB4KC3t+/loY79iCDBqdccdXGykQpUhm91jCtq0qfOOkk3P9sqkLz9vzzIQ8xgxsxpbqTs4H5BI5PocEaX7CgFwiFxgum9syeLhmQzDhXq5vMHYcdojPxy9NYe28ZLZTd44DaKREBTg73oUkAEtuX6i5REjoV42HczEt3O6SGmOjkzHZFPHjyDScYt3w0ss9UKEsr8PqUuhQaYnX1Nh08mw64eoKpsM3WajUefRwaoUn52pJoiTkF1jENmdpAaKcp4wzaz11kQJRimQ2/XOJnJBDonRyrlc21ZZT0RY837aAp62sjSfnZjJuSQrPtbPTy08YtySFdYZLoZsUeG9SSO4lkeMYOg6a74QgcVrxHWDKcTADpYuCxrmJxJqKJt6eyIpd4awau5WlwU308xpKK6+mdHtPOOk9R9MluAVFndphlfSp2D6F3yOvM8LLg1b+SLyGFvTvLsl1CCqv5xJyM2onud6YUk5+G8/ja1vp8gzsfJj/sidFp/7gJU1egJ0P7/znIe01NzLyoCnYD3fF7u9LhLXsRedRTuQ5lKGOUAOtTIxlxaj2rpSmRXHmkjDZXz7UiWu792kjBRopktlUamstIkqU/FqVMNH9DqU3XPheO3MvYfsyFW4JLRihzT0oYfv3t/CrdUNs+d2sEq8AnVE6WZJ54+Z9LU0CsExKSrpvJ+q1TWpsNLQJpks5G5Rpzrftr/O17EdPp6UiVl/CU51xjbhOQWbtyoBcnxuHc5Yor4r+FbXaEY/h79BMO8BU2g5uy50LO1GVQu7f18l3DMDnCcn70W89vt6Z3Dr9RZWcpKrhxIynfHGOi2NjRBmQwKEzOTj27MPaV1wkk1EvFs6rfslV/yld6F1OKLxcu/q4kXlWWvZ1n77DcCGZ6Ax7ek7sWO5GbQkZuZT5KHmykcYO04nVFVFf8iRNsnL8bifeNJVjB6z8NNUoYgBWpGSYIfvRjpNOH+nf5qtmnE4vImBeMtsfkxyfqubXapdcLWHbDOMIiT62/Bld8V+mPIkTgdNZExpK6JJJmN6T2Idx8z8iNHQNcwZX9g+6jDn+WXjcteWvxEZQaM1PyY1w76zmS1O+oxYLjuZYY+WUz/jy2uXacl51l4c6q/FtIvZfkR0B6Xp7R1SOBVeyrbFqXkxnwDhJW3RcbLKYNrCcD5WGLBXqPAd8u5e3D3Qqsel52Li3p3utbAStSVa254d/NyHPZJsCfhlvGDEArluTWVa57Ec7jsFncfF2BRmOalZ8l8Nzkh+55etrUHK1fy6L+hpGSAzY1ITYClczypM4mUsAXX2bkRx9ivLES0JFoxQ8R+k2Wcv+fQ/JhS3p8sxe/Cvq/vYcjscV0mrQFUZ45XJ53yJJvy9wWd2SbtMitJWSmgftY4S3DYlH/MuRMLUg6F/z8Lb6i5MGkY/uU1YRGhrKu89XtMJmJnmJXL3hQJ+nyqtqZMXTr3ZCVziolAup+VgqmvNiWxuizqWy+5cbuDzkCmW5pCWV08eCEQxrncWf/ytnP4jGSqaNNYwYQOGlPLIsm9G2hznOhKGtOixHzyU0NJTP3ijXO6u0793XG+Psr2ZoSwuSIq0rTHCetCyNgCr4P2BJRFojaFpMHy8wTnhGlDwV0P/VXEaY02Vnf/ycs4iLPG/CaejM88s+IzQ0lHljGn51pQYTaWgQnJzD6ZSldHlmHoFd52kPa6sFnZzDaYREYG1FoypLi0xUThJzD/T7OMGNQ4NQPBNMwBLx560q1ZNS0sinLR5PH9LJCuJ3E/aJLtfixnpgznw6LdYJEe9cWMMFTdJz9Ltc3Gr4fujnSdiP3kLn7pLZnUJsWwVbI1R5gBtBoaO1izzqs38yRZJ/ELHpN15W9eLrUX3Y1FN7kxwICTfTc8/g8z+T6T3qYb7cKCa8xf7F/ujO2koQZvXxvxjWzpTagLYvIYKRwecLTsKqfszc4MNMaRMxIhGx6Tf2OY3iCc39xv7FK/td+cJ8Q+4p3tKKR9izfXQLicNgS+ifNqzte5sYcXk6K1zJn+kqA4mIFZM+dyJygUT2o604ZMWkY82Im6AvCfo+KlXyg2zFpGc8hapFWlkQonRIeGpUfclZtEkzzgl7Dk5U86zkfuJ2K4l5UqLeNSW1UitYMFkXZTC1KV7cbs9ajDIYVysChJX4/2pW4i1Yf8INSGbuaP0QuWFlo2uRThxsmcRIbTtN9SRNC1Gi1D0f21QXfWmSmCehScgW+ldyUJVGd7GJkBidKRHniJWatNWPLFgf5szjbsla+VFBbAvWZmcwWzPTzm1Kn+0u/DlRNw5gXEEp9SgHLvTl9R6PMcbznMmyq9FHTnGt65MEDu3B3q+qszKcq1fxiFhXOk6WOAybmvHn4Bz6zU0kYS5AY8J3O5HxpIHD87s9K07lsW6MTvajrTj0uz37o9Q8P0YqCVISPTpT7/ruw6345ZBKJwtClA4VgKnqS71FmzTj7FzmQMghleR+7PlhVzPGSVLwTEmtssLd6aGNMpjaFM+eH8ZUL8pAQFd8myVz4VQF+Q7A7Q0jOLvmCj1H6RKdVyyARatWMmuT9Punn38AKRzYdJRHV0ygeeJKg6jE32yY15GZa64walMZo0xcLyRF98JzVBmbhAaUqn/ksxljMAxwpKWqKcAR1y4jGKa8xhFVNd4PLSXs/iWegJd9eeaFFC78V5AsTe37CJv7ApSiCrtEhEMHbV5PcVIe2UN96HrtPK9cAhqnkDA2AH/7W+y8BAQAlg56FY9KVVF8NFPnMBSG/U3YY20YFjyazcEAd7l28DIJww2iFHmxrD2qZP1QjT2S6kl5lduqoexGBmp8UPj24aUuB9h8servlCBRUuOY34y9UmkSVnzwmz1bglM4JP4vuXPNhaMxarTLDCbkSy98kcMLkupH25a4EPz9LfG4UH1pfZiaqY66cSY+7cH272/x+RFpuMx0BaXO/n44Z8Xx43lTX5hLRESnE+DiQpv2w7BlLw2uorIEC09Pz/rfDhqwsrKiZcuW8o7QMg0YISfC+Zx+CVZTFZRkZGTqCNehvDrvSdyubWJ+OU6B37Pv8HqPfI58uKbc/Rxk6gOhNKtf0g69HaF79FChUNTiVMl9O2tWjCZvfxMTZVtrxh9/eFBQoFlv7c6UVa/Qo/g0Hy/9ptb1+w8mloye+ykjvGM4MGsdB+rbnLqm8/MsmxlI7tHXy98RWmzjknCE19c0bKfB0sbGBn//CoN994SSkhLZYZC5L/HvqcTJQsy/kJGRqVtSj/LxxlMU+j/LvDGmNUjR333GnnhXhs2cSnlCJpl7jTdj355Et7w/CJU4DLVO8wUsWjiB5onrat1hMKT1E0Po5AipMWGyw2AmFt1eJNAHymKvPvgOA8N5bXogVue/5j/lOQzA8CG9cLHIJPLYgQbtMABYubq64u3tTURELW67KCPzQJLAygNKA4kUGJaLlZGRqWOiv+OzPc7MGzSUHnu/wjjekMrRjzeifGcWj43x5Jwcbqh/Ah4nwCmGHau3lpvLUCPETdycgeLElcx4d1Gll1Sb1k/w5r+H422bz/W97/BRzXRJ/wwsuvHyimn0VEDGmc+ZVR1d0n1G5+f70vbGEd74spy9GTQRBot4jry+hgr8igaDRd++fcsCAgLkZGgZGRkZGRmZe06ty5PqEH15kozMP4s6317MXBwcHBg3blx9myEjIyMjIyMjIyMjY4ClSqXi/Pnz9W2HjIyMjIyMjIyMjEwDxaqoqIiYmJjKW8rIyMjIyMjI1DLnztX6VoEyMjJ1QIORJxUUFMjVk2RkZGRkZGRkZGQaIJaNGjXC2blK2+LWCYWFhZw9e7a+zagH2jNp8ScsmFD/f4MGjX1/QlavI2RAfRsiIyMjIyMjI/PPw9Ld3Z2BAwfWtx0NikeDd3Nk2XH+N3ao3i6ZerR7j+/fPc7RZeLj9TUMLrdx+QycPZ3+dn9z/GC6eMSCgOmD2byhJ2OqaT+ATXAAmz9/lOldatBJvSG8B1+v7KDddZbc39kRkUHn8Yt4ql192iYjIyMjIyMj889DrhtWLWYROrkvFhdWMmzXUaq7B3D7SYsZ2zGNXxdv4GReNTqw8WbJJ53x1rwuvc2emWfZW017Gjqq7R+zzWURk6aHcPuNUE7Ut0EyMjIyMjIyMv8QGozTYGtrS0BAAMePH69vUzi+O5jjFe0kOcAfX4sY9uypvsMAA3m8lzv5f21BG2SoAjbBAXw+3JW0sJO89LW4t6aNN4vmerJ37YO6kVEuv++IYMA7jzDgqXac+N/1+jZIRkZGRkZGRuYfgWVqaipxcXH1bQc2Nja4uLjUtxn3jPaT+tPONolz209S5SCDlSuvBCopjbrImxqHAaAwjhUPrMMgojrIiUv5ePQewgOf3uDSh8mzniGwvtJdfIIICRlJq3oaXkZGRkZGRqbhYFVYWEhERER929EwGLCJI0P8tHkMMcceY+Zvms2/H+Pdfy+mj0KXuBD8znGCTbatHHdnBVZJf3KsnChDWUYet4MD2DxcLEVXls3p0ONsvAhW3Vrg65BN+JbKHQQLn858OMsbRwBKifrxAKsOaM8SMH0QM/zttO1Loy4wRXQ8rHp25oOpzlz9IpEW0zUyqDLSwk5JnBXjPjAay5IJ84MY2cbUOXRjvaKxU7zlNFN3lEvkX4kEPeSEezug1oINLvj5lREdbfgHcaHP5BcY3OYOkVtCORhfW+PJyMjIyMjIyNw/NBh5UlFREfn5+fVrxIkpDDsBMIvQdycaJEH/wtIPfxGeDtjEkSEW7HnnZTaUVmeg9rgrrMhOu0VBOS0sXPyYOfQ2e6bvY6846R7xVAfCL/7NldZ2OJblkXyxkmEsmhMwLE/sQ5jcT+/bge4H/iYSsAnuxfji87w0XXAAhIl7Fz54OVfnFFg0J3CaJ6c/28eyi6IsatjDTD8rODA2wb2Z0f0upz/bJzg0PTvzwStepBo4DCPso/lkujCu0CaIBQhtdNfs498HQOOITPc0fVu519LIsfLF2Y1acBp8CAqZRDeFmsgtoURLT7n0YfILfSg7f4F4Nzn7WkZGRkZGRuafS4NxGu7cucOhQ4fq24x7hDvOCiswuZIuopfUXMrun+LoO1VJ7y5/c8XcYcqyOb1B00cZ51V5WHSzwxOIBAp3h/OmpHnJ+RRiMtvgpW8IUfsEBwHg7o08MrEVz1nQTWlHWfptwi8a9NHCCcjAqmdH+nplExYqOAwAJWevcOpxb4Z38IQDSQQ/7k3zqAuiw2Au1jjVKNQgdRZWstJUBCHtT7as+1NwHrrpn3LpM5mnvLNIduzKQwpAHcmWwxaMnNQN4eUWQsWwhE9QCJO6KQC4E/cL/916Gv14hsYW4ZX0Wl2TIELEvvX7caHP5KfwzkrGsetDKIzOvcDgNrb6/br0YfILgxEO3yHul/+y9XS6ka3q+HhAXdU3VkZGRkZGRuYB5P8BUA8TrPRNjAgAAAAASUVORK5CYII=;" vertex="1" parent="1">
                    <mxGeometry x="1560" y="377.5" width="781" height="155" as="geometry"/>
                </mxCell>
                <mxCell id="45" value="获取指向给定键的原始数据的指针" style="text;html=1;align=center;verticalAlign=middle;resizable=0;points=[];autosize=1;strokeColor=none;fillColor=none;" vertex="1" parent="1">
                    <mxGeometry x="627" y="347.5" width="200" height="30" as="geometry"/>
                </mxCell>
                <mxCell id="47" value="" style="shape=image;verticalLabelPosition=bottom;labelBackgroundColor=default;verticalAlign=top;aspect=fixed;imageAspect=0;image=data:image/png,iVBORw0KGgoAAAANSUhEUgAABBMAAAAdCAYAAAD4gyQ+AAAgAElEQVR4nO2deVhV1frHPzEIAoLMMggKCoo4gALigPNYmZpT9/orh0pTKzRLyzRTSxs0NSW7XdO6dk2trMwpzcx5AlJRGQRFBOQwjzJJvz/OPiOH4RxAqrs+z+PznLP32mutvT2cs9d3v9/3fcTDw+MP/o6UpjGxS2Vzz0JgACl5cCLVlhbmrZp7KgKBQCAQCAQCgUAg0IFRc09AIBAIBAKBQCAQCAQCwV8Lk+aeQFNRVSV/wi346yErbO4ZCAQCgUAgEAgEAoGgNv62YkK5kR2/3HnQ3NMQGIiZmVlzT0EgEAgEAoFAIBAIBDXwtxUTzM3Nm3sKAoFAIBAIBAKBQCAQ/C0RORMEgkbHgj6z1/DRvEEaW+0mvMHGZU/h20yzEggEfyY8GbfoI5ZP9W7uiRiINWFz3uPDF/o390Q0sQ5jznsf8meblkCgC58pS9n4xkQc1TcOnMe6NS/Q17K5ZiUQ/MkwGcOrm1cyrWtzT0Sgi1oiE1oQ/PzbTOthA1UyzkQsZ8f1hzex/zlaOPHiyhACW8vfVskS2Lg0lsvNOyuBAdhNCGeqXwknN/+qsT3nwHGu95rK7Hn3mL/p1xqOrrNz3lg1GHcAyri+Zz7aXdlNeINVg+UtKLvOnvmbMHC0BtCa6W/3JayNpFcWJLPtrSucKHnoE6l5TpRw+cvfWH9arerL0AC2THRHabJJuc4rqxLJecgz/VtgV8zFsdk4SW+L4l3ocspUR8MHbH8ilUH2pkQedWH8ndq7DQvK5D9e5qzY1YqtjT1nrTkFZdc054YT9NwLDHO4zd6tiU3Sf9NTwIm9UYQtncCSSem8s/umQb1Yh81hyRR/WgElV3ey8JOTDZiTC5NfmoJvwXE+bkg3umjnxVsLutBO+nIojo1mxUd3kTXyMIL/IQbOY3aYJTe+OkCm+vbjP3Oh/zz++fJE4t/do7nvL4Z5aDfWTPPEBoAqMk6fYfGXuX+iOUFVRgLrl8VyVdnClKeWjGS4h+J9JTe+Pcj7Pz/smdZOx/97m/mhChmqlNuH1/P+D3X8gP4pMSJg5iqe6yktgPiD7AtbWLpd9T9C5U8cjerNc7MWIJu3jgPNMs+/H12mrWRusD2Qw8VP3mTb1ToP0UmNYkKL4GmM61bGmU1zmk9EaDmJ9+fNwinmTaYdPNtMk6gdqyd78/HQFpzefIJ/x6jvMaLv7IE82zWfb+dG8lNdHZXL+HjRPuVxM9yaYLKWXixf14W2GkKFCVPeGMWItvk6zuGvzgO+GJvKQDtTLh1x4ckU+daOPnn8GPyAw/vtCW/k3zSLPrN5bbAj1/fMZ2ec1s6SM2x535U3Vo1j2VNprKjWoM7Omf3aYByv72HOpl/losG4ZTyVtkI5lmr8OWz61Y4Jb6xi3LKnSFuxk3qNNjSALRPtiNVeZAP+U/sR3v8Bxxaf5b91Xrc8tr21n22K47rrd6p6UU8BYGR4b8IsUtg2vwZRo7Mvq8e7I/vlZ5btLmuauXb2ZfWL7mR8Vf36Ng6Khbn2dmPuRLah/2XjOo6vYsngezzv2ErHYl3ed99yR6YdbMnpuqaSY0nQ55bK44L0Oo/60tDzbR48xy3iHwGlnFm7gSNZqu3dp4XxUmg5P88/xy7pM/r4K6MZ71NK1OfH+fh8VaOML++z+rXJiz7Hoi2ZdJ4WxkuhNpqhi3m3+WzpVc6Uq21L38XGr+1ZMmU2L6QvxBAdoOBEBItOII8oWPIUER/6s3PhJ+jflTVhc8IZ0PoqOxfuRiFthM4awvO+uXyzOor9GqsyKya/3o+RFrdZszS27u/H20m8/VKS8rgmCXwI9mfDzPYYawgVjsz7oDc9jVN1nMPfhTIOP51BJ+UdaQsijzoz/s4j9e/CuZjIUYUkH6t+3JhgGRv8SzU/z4W2rPiuFVv1TK01JljGBs+WrDLgWA18prB0vB9Zv77FJ6eLtXbG8/XK73BYN4lXXkhj5Sen0W7RtMgX00PNtBfZgLkTL60IoUt6NLM+ultnT6VnrxB+9op0XBCuTTznOgUAa28WT2tL6elThOsUNYzp90J/hruksmdWVBMtWo3p98IAprukVb+++pIfxdbX/02k1uaOE0NZONSYc++eYluyfFv/OUOZ0f0Rru85wQdHG+ceR95ny2rbi25EsXx9KnYTQ1k41IEWGjvvsmtVNIeUl7+K6K1vMGcrYBTAzFXP0q5aj1VEb13GoVc38ujKaaQs3d6w62YQXXg25E36WucTGTmbTdJNprPLWyz1NePEhTe44rKBRW3usOX0Ws4rj3Phsa6reMzkV96L3sEtqR//vM2Ex53SOZJ6n7ub8CHcte1LmbPdhdELFvLY5OlcurrNoOtao82hhZstrbJuEiWiEWql6JCMZKNWdOxpq7mjhQOB7S2pTJTVLSQ8TKqKyDd1Ishfem/pgY91EX/nwhflBUZ08L9PaJOPZMfogd2wuHeBIzWFAuQc4PiVEtoED2NQDU1qxNwVO+syEq/JOy9Ny6HAxBZ7V/UmdliXJSJvUkpaTgEmtvb1/wE/KiOxzIL23e2x0NjRmqCONhinyNR+AJof/6n9+PdEO2K/PMj0WfuYPiuK605+rH3TGzuNlm509TIl5WJcjdER/j0dcSxO5uhPTSQkPBSMmfaDB56fe/B/V1tCsS0rPvfA83O3ei6sjfj6rgXFlkU86qG1y66ULvbG3EtrUbeQYNCc645KqPlYQ8+3OQhieIgnlXGnOVRXUMKonoxpZCEBYN/aA/K/l+/TqCSTQ/P3MX3WPuZvyUSpFeTd5rMX90l/V6c4U+HJcx/3ZrLmFwMFJ/YSlWZBp7BJdGjIpApOELH+N9IsOhE2yYCeXEYR5m9O6oUjGkLE2egMCizt8Q/UyqPUzolOLqbIEtLqJ7Q+LIqLKHd2IkjxwDHYGbcHRfyVv5VqxTePxBkZuCa50OVz+d+y5+cOFPoWMbMx/4QLbVnxhaJ/V45X5LHsmWw2NFOu54HDg3EpucpvB2pSh47z84V0LLoOYLRjDU2ajAoOxGdi5OhIcBfNPeYBbfCyqSTxWt1CwkPD3ImX3peLH+tmyb+zwo/m0vnJUbw2XLOpzQhHPCvSOVFTdIS5PYHtW5Jx4dbf6+l3n25MamQhAeBkxFH5b8QXyRSRy4l35df/xfWpZCsaFd1l12LFb8lxjuS2YfKafkz31He0Sn46Gkm+fS+GjW60U9CbsuIHeHlOpX3zTaGRSefA4atkt7TDw0C1T+RMaCjFd4hNNsKhgzPqD1/NApzxav2AxOspzTY1nVQVknDbWCl+WI10xPJmJvnNPK2mpCzbknuWJUy2rbttQ7DoM4le7mXEn6wtCqCEM7svcdfMh/5PGZI9wRi7NvLjzF3tsK7MJTtNu4kd8ibmuNpZU5mbjXaTmknlalIF1u2d6aW+aOjsjI+jESnxd/9EIf9ujAq2Je2XU2pP+VP54JN47rm24+m+f9v8sk1K4t2W3Llfga9Hhcb2MO8SnCrMiUr5sy7S/xp4jhuMn7WMyz8dIau2hv6deH+MK3d/PtGoQoJh5PLZm5eJq3Sk99OOmk+ZSOfgiRhK3YIZ1tDH9cXp5BSaYmvvoueB1oSNC8S1JJYT2naLCxkkFJjT1s9BabkB8Ap0xMUsn/izBQ2cdCNTnENCvo1S/AgNaE3ezby/qZhQxuGQAkriXQg9ZUqRcrsJzxxp4JP/WjHhme+diK0sZnBQBVZNNUxN+Eyhv485dyO/oVpQghrxX58kvtSdnhP6Ymj6BJ8pS9loQP6F/MOZJBtZaz0oM6ZXDwdsKjKI+ROF/Ns87kWARSrfqj3lz99zka2/l+HbrxP/8zZ7b2/efsqTopNnG1VIMIxC/rsqit+LbAkc50a1oMI6qIr+gnO3jPAOndZs/6+l+TeRtfQjyKLutv8rNMndtk2PDWwd48zFL1+lYsQORroBVJJ2Vt2u0JYFsxT7AEqJ2TeCBReB1ov5fMEoyRcOhK7hZ8Vj5dKrfP7uPL5uOYn3582lU+pnjPnvDvk+bVuE2vslD+ayrV9bACozfuGtzSu4KM1hYOFXbKt6nBf8rDXHqNfZVvJTXCYjhjoR5B/L5RgAI3oFONK6MoNfDinaSXYCpRJXhezMGRZ9Uc/HvFJOhW4Zv/PcuhS1bUG4X1frRyv3AlUq+4KZvyU2/MHv0Vl0fMyZ7hTSuaMZCUczcQ/ywMEdiNE11wfE7T3AmkPIrRIfupP+cy6dRrajdVU+59Req6wS2n1AZZza3C29WL6uE6V7D3Gy3UCeDbDUaGMW0pU1Mzwo17pGVk/25uPhdqr51IcKM1Ynl7CpSwVo+5/ti7n0RB73L7Wh/xVjtW0FJB9x4cmcMg6PyaHoijWeIdk4Ysql82qv1ewTmlEBtZBzjPi7g+lr7wr6PBOTjhscOpmnS2X4DXan7PoeDTtFzrF47g4eTOjkpymV+THYvYzre+ppcZA4FJPB2M6OBAaYcEJapPv3dMTROItjR1Q/RCPDRzK5s+p6Fly+wOsRGdQvIkvKX1ARq2ZJkG/rkXFJrZ9a8hwMdcLbrITYVK07zhtF5FTKoyt6tu/IC/1tUS5/hwxn2xDpdcp1XllVysyNgfgpn07ZMv0jT6Zrj4XC5qHWF1kc0bB8uPGqRl9q+7WsGG2eHsW2p9XnoXkNVOcr379wVaJK5W8MtPIZaNgCSkw5mWHC826lzMRUsjo8YIbrfcqzHNmtUJMsyjj0RAadlRGO9ct5oEKyVLSThKAKS77fb8/L2mpVtbkCxfWv1uPtk8e+kAccOWVOn0GKfqrbIMKCMvlP1/saxxZpXHRtS4Xa+SquhYn6OSjO7xGN6+LkYIuZLIaztUYl2PLclA6YXj7H6m+r22G0bQq3fz7I299Wyo9b1Zc+pslaloS2LN7cA9/Ua8x7N8nAkOkUriV1xbd9G3q1yNSwOxT8HkPyo77YuXQADMudAIClC3atKsjNTtf3QFzsWlGSGKPDHpFJ5M0Sevo6EeR4V7IJWBHka4uZ7DanEhTtJDuBteJ9KbHfneS9w6X1m4KUU8Hi0m8s+rJAbZs3pfvV+tHKvUCxyr7g5W6JGfnciCthjJ8DTofL6OlaQszJClyD7GjTGuQGeu255nPqwxNsTUBulZjSgotRpvTr74RZcSq/qL1WWSW0+wDZabW5B/uzYaYdVz6MomhCP0a2M9Vo4zU+hNdGWHNL6xqFzhrC84EVqvnUhu99Opi04PIdEzUhQRfaNghLvv/KnpfLkEc29C1Q3sw6DE0hWdEs3ZGgg9VDsOWYcSrViGddSplsbCoXLpyLiRyVjYPy61c1ztIhd3nWUyHqlbLsmVyWSe/uXGpL/ysKa0U9LBuuDtia3OXs8bo8K8eJSRqDn60rFvBwrQ4Fd4i748fQDs50JVe+SDe3J7C9JeWJ8aqn9tbeLP/AD9WtbR6nNp1k67X6DSPPX+BGmpolwTy0G2uetuGqWj815zkwZbSPI1U5CWg+unvA1awSjLo5EhyQw6CnQgiwUe2d+KkbEwGFHeJTm96sH6oWAtK3H9v6ao+F0uah3ld5rKblw2aiZl+q/dpWjI4s+LSj9FrTlqF9vobnbWjFP57ywS4xiuU7qv+VadsU7p38ldd3FMmPe7Mfw2zvaVkSnHl5bTA9iuJY8VY8t/SdDgAZRCXep4e3E0G2qXpGu1ZyIO4WI4fb0RYMCMk3YcyrGxnZvoqbP81jnSHhJ5UX+T5jIrPb9mN3DTaFh0aXaaycG4x9zkU+edMwi0JjUIOYYMUwH08e5EZhsMvBxIUhM7aTdnYxwz89i9vwHWzr/TKLbpzlvdvyRfxQk19YsmwFF5EEiPGHWccIFlxcw4xlaxopZ4IJrqFr+CzjF5Ysm8rF1ov5fMEw5o4KZdpB+R+/ead/Mj32M4Yv2yGNOZd//GMqXytEijooOiQjeXhnuYIbk6tmcUiQLA5G9J3dl3ZR+5j+rvwY+aI4lMUZeiyK60JNcJi+KEU1ztww2HyC/0jNKqMzuDWuE0G9ynG1lPHDDVTCjSQCDGuZwPpZ8rwK8oX9aBZzgDUnASMbeg8t5tsXz9N+ZQi9h8PpLedpOSVIugaF1fqQiwc9+GwBKkEBY3zHPYp33O9Mn6UQELqyeGQKaw7d4PyQdgzr4Ex3cpX5HR7zdaQy7ne9r9nxJEtKh5QyDVMDQrQr6BVQyt69btgOSGVgSAGXjrhxrWcqPT0rIMUUsKCTgzWVubfqEQUgtx8YO7XBF33khBy+2XIMn1WD6T3MgXsnN7BYO+9CzjdsOebDqsG9GeZwj5MbFlfP3VAXR2UkjnGXWx1OZ1CitDjEKr/0/af2IyTtV6avl8SFoQFsmRjM4kmNmW9ATXCYJS22hwaw5ekBhPMb6wEoQXZde7FVTFZuFe7AjR2neHYHKBb6rU5Vn98HL6Uqzym8ewFf6koUOTSAef0fcGzxvhryRcj7d4+9wFxJCPGf2o/wNaGw+Cz/PRrN7KPRdeZMGBHem7CKWBbOamTxQB2LMg6NyKM00g1PnVYAudXhn+2KeNSjFVvvoLI4RCosDg/YPqiIuMMejFRfOA/IZoMuQUAnRrxzzJV3UC34q2FXzMWxmnOVJ2DU85xNixnbD77/3oOXc6Q+uuWxIcVe9b6TkXJ/9TwPqnwR//hcni/C2yePfUPT+e6oC+PvmDFypxvbn0hldIgFuw+2xDgou5qQAJ6425lRnJtRazRYx3mheJdcZ5667UDi8VdGM94phc9elMQC/068P3cUb3GQt7/N5bPT6QSPdaRngBFnFBENo5zwNsnk0HpDhQQ5d7KLqPKxpK0JaEysIIHsQlO87F0wRExwmfwmSwfI4ysrUo/zsb7JHK07Yt+qgtx43SLE2egMpgS64B9ozv7DpSqLwyWFxcGKya935P6/9jFdWgCHzhrC8+ODmZlUj0VxfVETHKZLi/bQWUN4/vVAWB3FDalZelQm+cFOBA0txy1Pxu6C1qiiteUiQKe0aBa9Ks+r4DU+hNcWhsGHJ+Tin6UbQ3wTWLM6kykLujAkMJVvtlyj13Rv6Rq0qtaHXDwYwHuoCQrY0G/hIGSnf2P6aoWA0IOZZ0+w9bskYkJ708nPAafDqvwOPTtYIDv9W72u2RibcowwJSWjttwI8sW5a5I8GWoRUt6Cf2bDV/a8HNca77jWteZMqInLhS2o8iynmwnwoIzDfauI+I+HFBFRyRdj0xk7pgVXvmvFyl/cWUldORMq+WJsMbG7PBgh/cwsHXKXZ4fmsEEhfgA+bWwxKcgirR7Ke1pWLpXuDvhYQuZDVRPkVofhgx0J7hLL1WtqFoej0sLZ3ImXFtlwYdY+lgPKxfILgaTPa7x8AyrBYR/hP6vGCV8B65fJVdnK3KJqC6myuyXkYwPlMja+tg+QFvoDytlTbX7nmL4HVW6HGF2JIk156hV5vojpr+m2edhM7M36waac2rhPLoRI4sOn82HWR3fZ+c4+dtaVM8Ham8Ua52s4bpND8DZNZIW67UCi/5yhzPDOZtdiSSzw9ubt8EGs5lde31HIf4+lEvqMM117mnFIEdHQx5kOVrmc2GiokCDnXmYx5d0tcbEG9LTOVqXkkPdIO5y6Yoia0CjEyuIp6xZCSNwpbjfPFBqXHBm5dKVTgCv70+ofy6xAy+ZgxbhFEUREvINH1Bxe3nCkATPTjERIvRDDXRNbnB3BpsdC+jin89t+uZAAkP/7h5xJNadDx6kNGLOGmSgjEYC8r4hJNcHO1ltj/0qFcHD/LPf0jXrUsjqYBTjjZZ3P+Z8Vi+YqTm/5TWMBXHRIplLPGwmrx70ItErjh3UqfbZoXxJRBVo5HcqziLptjN8ETyxvZnC5oohsKWmCWUhnQtrmc3aXqpJE2fkbnE82xtuvrfJ8ZBeSJKGkCtm5q/xbTYU2C+lMiOcDEk6rVaMoTuLDnzMx8XbiMbU5q0crlEVnkJT3CLbOtkAle3+5TYGDZn6HTm3Vr6seZLfk+6wSZnYzLG6y8La1MlljYbyDMhpBhdxSoA965TJAXqUhYtVg2uTmUoAJDh0D8cWOCW9ESGUo5a9XDW5Dbm4BmDjQMdBXXgEi4iPm1TtJg5bVobMzPo6lXP41WWlxiNlxirfVF+VHZSQ2dvTc0PaEtMnhyGa1ZIpHb3H+nrmOnA4PAwc6DdNtsPWf2h7fsmS+3a6KzIjZcYu4spqPqZG2Toy0q7tZw3hAG9dy+tawV9vqEOZdglOxNduV4oMx0zREAynXQqPOsYolPfJpnW7H4gbnPzAl8jfVfFPzTVVztSjjjQ7l3LnSukYRxNunkGBrSw6cVyWeTIxvxYVsdTuIMdOOOJPYOoc1oQWs7VrOnUgnrUgNJxxs6/o8OOLtXcP5+neif4dSor67pooMiInl5M0HtPP1kIdCH0ziQqYFXgH2SjvC437OFEUnsreJq6mY2rkYnjeh5Co758zh5Xd26y9HWLpg16qW/VpWB69AR1wqUzlxUPFjX8Su1Wc0FsBnozNobANE6Ij2tMtP4PMvVT2fPXyL2yZaOR1uy4jNt2HIUEfyrmchk5WQI32/eo33wt84lYM7VJUkkr5LIqbABp9QxW9QKbGnbktCSSmxh6+zX+2G3Wu8F/7W+UT/pFaN4kIMX0eV4NTRVaN8sXq0QlJUJullZjh4mQOZHDgrw6StZn6Hjsbq11U/lg65S/KMO/J/EwuZaQxjgvPxuW/L+rMqG8SPF2yIrywm0PcPg8bRjRkjNAQCE75NM0M/g5EJz3xvpxQNAFbetUJbNnZ1sNUvLNjaFlc9fvAGzltHREQEERERhIe5YGLdlX9+IH8foYflQdPqILc4tMq4xUHFArdUxsYl6otyuQDRuJgybrAnLWOvqj2Vr2DvsWQKdeR0eBi08HZCp2Xf3IlnguzJOBujiswolfHFxcyaj6kRE7y7uNfdrFZs8fauITLH25uhnR/h+sHrqsiAxESO3rhPm46u8nwAZ25xNsUED38HpR2hfw8nuHGLHxt7AaMvj9hi17buZtWp5McP5jBnjoFRCQoKv+NkgRcj2zZzaedr21k6Zw5zGhqVkH6Ada98yA3fV4iIWMV0PT0kWt9nRex9bw57JVFhg9/eBggKleRkqUUT5EnRBoBND6TIhd8YonVUaayBw9U2k9wkpWgBKaz7dADrADDok6hrBDWrQzxWAY5YZ6VxUa0ygvypeztaaxz3oPETP5m48uSnrjypsbEKGWDqbklrKoAqLkVnMaG7LQmRuYATIC3icwEjG/q++Hi1hUalPpOtKiJLl3BrZEkbf5BLmlXkZKuFXZXL+HjRfuXbsvM3OD9kFEOGt+XfMan0/b92tM1KY69BFSeM2HXXjIne5QQ0SSU2ebSBZix27eiVy8CiD5N6yW0N8xWVHAb3Z3Z4S+KsK8m9labM2SAvFymv5DC4/2zCW8ZhXZnLLT3ERnWrQ057RxyLMzkYrXZL1NmX1S/60EZrzdP4GUIcGLbmcYZpbS3IULyywMnPBDSe8lviYGtE/rW8elou6sHRaGYDWyaqbBIp2lUfrD3VLBIq9Lkmh9cfgvCRTFn9OEMByOLo62f5qjETVZSYMfIHZw49kcF/Z8g3ladrVWjQsDoY0d/1PkWprTWqO+iyBVDRmIXR/6Bjq0rKs00aOeGjFuaV2Lc0IiW3DsHCtJixY4sZq7VZwwpRYsbcSEv29cvjj3gXgqqJIDKycsvwqXWgTA7NT6X9Bz1YNbuQRdWiEywJnPEo22ZoHaa8uZNHJ3w21ptxFpns8pILEEnbs6tFOeiLh70VRnkppNRQiKQiJ90gk0Nxeg6FDZlYcTo5hVBzWhx1q0MeVr62VKbEcFFt3SN/6u6EptTTBNmEnDqyWBnarKCUWMDZ0Qoz8oEiLsaVMKhfBTFRpchVIsUiHrB0Y8IqNyZo9aJXmcriIu7pyrxsaUEHR5RCRE6G2qdGWdFCTpIUnRA26ib7v6xi8hB3jLWua238mN+CjyilrfMfcOcRraf/ag1b5WrYChQ0tAhe91blGBXacEX6PGtaGSQKa7JJ6EZn5QitjAfyaAM9Oi3IrVcUg4LjmxZwXHo9cN46Jrkn8NXKT2rNz6B7XDWrg7kpge1bkhmTobZokT9hn9lD63u/IlXPgeqmRacAtn0aoLmxSvUBNrG1QvtBtZm7BTYPikmvp+WibirY+c4hWDJSZZOoSNWKcjDCWc0ioTpUj2tSkMjyV2H5B6pz1rZS1I9cTrybgPVLwSwIL2Z5tegEc/wmDmfbRK3D7ileKKIT2jPGM5VtJnIB4s4PWQ2OnGzjaEmLomzSDVVs/8glp1lT0qVzMUvG4DahuN+ru/WfHpfRLFg4hEeOrWXOOv0jE2oQR4s4Ep/MkO7O+IHhVofaqEznly+n8N7fIj5EYXXohEM7BwLbtyTreobqqbylF6/P8KD8zCmmK/z/Us6ARqcyrcZSlFZqCkPZ+avMV9QtaaHVsKqWMpGW+sYXa/ddzL0YtH9ba0ASaQY78ViLMtq3NyfhV7VoBz1JiG/F734yptvrd3NQP0qIzSrAxFcebVC77iKPYniQc09PMamSXCnbYs4369nhsIyp3XrRrfIeJ6PiwH4QKBMy5vDN+h04LJtKt17dqLx3kih9BpOsDnZutgR1tKH4VgKXlDczbrz6gg8WMaqQfqWNQK/zqQ/aeQnUMZHmaAzqz35qyqXQUBRWBZBsHcNZgZqgUJDMNl0WCT05vP4Qh6XXI8JHMmV1KDSFoLBTMm5Kfv/to9QFBcnq4FZOt/ZGdLE3JS5alR/D2yePLV0riTzqoXzyXqNVwWAeIaHQhL6tKulrkD2pnpSakH2/CkfbB3CnFkGhppwO6tgV83W/+8SedMail4yT3bXLUyZzN6cMSzdnbKCWBIwprPnEkvfn9ub1JxX5EBQU113d4aCMxMd60GmUCd1bObdtK48AAA4eSURBVGGfcpu3G5zEsS1dvIzJu3qPS9qqRB02g7pQloc0lHrYLORWBzvadHLC3eUBKfuzVIvvYH9eHmHNre+OqPz/Us6ARkeWUGMpytBZqtdJ351n9nfSG+3fy+JaykQGN3B+xSXczIT6pSqXRJqOrvi2K6eTSwnRH9+tv6gR15KbIQV09KjE6o5pzXkTDCzjWDtl9HOroiDJnF0P5CLADM+WqlwM6BA16sI3j4/8q4g+2lZltfDNI7Gv5sTj7+VSqYg2qGOB7+pgi0lBLPEPtzakhGR1GGCBV0ALvFoVcDVS9WNsMzGImd0qVCH9KGwEjT+T2hbTNn7yOWp66GvKpdBQKiSrgnyMp5aMZOImQCkoVJFxWpdFQk8KElk+S3ryZe3N8g8ClFYJ/chgQ8R13g4PZOHUfCkfgoLSuqs7nMng5pOe+PS3omOZE21yklnT4CSOzgR6t6QoRcZFAy6TUVs7Wv+Ri6y5EgRIZKR/w3WPFxncSvW7l1uSQ7GpPZ4WcF55L2hHGwsLSvNuN8ga0qTYOWFLGuei9RcSoJmqOeTHnSbpvgsDHl1We+3x+2e5V2CCk9ew6u0kO4KJrZd8n5TroEfjr2bqR/EdYpON6divC17WhdIT/5owYcrLXdCrKkp5Dpn5YGRrKa8aoZ1oEUnQMHHliQU1R1xU5RTX+sVaFp1BUoENoZM7aVSn0AedfVh6sXC4vZo9on4U7UsiqqgNg1f406M8iYM6ciW0CH6OdyMiiNj0Nk/XGvJmzLZUYzq4qX0RlpqQff8BttbSjbZ9MZeeyMaQSkylaTkUmHnTpS47gd1gfNxVJR7rRUksWQUmaiUlpaoQAFJ5yJLYLApM2hA8TJpAyRl2X5L/8OhrqVBYHdoG+dPVsZRbl7Nrfco/MryrWuLB+pBHeu4DsLHE3wJ0Jh48KiOxzIFhc7XLPKrmePBCLq5D+hGurNzgxqtj3Cm7HMO/dOQkaDS0bB0xkZlkWnry5DTn2u0Xaskh6xO1ejgmQ0cWd1N6PfcuERERbHr7afx1HKcXUhSCNol3W3KnspSBPfNxKrZif22PAS3K2NyzwOCM47ox4mShKS0cSpgkfQB0RkM0lBIT7pWo2z60Ey0qrkUxo0Pu12gNkeeiyMYi3oHxCfIIBfueMr7TKrEpy8qlzKkDoXVFR8bE8tqPabgPH8VbT0r/PzEZJGRbEDi+C320RWANUjh4MR+P4P48E2LC77/cbqAFRUrgWHSbPZ9Xz+Ng3cMfT3MZCVGGxCVYEzbnPSI2LMGQipByiknPKcTC258aC0pcyCChwIaARz1xqcyWP/GvEUfmTWyPXsa124Vkl4GlvbU8QE070SKSdcKpIzOerrnn4pyiWi3ESVGZpJu4MWqquz6BcHX3EezPlEAjNXtE/Th7+Ba3bdoya7YPjreS2KcjV4Ln2Nf4KCKCiA9eZpjGj6sZm2PNsfJJ52A33ZaFH5MtybHMJTy0jqoLGSZkVZXLhYk6Zy0lSdSyT2jgXMxbftoRBvJoiqpWxTzqVh+LhbxaRbVv17Qscivd6TiwrjuNgfh7mXM34TiNbR6oL/mHM0k2dWHAEw60yszkQm1P+a29mT9Uv7un0mvF5GGEXRt5XFH1xINyQaNFp67Vyjwq57gviegSN55coarcYDOxJ8Pd8zizS0dOgkZDy9ZRmk3Urfs4h/ozs9Z7USk5ZH1tGgV3iGtIGE5iIm/tTMaq/yBWT5X+OhJlxGWY4DfKj5G1VjrL4MC5LOwCgnghzIqbJ5MbuCCWEjhyl/1fVM/jUDcmjPZtT1VSrIE5OUwY82oEERGbWNDg8pLXOJVVhreD6ps4I+cKd6va06dtP+U2Z5cJ9LDO52ZmEyRr7DKNlRERRKx9hUcNLOvYGDRP7bT7u3ltE7w/by7vrFA3OqhVdAAghXW7DuK/YJSqnbLSgva+StLOruWQx8t0e7hnIyE9RR/uiLUsQcPiQPFtjkS349k+/djWB6AK2fkYomw6K2++q9sgOhL+aUe1KIFKvt5wjU7rusi3U4XszDkOuwWjDPwqTmL5Ali+rgfbPu2hGr8qn9ObT3HD0QLQFdeoRrmMj5ee58WVIdI4CqSKDtVTZdezDz2rV6j1te1CtlTBwfCoBAXHr9uQ1CGDToqPfrEZ8yKt+bFfOsk+AKZcOulMdi/9HwOXnNnNpYGrCOv/FL6/1lxBwW6wD+5liezRQ0tQjzSYGBEhZSEu4/oPO7gyaCrdJn7EPOazfocDy6ZOJCJCilsru84PO64waGo3Jn40D+Zvor7Dyq0O7tgWJPO9usWBVA5eaE94/2A2fyrfUnD5GmfvdVYl8qxmg1BUSVBVSDi0/ipdNwYqrQEFly+wNzdAzfqUygcvwasbA1n7qZ/a+Ko+YnacYj39CFerjqBfVYn6Ub2SgzSOIirhRhyvfwyrX1RdEznakRWpfPCjE1smqrVTVnPQIahI51r/qATthfB9ls3IZZl69QKd1RFsWbGrpebT/xJTTmY8wvPtKimKN9ewOCTGt+JC5wIGDb0jRdebEnneHlmgaoFWbeFvL/2NFduyYlcrtlarBoFkI1DN9cRFe/7V6h7Pj73DWOR2jFdPmbJc+aVXj/OtE3muA5Xtw5g7ka78q1DGP5TXoro1BMV5H3VhfJF0TYttWSFVjEmMt+Yr9xKeH5rKSbW5JO89xvWQ6XR/bBiHNtRRHvJgJD/6OTN+uFqCxTdPw6q+PPdxO55Ta6qq6CDn8vZbJGzugW/KNZZqRSVoV4MY+dHjjATyos+xaIt0c9y6ncYYedHnmKUjISRY08PfE3NZJAZpCY1CASf2RhG2tA9hkzpwUmcCR+kpeqAVxbEJmqH4F25zZog7I8cPY9t4gFJij8Vxu28bZZPqNogA3vs0QC1KIJNNe26xYaa0nVJiv4sicqifSmS7EMPLwIaZAzTDoItT+WZ1PFZ2plBX8YjbSby9Dt5aoBhHgVTRoc5rVVMfelavUOvr52vteT6wjFNb9YhKkPjxghM/5ueR2DeF5F5qOxT2ggxLeh6EyFHpXNPwB1lqRBGAGSPOW5PYV62dejUHLatEQbwqoaN8HjbM7ZTB2H8qrEyWfH/emsfUf3oA4lqz3f0uz6pVjVBWc4iz4lTnQgYq97Ug8qIdWT21JOH4rzkZH8yknhPoe6AW+8FAf7zM61P1oWbULQ8GIVkdhnu0JON0hsbCPH9fEtFBIfR76XH6AVTlcfZwMq0HK5YWOmwQkgVAWSGhIJGPjjqyfqhkDajK49S/r9N2hmpllL/nHOH0Zv2Tj7NNLcJW2UepjI3LzvPSihBVdQQ9q0rUCx2VHOTjnJMWtg849clv8MIAZiquiYR2ZEX+nkh+9hnJcGU7VbWG6oKKdK7v6BuVoMaZK+zu4cSM/moJFledgjf7MXnN40xWa6qq6CAnYU8S13sH0yMnjo+1ohK0q0GEvfE4YUDRjSiWr5esHVbuTF7jrhyj6EYUC3UkhKwXJqPxbV9F0k+Nld6zYcTePc5tt0n4KixxZXtZE+3Ke73nss1jrtQqn8jI2WzSuo+z8VBvA1Tc4uCFN9ituHk1bc+ovjsZpXZM/p3NhKtXkLh2kcTsYOztXQ1OntgYPOLh4aFTXrUat4g13VOJWL6jaWwOAkE9sXqyNx8PrqjRvvFnwqLPbJZN9eXunvls0rVqt5vAG6vCMDm5mRV6l1kQCAR/BzzHLSJ8WEsi1y5nR5PkcAFFNIHZMW2bRONiHTaHJVO8uL1zIZ/UR2xuupkQNmcJU7xus3PhJzpKRAqaitBZQ3jePbVG+4ZABz5TWDovjAcn3+LdPbrEgoHMWzcJ94SvWPnJ6YdbFlLwl6Dj/73NfL8Utr7+byKbdCR5NEGb6F+1bBJNgFEAM1c9S7v4LSzdrh1TIi/rOML6AluWbm+2Moh/NrpMW8ncYAsS969l7X4DxYQu01g5w55za9diSBc12hzKU3MpdApimHbmM4HgIWIW0pWVw+2I2/fnFxIASs5s4f1jmfiNW8ZTvlo7Lfow+7XBOF7fK4QEgeB/mOS97/HfaHP6zH6ZYQ5NMYItz63qjm/qNT5sQiEBl8m8NMWXguNbmllIACjgRMR6fsvryoQlkwyvKiHQC6/xITwTWMGpL4WQoBfxX7Pyu+s4DHqFF6qVV/BhytLx+GX9ylohJAialVb8481AehTF8a+mFhJqxYiAmSsY6XmT/UJIUOEymhFd7SEnhp8NFRJwYfSIrtjfz+GOgV3UaHMov/Av3nFbxPvjIoh4QsaZiOXsECEKgoeE1ZO9+Xi4I0p7hY5cCX9WFMkRJw4bxM44VXiC3eiB+JWcZLPOkAWBQPC/xMXPPsF9UTh9R3pzpNHCE6TcBiZA8jXmvZvUhAsRa8LGBdL66jcs1GkraA7S2bXxa+yXjGFY/93cbHaB4+9L6KwhPB9ogdJeoSNXgqAOjm9iS5ulzBswGsfTe1R5EQYOJ9jyBl+t3NNsuRIEfxFsApkZEcFMSrl9eD3v/9DQGicKpNwGVsC9OFa8Fd+EyQONCJi5iud6Kozef1S3QJg8xtDAB1zYss7AXAl/P+QRCfbcT9zPqrX7618dTkcf3E9k/1rDy0vWaHMQCAQCgUAgEAgEAoFAINBFs1RzEAgEAoFAIBAIBAKBQPDXRYgJAoFAIBAIBAKBQCAQCPRCiAkCgUAgEAgEAoFAIBAI9EKICQKBQCAQCAQCgUAgEAj0QogJAoFAIBAIBAKBQCAQCPRCiAkCgUAgEAgEAoFAIBAI9EKICQKBQCAQCAQCgUAgEAj0QogJAoFAIBAIBAKBQCAQCPTi/wGACrdESOQYVgAAAABJRU5ErkJggg==;" vertex="1" parent="1">
                    <mxGeometry x="1410" y="610" width="1043" height="29" as="geometry"/>
                </mxCell>
                <mxCell id="50" value="保存所有值的内存块" style="text;html=1;align=center;verticalAlign=middle;resizable=0;points=[];autosize=1;strokeColor=none;fillColor=none;" vertex="1" parent="1">
                    <mxGeometry x="720" y="270" width="130" height="30" as="geometry"/>
                </mxCell>
                <mxCell id="51" value="每个键在valuemmemory中的偏移量" style="text;html=1;align=center;verticalAlign=middle;resizable=0;points=[];autosize=1;strokeColor=none;fillColor=none;" vertex="1" parent="1">
                    <mxGeometry x="640" y="288" width="210" height="30" as="geometry"/>
                </mxCell>
                <mxCell id="52" value="要用到的内存大小" style="text;html=1;align=center;verticalAlign=middle;resizable=0;points=[];autosize=1;strokeColor=none;fillColor=none;" vertex="1" parent="1">
                    <mxGeometry x="1610" y="45" width="120" height="30" as="geometry"/>
                </mxCell>
                <mxCell id="53" value="FBlackboardInstancedKeyMemory" style="swimlane;fontStyle=0;childLayout=stackLayout;horizontal=1;startSize=26;fillColor=none;horizontalStack=0;resizeParent=1;resizeParentMax=0;resizeLast=0;collapsible=1;marginBottom=0;" vertex="1" parent="1">
                    <mxGeometry x="2380" y="-37" width="240" height="52" as="geometry"/>
                </mxCell>
                <mxCell id="54" value="int32 KeyIdx;" style="text;strokeColor=none;fillColor=none;align=left;verticalAlign=top;spacingLeft=4;spacingRight=4;overflow=hidden;rotatable=0;points=[[0,0.5],[1,0.5]];portConstraint=eastwest;" vertex="1" parent="53">
                    <mxGeometry y="26" width="240" height="26" as="geometry"/>
                </mxCell>
                <mxCell id="57" value="UBlackboardComponent::InstancedKeys中实例化键的索引" style="text;html=1;align=center;verticalAlign=middle;resizable=0;points=[];autosize=1;strokeColor=none;fillColor=none;" vertex="1" parent="1">
                    <mxGeometry x="2330" y="-80" width="340" height="30" as="geometry"/>
                </mxCell>
                <mxCell id="59" value="" style="shape=image;verticalLabelPosition=bottom;labelBackgroundColor=default;verticalAlign=top;aspect=fixed;imageAspect=0;image=data:image/png,iVBORw0KGgoAAAANSUhEUgAABEQAAAA6CAYAAAC54oyBAAAgAElEQVR4nOydd1xVdR/H38iWvREVBURRcSNuHD2GSo7UlPRpaRlhrjS39jjQNC0tI63MtKWm5UgTKzXU3HsvEARk76Ws549zx7kDuMDFkef9evF6Xc75je8599x7z+9zvsPA3d29DAkJCQkJCQkJCQkJCQkJCYlniDqP2wAJCQkJCQkJCQkJCQkJCQmJR40kiEhISEhISEhISEhISEhISDxzSIKIhISEhISEhISEhISEhITEM4ckiEhISEhISEhISEhISEhISDxzSIKIhISEhISEhISEhISEhITEM4ckiEhISEhISEhISEhISEhISDxzSIKIhISEhISEhISEhISEhITEM4fR4zZAQkJC4t9E06YZWFsXPW4znioSEixISLB43GZISEhISEhISEg8Y0iCiISEhIQesbIqwta28HGb8VSRnGz+uE2QkJCQkJCQkJB4BpFCZiQkJCQkJCQkJCQkJCQkJJ45JEFEQkJCQuLJw3skc1fPYYSLeGMAoSs/JLSH1eOySjsBoaz8MJQnzSwJiWrhM4r5n81iuJ14Yx8mrFpKSBfJm6v28GHU/E+ZNdz+cRsiISHxyGjN64s/Z9rAp2BJbt+HCcuXMa7T4zZE/zwFZ//pZe6qOGIiYjk8sexxmyIhIfG04RTGB5+XsX698Ldu+RZ8H6tBPZiwooz163OY07+25wogNKQnljci+T1JvD2SP07m0uzliWpCyWPEeyRzh/mSfnY7h3MetzESEjWlDxNCumN+5RB7MsTbD/DHyQJavjJZTSip4ugTVhEeHk54eG2LK664jt1H5/k78exQi9PohBW2w7fSef4+2d9vtAz012jVZ8LbdK97lb/3put3etMitm+JJSZC+Iv+Ppch+p0BANvx6cTsyWRBeQ0sC4iMuMfZecW1MHtNKePjtbFEffrgcRvyVPHa4kTu/pDLi4/bkKeai3x7LAqP/osY287gcRtTMekH2H0+j7Yvz2Sox+M2Rr88ezlE7N6j+YQeFO5+kehzj9uYSng1kzujS/gt2IFJGeU1Kmbjd/fp5WzM2dUuvLhXy4fp1UzujM5WvNmxexrS41PdPnQtRndjSkAZf8/7h++ThW19JwYyqmUxF3+I5JNIPSSPbOZN2EQf3BKvMXPRbYT1jw2vfdCNXm6Z/CWaW0KOAf5v9eKd9rnsfOcUOwCow0szghjgkcOJLw6x9kLNZzEa4s9X/ctZeZbpb55HzeDOSXzaQnnjUxjnTPB+M3T/SiglrG8iww3sNfq1mHWHxe2KOPVZY9ZeFvfxZOgH5wlyucq20M78XtkUKXNYMH6Ool9gLeYcbTohjhlt64u25BK1zYqwSo2sDbwZOXcYvumHWBB+GHWN4daWxWx3WEnwlFDuh4U/ZhFCLtz8RNhWkXLj1IAZs9rhduM4k9alCNu8fVg2zRubu1dYvjSKqBrPbc3YRT3p7qx97wO9zfOIcM7jVP8c4v92Ychd5e/TAL8U1rSuw56fHJhQoI+JHrDvlSSaG6tvN+HcAdW5a04xGwbfp2O6Kz0OG1Puz/gTgw+j5r9I86QDzFl7DPXTff3HhfzqsIrh00OIX7iWY9V4Pw58NpkDAH0msOqVlSxt8x0Ltcz1b8K4z0p8muURu3EECTHa2/iMms+Q5skcmLuWf/JFOywLiNyeQiO19iU3XPCcaFrOfgNu/tSQvt/K/n1gzLCR7gC8HpbIB+qDSWhiUUDkL5rnnTIzDi925r9H9D1XKg82N6TvBj2O+6iRHYflkXq0XySsOMyez+Hk1Aws5derHnhtcSILOxZxU3S+amOeR8qelaxzWszbb00l+d0V7C59PGYY9RrFosltsZX9X3rzd8ZPP6jS5u6Pa9jmMJPhIeOIn/ElJx69mbXCsyeIPEIWT27A4locf9CcZFYHlHL+uCXFztpV7bmr4niruTk7gt0rEFWqQO+2vKhPMUROTi4Zrs70db4tiB/NnGlqXkDGk/gg4QnFaIifXsUQgOIdJ3ljh3x8f74KLBMJME8eFt3eYd4wQ/a9t4ZDWlsU8+OwBLqZWfHjNhdmZQtb27TIYklLE4Ku1Nxp7urOs2R0fB7P7v3g8j7lDqextHK24kH8r5WLIY8MmUjjls6pTwzUBBx1DvPZtEfw9CKgL/5uBVz+6XeSymkS+cdJAt7tSUB/Fw5vLa9V7eM9MoBm5vEc3a4p3KhizdhX9SmGAGSzft5u1svHX9ST1nEiAeaJowGDpr2HX/I65m+68RjtMKXfd8LicFbvOELMHeix15zYx2jRE0Ofvvi75nLxuz3lijcH/jhJ9/Hd6RVkx7FtNbipOPAZa13nM757L4LsjlGTobSTSOL6fiTqe9gq44qDhzvFt78tVwyBPvTt6Er+xe/R7hyiJnBo2Z8mWoTajk/nQnAy391y5pWjNT6AZ5M8cwIC3RE8R+4x5OFTutB+nJgU8f3Y2hApDMjMMMar3QPYIIw7MiCfsgwTPc7x6Ln47TGiOgbR+Y12/Lb+HI86tkAQQ9pQfPQb3vnoOpg9z/TN/fl8OWqiSDoHdp+n+3R/eg/14MQv0Y/Y0tpBCpl5WumSxwetzAgb4sqLd8pZpLyayRvNzdlRoYdJFWjmTdjwhqQdPKpfMQSAdG5FWdGsjxkALfycKbqb/K9+aqRP6nRoyfL+ztz67en02NAXeUe3cSa1BSM+nUdwU839gzunCWLIbjuFGAJw4aqNXsQQAK6uIibDBBvPN1RCXJx6DMDZLJf4s8v0M48+kIs0sV9UIoY8KrwZGdAM8/izbK/I9ePWFiJvFFC//bDq5+3wHsnc1TXJRxJAX383Ci6rh/WoY0bQlE50N4tm49PksaF34tj15xWMOk9ixeR+PCkRTxJyfBjVvSkm986wpSLXj+s/cuTmQxp2GElNI16uJ2ZQgjWOPs92XhKfUd3xNr3H6a3/kF9580rJ3GhOjMEDXL31MJiERLUo4+NP7+NXbM/UWhCSSm5YENckn4UAJkUM9DTh+m29T/OI2cMfp9Kx7fAcLzzy1bkxLwxqi03qGbZ+dF3YVLif1btjqOPtz+td1Jrf3ceRaw9x79SXf0s6kUfnIWL3Hs0nPI+NYkMBSaKwFcM2y2g9uA2Kj01xPDHfjeX+PQB36r31JW5ZPxJV9gLNmlsLbQovcWP5+8onGXWH4vH2OFxE97dF17/mzNZtGuPbDNyHy0DhdWniH1z+cqVOP0SCV4Yhu0Qiw6A5yaxuY0bYa9Z8XSBvUyhTm0w0Q1nkoTArzeg+JQ1H2YUvD2VR7Q9DNucp4j2zz9Sjy2xjco9Z0OFYxbbObZ+LUYwDS/Ty5MWG14K9sbx2irmbNUuKCmE0SnU27uAfzNtciCL0xTKeTQsucDBX3sKNqas74Jt6jZlHLLAzLOPPq0m08muACyl0bFLC7YiHNG9ljpOPMSQXKcdyM5SNka/0VGnmTdhEJ67tz6frgIaYk8Zfe0WvFWE36mNA9qVTzF2TKDzhbeZN2ER3UrdEcrltH8UxKdr0bkt4cEPSFMcnIIQWmXFV354zulDHkXde8qD0xD8s+U1jpxBG4yn/v4xbu38T2tVxZPySLnQovcOa2Vc5K29i5MG8z33xuH2RMR+V+0hLdfzGiaqeIypjX8drRhD9Sy+yNtOTd/wshTalan0qslVnUvh5yfskvDOP0ZM/xnHre6xRuIoUM7L+AwpTbNiaXdEYmiE1GVfdaHvcCIWHieKLLJkdY+SvTTn2uwsfcZSImHja+naiuy9cvgzgSY9WXpg9uMJZhXtIDyasiKStIh7/IWmnBjN9rcirpCKcwvjgf7NxSZhJaNgy0bZpWFwSjSNr524mPw0xynCelH2kF8zG3f0dQnyXlSOKyLxI3K00+8tNGXqO/wW1xUyt54MokW3q42g93no42BkTf+Lvcr1D5ERevsNgXzvq1YVK3DNqB+962BtlE3vpfIXTOwe2oL9HNvs+vozGV7YsjEYR9ZIdzZfvC+2cA9szf6gzKRFHWPCL4ouTZq8GMLObMWfW/8Wak5XZKIxvdlbVc0Rl7EsNWDatPvd+voHFgHb4yEKzstX6VGSrzpxfz+wlKUx7bxAfLHRm9fxNVN1XRD3kRUuoi3cmt3pko/xFqlo4zAC/FNZ4mrL8YilTu8rH0RxjVu84QjxEvs25tiz91Zq1RWo2OtznvGJxasEuUfiPEBJUgOIXKdFJ6bGiCCOyxaxHsmK8nFv11EJwhNCcPg7KZ4rqbdRtjTvTkG4XxOfDDQd7Q+4d+avS0J4DV+4wqLkd9c2gJk8tfFztMCSb1OtVG8Sw1VJavdhO9H3zgOQ9g4k6A0K+jvX4tJDdJ5bcJ/b7N1S9M6wn4TO5v8ItXE5p0gGurFtOHlrGoZicEwu5EnGygnGUdmja+Dqd578uvHx4hZsfTkXuDOLmYIfRvaMc0FPqkNdnZdGo2Ipvy/UoKadfWCIL/B4q/i/R8mTfdnw6FwYpv48otubbIFs+0DKeeWAOJ97LwKbMjMhFzrwie1iTdr+M7Vti8bPVPo8uc1Roq2UBkdtTefBTQ37wVrardB6gROcvJLnniDMLsjNZ2FFmS4kVGwfYMV+t3TBRvoWyVHumjLbkd1mYh+J2IjiWmGDVNr/KdglhItqP12Z8OheDDPh+lREDFeMZqISUAGBSxLbv7tNRccGqehZp7NcSHmSmbjNQlqp5dmzGZzDM3YqNA5THoEA9HEl0zmzGp3NxUJ6G7a8tTmShXx0OL3Yi2fEhxNtzOjaRLm/YYRZfiFeqOat4QCeHIl7ElF8VYynfX/E5e21xIh9Y27LDJJlhHlByw1n0Wu3ciq8Rtff3tcWJLPCwZMo4Q6bIj0l+3k4K59OvWPW9lB9/Ay2fr4tnb5PR0RvnNgZwruo+Iq1fX8zb/vZknvmKuVXxMjHywcmujLSrF7kk32b2PJMGNgJKsfcE1R/7dM5fuUc/L3vqewBqTiL2fSYwc3hzTGL/ZPWHv6jvfiJ5JIKIXIyoc/1rjm/dVs7+pmTu7icTSOywe2kdzV5ZDwpRBIx9RuF5/WuOL9ymED88RwznzNZtgDv1Ro/DPl77HCUXZnDuAo8kh8iuMGd2hQFd8jgzv7xb5TyGTEURyjJoTjKrg9JZ/Z0Dk+T9dcohUh7FeDuUkX0PPv7uHt2d5R8Li2p5jDR+vTNepTeZKRcORPSdGMioholsmioTPJp5EzaxL4v4g3mbs9gYmUCnYEfatjfmoFws6O2Ml1kaf627TVLLtsK2w8nc6deYvp0NaFqUyqcZBjRXzCITMkpvMvNtWZ6R3m0JHx3AFCL5JAnAgee657Fp6hnah3XguQHw17wzuMzpIHiebDbVHKOZN2ETO7L4XZEoQl1aj+5H40unmPi2XARpyZsBaXxyMJoTAW708m6AC8p8Jx2b2JB/6Sxf6ySG+PL64lD8tSWSL7jDnpUr2ZOg4xsD+L7fBc+0i4z5Rv1uShAY+tvc4bO3BcGjToeWrBj3ArP5jSW/pbLueBJf9XPGv81VzspuVoxecMKzNJGdlYohAKVs/zOKLuM8aPEC7JCJF3XaueBlm8PJL65yljp4AQZNWhOSdofP3j7IWZlgMuj9Ruz4KEYHW3U/H5DH0S9mcvOl2SwY8SnzXNewaPNNsC7G1RQK4o0qzBUyuHMSn3qZKENqrAs58EIC5xFEkVHb3akoh0gHN7gZcYaMtv2UYTMa4TKeDP1gK9Z/GTBWJpA0nRDHjI4/MydGj7k7RKLJWJkw0XRCHDMm3IXPGrP28mE+W7aED/43m45TyuioNXdIFL8ssOYXZMJHoGZGxZRf2jH+F+X/TSfEMbXhUcLVxRCXq2wbK8uf0nQnK2bsZDmDGfKeLApVJjKk39dBnr6fRkaRO45NrSDpMSgi9RywM87h5s0K5rZpzNSh1lxf/xdb7qrt8/Zh2bTG5Ecc5I1fchE8SXow7iPg/csci7jNue716djMGU9yZZ4l1nT3tiH77PHKxRCAW3eJvN6Q4U1c6EKK7H7GjI4tHDC6e5PvfskFb4C6dHjJl7syWwTBpDXv+stEl8psrcp5i9vFivdiGbtkHJNW2LPro1XsU6hfD2nX5x6a3zzyBDrFbBicx61t7vSTraFn9Y4jpE86n8lFBuc8TnUt5MqBhjXLB2KZyazWtiz9zp21RbJ5/HMIibdmbZEgZLzlZM3S74T/VZGH5VSSQ8Q7k8XmtnT4xknY55zHqf4p7O0hFjMe0q5PJucONKTRXQOZ2JPGhntycUYmvjywLccWme1iW53zONX/HkcRiSI+rtgZZpEcr/nAQ4OENNJL3ATPjionEvFh1PzxdHcVJKB7B+ZULVzGehLeL7Yge08/zp/R1iCHzG0jOI5MlBjkqtkkezXXF65W/GvYaimtgkyIVRdDmtzj5kKZcGE9CZ/J82mJTBSxnoTP5L4YnpjPcZlIYtznSzoE7QQGE3VmFucvgZDc9Vsa5H7L6S2btZ4PVztDspMT0OHMl0MZDt0TiImQ/2tG5CLtIkV52I5PZ2KhI40ChWWBIGYkc3aecsEsiBBF3PzJvYLwHTTatpa3tRRsbfpSImlH3Gi0yEgxzx+vCyFBtuPTuTCwmMiF7rJwH0FQeH0PIBNFdLEVymj6cizzb7jQKNBU53mqmmzWsFkyH8jmkAsK//20LvMVC+8khlrZMzlQizCw34rW+60qzSFiMz6dSQ+UxyuIEmrHa5jDfydbsTHQnfnIBISXMli4QbZ4ly3C3VPLsUVme/skFxqNFIkBc5P5XiaKCPNmkrTZndYyOwVBQHUoA9dsDncr5vBiZ5EwJEORZ0R4/+VjLNybAQPsmP+VFacCcmkvCofBpIiB3kWkHa3Hf4/Ax/8FMGDBJQvOtStkpFc+qedcwEv1nF0cWMzhRe6CoCM7vqhPlSKEYbMUeh1xo/WlbC4OSmbIDRda78rjYlA+CzFlpfoYsmvktb0ItsqP1zGdVdvNOLzInYAjQpuh7+Ty4hFLxkZacnFgPsO6W/KrTFiyeb2ARiVWbNTmOXMxhQz8sWtQPUGk2hjVw86ujIwEwTvEdOx4Vg1syK1f/yT6xeewc/MBrqt0SY9KI9ekAY7OaAgiTyOPwCnHHWf/Nhgn/sE1LUKFcv8RkhSrigwy9mwmqcAFOx9levBS8Rj5pynM1RgM48adqEEC9EeICWdX2yuEiV33TKiNHDrWHbKo+1MDGgW60yjQna+uFTBkXTZvVslD1QEvr3Ji85p506tZMRd3X1V6f9y4xaEbD2ng3UBwiz4YzYkEUxq3dkD+bLhvKxeKLkWxUyVZagIX71jRcUgDiqLiSLqRR7o8h0hvDzq5ZQoCiry5lnHjztxQ2BF38KxqMtbeHnRye8DFv2OUY9y4xQ//pFO3kQtyxwVQ8xo5mMydwrrYuxkCgsBT0MCZvvJHpc2caeqcyamtmmKRdi7z7dxQQkO1/E2tmhhCHVe8PMvZ1aE5XTxyOLlF6f1ReuYax6IMaNJc0OaLd0VxOtOSJh3k6kwdXmzmTNqpOzrnCVEfEwzwa++M7Z1olfCdsjSRJ0qpIMYYeDozREdbAfq/t0ZWoUD+t4SxHZTePmJSfl7C+z9cwyJgMp/OC0YjgsY1l3NjYokZE0vMmHgOtiwF60ImeRYTdd5GGVKTbcbqKFPs6hcyTMdzws0VKmEzTj0G4GwUw8WdcoEgil8W1FMRHm5GnNF70sWmwa/hbnCC3WHKMJ2bmzcSW1xPEGtAlrzVgLEzlxBbaInn8DLWr7tLSDVL2jgNPcck32LObRqJwomk6Sd0dTcgarcomezNKfwT+wAbzzeULpf1HLDTSHZZEdbY1aure/OAUFbKr50pPXEztsb35WWya6lq4TPe9ewrfaJg7eWK9pynZgS90BAbuSgBQCF7frtHsrULHfwBstl9JJ7iek50bCyf1I2mNsn8E6FrnhD1MQEnR3wblnL5L3H4ThF3RZ4oyRG3OZdcF+92TjraCjQIZp7KZzOc1bNfEt+jijjP+tlL2JfozqAPVjC5nzyAxkRY+H/jrvh756I5JYp+Rryx014luerSOEseos5DmjQsruG9gAW7disFhgs5piI7ZFjm069+DW5ab9nSXiyUJJtyOVNTxIk7I/JMyTImU2TIAL9smhqr2qqCcx5D3Y04d9JKuT/Zgl9i69CgfiHu8nZuDthr/yotBxvs6qv7hOlO1sXvmBoaytJqJQ8xxb5JcLXnVkEusPyh9NjAegyuLUxJFm/L/obEq/lYNO6FBVbYPt8N24c3uC/yGCk6MJ+78VW1zQ0Hu8q+SYTFvbxKTIxGpRYDQWCQ3ee12W1EwPx7/PG67lZkfm4vEhOg4JAZtzJFDSwLGONXRNqRehWLIUbZvB4Ry4K2ZnwbqC3viapXQkGEJX9Gl+HV/gGYFrE+IJeSmzai3CcGvDfNiRijHLq+rqOtMsRP+uVtHBoWy+bJI+2ofY1zrJSlikJCHhoRq+VyNnDIZ1j36s+RpXa8hYfMuKl+vGVmHF6iXKTvuK96z/7arCwalVixabQWMQSweSuHjlZWfC9apGd9ZcWprAe06F0MlLFkaAaWN5wrSfxahn2TXBUPEnU73FPtWCQ6no1LbYgxzKXLG8BDY8ZGWmIoD4cBzHoV0tTKkt8WqX5Osr41J65pFu95mnBsg+iYTZTvr8K7Rcu4lIjGLFE9dmEM4VpUesgY8N5UJ6WtikMWe9IYsOCSJQZ2RbTTOIfC+fmgVR5px6w0xSIRds5tqI6cf/HbuYwPDWVOdXOQGLbirQ3L+aRLCuFDZvLxlso6mGJfX7PcTPqBz5geGsrkp8Q7BB5hyExJZkyFISna9xthbucB6HLzF8v9r8bBW1/SbL7MBVs9pOYZJPuMA6+IwnUWb7Hjxfk5BPW24mttFWm0ksZf8+7iMqcDs9/NFXlSyBE8KjaMVusWJ38h9xLxZLBzIt/bCSLK3S1p5AAt3CwwRrjR/uNSEi+2rMvtA4WKse3dDEHuAbJoIM+pH2OajocBQAEp17XcNVpbUF+0rspOzRQdYwIrJ4lUioPRnAjoRscRruxck0jnQE/cEu/w6eOohFOayM4JqbT6vBUrxuQwTd1LxMCKTqEDNWL8yuSxlqWprDuezFeBXgz5Jp1dHZrTxSOXm/uq4rsr8xJ5y4OQNjGsvdKYQD8Lbu/WwcPEwALXNjraCvz+8bs6JyR1emk2C3q7cj9yFTM33wSMSHwA9a2LaYcR5xItafeNpcwDJE3041OCZ6c4YtQNyapKmZfDorAZT5JbeWGU9TtHKg0zydX/95VpJ4avL2O4ysaHaHxs5FVtZF4l7V7dgu90kaihC05hhD7XhIQdVlrCb2Rii6ohFIsNkXl96E42Gbp4k8iJDGdqpOx1QCgrg92581MY4dUoVXPrfjqVLbmzzx4nvKA5M//biZHJJzS8REwbt2TeupZqvfKROUUKwkT3nnQNdGLLuhxBmLh/h1Pq3iYVGip4iQx8zhPPk1EY9/fEpySJL3XwMDG1t8JT9k1Yma3EbWZRqLYn4Npoy9gl4+hgcpNdC2QeIuVUy1FHI8QEUHqQAMkWdPwdTvVXhqlohpjUnL2nnXiXFNYoPFqqU6VGe8WbnKqGTuQac6XCBOTleN6IM47KvD50J4sMXbxJNLhOYkYJrarRExC8O1aBz2RlCErxjfK8LyrDFdeX+mJ4YqEs3EaMKc5B+3AOUt1aKorlK81IQls6+zq27liAzNukMhJIyyimfoVtKkuqqkrm53Zsb5XLkPYP4Fsd8zeUU61G/Xci7V4ly4ZiK46ff0Bnvxy6vm4LOtpsYF/EEEwBAzJTtCtzDg2LASMdbVUb54Exw0Y2FF5bFuBkq8Ox6IGNc11hcSIL58UKn7/qVKnRWvFG872pjLIM44or6Rnm8FpEDq9pm8ekGHc7AzIvV6aaCoLXatNUFs7OYKFK+JCshWM6qyLSWaXW76bsVdZXVpwKSOSFeVbMX2QoCDG3XYRxTIpxtwPigTwzTt9NYchDWyHcBmRChCkaXlNySqqSM6yCa7GB7FoEKDUmSvR+Zn1uT6PPZf88NGZspAUXg3JYiB1Lns/lP41Nufh9xddeRvKFR5tUtfg+GRl1aD90NLd+nk7oD+KdSs8RTR6QHv+0SB4V84RXmSmmIKMqJzqW+1/14z4gzzvSbPpHz6goYsStNAN6ORajlBsA7yJs61CNjPoJrAy3IGxiR6YHq+bPUMnlUR4Hk7kzRAhdaWHojHNiDJ9qa3/wPKEHNTcLpJVfgrdZdRMjysjOIz4fdHukmMWp21l0b+uCn2UdWnsVc3F7TKU5D5ToN2SG4mjCvqzLinFdmZ2sFl6iQ2nc4t9SiOrfkhYvGJBQzxnbO1FVTsxaei6JO5keNOlgj5GHEx5pUazRJcylLI/EC0AH3WzVDQu6vTOP0a1MuLp1oiiHiBFb4k3p5lXACGszzpWbR8SQqBP16F3DJKtC2EwfHFqMxcXZlKxLG0QeEzuZEdSCvFP9GS/PodF0Jytm9KnRnFp5cEK3Mr9yUtZzKXkC7i6NaAhVEER6MGGGLH+J1snKL+V7U/7Bu3Wf9OKeMq+PSkQKXUJWahMdQ3ZubDrJNoceDB/vS6xaeEnlpXGzOXIri+6tXOjiZCp4dmyuamLWQk5dTaN/kBMdG6di6V2Xu8fO6hTm8iA9hyiguU626kiDQUx7rx+eucdZPbuKOUS8M1nduoSL4nAY70xu9VDz3Ui2oONGmUjinMep/vc5TO2IIp6nhdcD/FJY0yeJHTqLIsVsGJxM8zRRzhB5iI0ebRTQQay5nkhGSXeZ10clYTBuDtgbZnO1irk/5ChK71YXcciL9SR8Jr+O30iqKIpYYTv8Uxrkfs/pCG3qoDgviZa+FYxcmhmroxgCcoGou50bZqCXpKpVxrSI7euFnAaN5E/JTYvYvikRzWe/lXBl110AACAASURBVGHA9Tmu/B6WyIIqVLopSzdmB/BKBW3S7hnpx9YiI1IywaOhaFFbi2yc68pG2evXFieyUBSGUikmRWz7Ru14TYrY9l0i5TgHVx+N/CdiyojNKKO9Uwm6nLONc11os/Yer/5gzDk1rxT1/CgaPDRm9y1jFvgU8qKFIX6NzfhnsTZhz4D3Qtx5T+sgavlR1HhN61bdSYvT/brJ+tacmEGpdHnDjpFeeVjetCv/vW/thB0ZRMc94hozxddJyYCykrP8IRJDTEd741ESxa4fNLvYezpg+TCD1MfxMLgWeAQhM7GkRcdj7PM6Lfp2qGD/aDzaybfZYRcUjIvxNe7/ofXXSOd5NXhwl8Icc+y9h2vu0wEhtKUI9y7CxaqeAFWv3DImszSP9q9U74OxeIsdqQ2zWDtA3r+YjX1zMIqxIURn7xARN24xZ9s9HHr3ZVGw7Ln2jWRuJpvSemALeltW1DmB30+m49qhC292NePq32oCQnYeV7WEQCk4mMydQgeee7tJ9asTaBujmTeju9qTKAq10YWrP0Rz3cSdIXOb4ZMaw49VSqSqx5AZGaVnrjD992S8B77A7Bdk284lcSfTCv+RLWhfUefiu0SczqNJ914Edyjj5H5dcoeoGyB4mjj4t2F5Z2du/yNK0qoNIw9m9VeG5uhsa6U48dLsjxjdPI/IVeKEqgI7r9pwpyyHUX1ztYe/ZJtwLMUAz7ZZLLXW1kBOHU7mGGLmVMCI8trdXEFMhiXu3UNwNrpP1JGKkqX2YMK4QVVz8U/ZR3oBGNq0F6rZqCdPRSbKmHZi4JwZuo/b9BO6ule1PLAnQz/Yg2/pDjZpSworOxeeA4/Tv8Jx7pOWUUR9756Vfs4DfL0wj7/F34+r6u6t+6QXW+Peqi0Vy7GF7PnkBEcKPRj3kS9dZNtOXU2juHFTXhla4RcnN36P4rphA16a2hyPlGj26pI7RI3kiNucy3Kmd0gH2pnFsf+Xir/smr3alu6K0Bzdba2UtmNZMrsfrrG7WFCthKrqPGBfZ3HyVC2UE4aib/bG1iVNI6bGiJvZBljVK2CkDqFgA/wy6OlQtd/7vbF1STPPZFbfArT6ViWbcjmziHb+OYRUaEMCaeklNPR+rtLvoT4tvTC5d4u/qqUu9WHCqnDCZw3XT3hz9hYytdzqVYZxn5X4NLlHlDYRJXsLmfGmOPddibbnFpBDzo07PHQJoHGgv2KrcZ+FNHa9T8LxqnmrJKRlUNzQmz7aJ6sytuMzGNbYjKNbql/d4/X5aYqkpwDkmnE6uoymwcl8163y/t/OcWH73UIC5lXcXsXWB8bsvm2MQ7d0UZ8yPl6RQsMUOz4vx9tEw9bKeGBETEYZds0KZTlDNBOf1hZbIi3IUt9YZERyZplQRlYHXpufJkqMqvu82Y7prPxU+xxZ35oTY5jDf8vZDwZcSDVRCTlRT/Sq3v69ifU4bZTOJz/k8qKKHRnMm1ehSxsbl9oQ65jB/9Zn0UAlbEWgQkFCJqg4dEvn++qGKmkdo4yPV6bgnmpHeIVhQ2rkmbP+lDHegUlM9avDP1vL/1y2bt8Eu8wozp6v3rqv9euL+Tw8nLCx7aoYclPEb7vOk+XYgRHv+wibzJ5n0kB3Uo9HarkXtKdty4aYJN7knBa/Bfs+E1geHk74snFPTRWaR+Ih8vDPsZxKWUbrwWF0VpTuUVaZefjnWM6ynvaiyi9VDnfRUmFGqFSjNkb+L8Qe6ITt4DfpPP9NoGpVZthky4b2cbw16R4xk4AsWxZtNWFWoGJSNn53n17OyovZUdZWUSFG12M6ZsGCI3msDrpHjMxtUznGAyJ+S8JHdIPTXn2eYxZ0+KmIO3JbAWKc8B9nXgVvBjUOnufXVi6M6i1KmrrgKHzQjVdXuvOqqGmcWiWWqz9Ec92/A76J11gmEhDqO1hiVKlFCaycBFNXd+DDdc1F22XeKTodkPYx1O3UjQR+P+khVJbZWxXvkNqjeMdp9jYLYsBAZdLUz2cfY/ySLkxYJ47kV6/eUsbJDXcJlFWWqa6HRvGuKE53FirLfK/FO8TAwUtkh2DDNHm7Ul1trRiLbsPp4HiVrRPXcEhbg2wz+vzoxo/DEvh4TDofK3YYyp5812HOH67QN5H/Ds9hlKirstKMwM7jDoysn8AoRTt5lRk5srCZtvUh7U+VcBkhf0Zvgjr+zvqOAA9Ju7iZWPMXFE00Q2pGMGX9CFGVl8N89uUuVsyQbechaadmcL7JIhoq5hnMtGU7WTHjQ9av/1A5v3yMhztZMUNdiHlI2qn+hJZXpQZkCViVVWKchm7nOXcrjOQ2ylF4pxzms2kBTFgRqRa+I4yhSKrKLbZE3sA/uD3DevxeQShLAL5e5jpVoykXcfhM9Qbgj5MBvNszgP4uh9laoSHZrN90i6bTvEVJU8+ykPbMH9qbDYHipmrVW1Li2HHeU6gs80t1PTSEfCTthjqTEnFXi3eIMY0DRXZkR/PlRKUNybraWiENGPSflhQfX83sTdWUQm5ZcqRFDn3EYSqn7EluL7qJ16gwg1C5ReEdoh6mksLhMbKxqhDyolFhBqFyi3r/pQed6PlKErNeyWQWoKwyY8QbV6241UM+v2Dn5ugHqEVpVEyyBR03GrHvlSTlOIjDhIx4Y2c9Ngy+L7JBaa+y0sx1fjxyE//hHRjZZQ9ry02W2oeWXiY6VaOpDTSrt8iqw8iFDdNBNA4NxVV0L+j+2j7cxVVirCfh1V2Qj5rOFwm4ioo0iSSufx3Gfqu6XzRGyaVZXGIprV5cSOdO6v2rdkzXfzzCrY7D8RvRlb1rq1N6V1tSVaVnhqLai6J9Oqsj0lmtaCfkV7gwKEkxRskNZ7ZHp9BL0Ud4Gn8xLJEF82OV4VflVpkx4L1J9Wi06b6Qz+SnhvT9yYiUzDIaiW0ttubbfs6K/t/OcQW1OUpT7JnyX0shr9kDXWytDKVtqyPSWS3LwfJBWirz5deNRpiKbL4qhbxoE1qE6i8q/R8a89/1dpycqjwmhReFLPfFxRodLxTut6L1USMif0kShZGIvCjyzAkY6qS2X/V45V4f8rCaElkS0gtdy5lUcVzpfPIDMNqSX/db4Q+cnKoWzqLunSITERb61eHwGpGAYFyMsy1aQ9XEaIQqyafRUtmlKmNU6t1S3lhLbRgrqyxT/rXTmvZN7MiM2k419ZAaUXzoR+YBiyaP4YtuAGWkHt3AvI+0hMvYt6VlQxMSj5/TmiMk/fwV7vVrTnMrL9p0ghMntDR6wjBwd3d/DKdd4tlEKLVre6w6AsSTR4vR3ZjSNpcfVcoJP6UYeTDv85aUVLnMrYg6joxf0hmPm/+o5TJRVpBRKe/7L6VDh2Ts7J7+6/tRcvOmHbGx8jtRb0bOfZeeZUdZELZVq+ARELqSYPc7/BQWTjXSf+iRAEJXBuN+5yfCwg/XWvXfZq8GMLNVetXL3IpwDmzP/CBjDn+slstEUUFGtbyvxLOIrAJM0d/MWbpNq+DRZ8Iqhrtd57uFa6teYEaiXHxGzSe0exGRc5eyTU/ldyUknmYUJW2rIUA8cVRSSQjkJXMz2ffuCnbXRpUNvWFPnwkzGd7gNhtnfIl2rUPWpnkZ5zfO4MunQBB5BCEzEhIglM1ti2/qNdb8C8QQerfl3QAzroqr6zyt1HFk/GJfPG5fqr4YQh1eer8LHUqj+FGj/K+ERFW4xZbF27ls34spoT00wlG8R85lmG86hz553GIIQCTha/8mt9nLTBxR7WC+CnEObM+Ebsac+bn6YgjePkwd6kzKoSua5X8lJBRc58eFv3LNpQ/TQ7qgXozOZ9R8XmyexIHlkhiib67/uJAd15zpMz2ErlUonCUh8W/EZnw6C/3qcOSLf4EYosgDU0GFnqCpvO1vwNmvVj7hYgg0HvUuw73S+XNteWII0Lgf3Ztb8jD2BH88BWIIPPFJVSWefgSvEF8zIO4aMxfdfiLCS6pLi9HdmBJgj5EuiWSfdIw8mPe5L55A2e2LjPmoGrlD6jgyfkkX/OzUyupKSNSISMLX1mPuu+rhKAH09bfkxk9hlYSoPEJubWHxdgdWDhhGj9/1J9I0ezWAmd1sgHzOrP+LNdXIHeIc2J75Q+tjoVZWV0KifA7w2VpX5o/vRZDdMZRVcfvQ19+cK999RLUq5UpUyoHP1uE6P5SeA+z5R3ITkXgGUeQlqU41nicNUdhVxaE6rXm9iyfRv09g/bknPGjDvg8D21pw/qeF/KK15oncM8SSnPMbmfw0uIbIkEJmJCQkJPSIFDJTdVRDZiQkJCQkJCQkJCQeDVLIjISEhISEhISEhISEhISExDOHFDIjISEhoUfS0swoKDB83GY8VRQWSj9FEhISEhISEhISjx7pLlRCQkJCj9y9a/24TZCQkJCQkJCQkJCQ0AEpZEZCQkJCQkJCQkJCQkJCQuKZQxJEJES4ETR1JYtf933chkhISDwmPIbOZNX8UTR+3IZISEjUAg0YOO1jFr7mo7K17ZglrJjSD9fHZJVEeRjj99YSPp0cWH4T8yFMX7OAV6VbNwkJCYlq8dQJIq7BXdmwbiDhE+rV4izmvDJ/IBvWBTK1Vy1Oo28aZ3N1TArrbctvEtLjPjGD8uikZZ/v66EEuSVwLOKyng0r4asNccRExAp/P2czoQIbq82ILG5EpPJFw/IaPGTPjliuLH+Icy1MX1OmrognZn0+zWpr7IhYjr1X/QLngdNTuRNRzfPnl8/xPbGKa6CiMfRhq14YkcWNiNhae0+eSDqNI+Q/9tw5so+7j9sWfRHkx/p1nXipvIp3Ek8hxWwZHkvMmCQ2uz1uW54u2o4Jpb/rPf6JuK6y/fz+YyQ2HESomlAi8bgp4vT3J4lrOpAF5SkeBXs4cMGYzuMmU4FsIiEhISFRDo8gh4g5r8z/D33qq28vIeHQUeb8lKX3ubpknCb0s/uau63qMeWDdjie0fe8mrgGd2Vp53x+mHyeP2swTkiP+8zyLiIv2pX+B02I0ZuFqrgFTeUNfzgZvpI9KqfuIXt2JOJrrtYhzpHnx9blRjn7EyIa0OVjud5myFtvNACERXV4x1o6iH8V5Zx3jLmw1pVBvxroca4Svtpwn64pzvSebkKyHkdWcLounYPclXPVxhw68wiOtzJGZHFjbBZmKhvrsvdNR965V52xijhQnb5iPIYy8+W25B1ZzmcH0pXbWzfno9Am5ETsYeGvMpEqyI/1g+qRffY4769LobgG0yqQjamh0mdGs3bOZU7oZZKni8HTghjirfncIlPlvNszLqwrzWNP6O+9KIflgbGMFP2WZ1xzo+2xqtxGFLNleALN4rX3M2yZTlSnXI3tUSfc6X2lGgbXBINCDr6RDFrnFo6jU7YzjfebqbT3zLLn/e2WbNWjDZ4aO0w5ts+F4ATBjs5qaYvKe18aDJzGq37FnPj0E/Ylqu2M282KTU4sGfcmU5JW8IlGg5piRfDsbgSaRRM2/wa3AXBm4kedaGcYz89LzrI3teazeA3rzPvPO5F59BAzN+UIGz08+d+UljTKvCma+ymiYAeffOPEgjHjmJw0kVUR6g2KOP3VIhpMX8nABa8S/8Em9P1YS0JCQuLfzCMQRAr4buFuvkM/IkHi5n94Y7M+7dOG0ubHSxH96sPVa9Y0alTASHMTlhfUxjy+PN/FC+7soTznEFWBQ5PcC67KxeWILG6MTWJXtL4X7s8SJgQNcQcEj4mJdnYyAap6rJxWn5U1tChiuSNey2s4iA7ow1a9sNWGZlttanECVQFk6op4Jn59n116F7x0o1PfTrg/vMa2fZX5hrgz+wU9iyEAe04zdo9s/C/aYLRfJMA8o+xcsYedAAP8WD/YkIiJJ9j6QP/zeI+Yy7tNb7J08Va0LoPFi/1vlIv94C4ZbHazIzhBn9ZY8eM3dsyqsI0RI7e563PSGrP8eT2LIQBlZvT+RjjO5YGxjCgTCTAixAJInfo5nAtM4K6Vetu2PN/Fk9Jbu1BzDlFyfj/Honzp3zUQn30bKa+ZvugW0kqvYoic/IxcbJu40QRB/PBq74x1fi618NF5ZBSd/p6TfVbyn66v4huhTfAoYM+Bc/iP8eM/gZu4rCGaPHt49AthgOkh1u28XqtCcXn4B8/EJ/4TNh1+mq88CYlng6cuZOaZonEBTanLwfMW3CSL4S1KamUat6BAWtmncyliD1r8aqrOVnNuFxTh5FGmj9EkJJ4JVk5zZX9CCW1eKHj0IToeQ+ndworE87sRO4doYs/bYa3xjr3MzFr2Rvi34Nh3Eh99MoMhjR63JeVza+vf3LDrxfxloQRoKZJU3mJ/8zF9iyFPJ8FdExlZ34of9SmGVJPSeCvan7DEoEGWSjhRg4H/wdc2lUu/79MuegEQx+4/L5Pp2Ir+/Wo3m4jXsM680u4hR9boVwwBICmZO+bO9PQEsKJjMwNib9fK06RHiCB4ZDv58Z9y4mKKTn/PybtGNOn6Ko88nYhHE5poe8Tq0Y+Q2XOY82oPpKhFCQmJJ5Unouyu3HNk+y9l9B3tjnA/9pDLP0Ww8pDQxjqgDYsU+9TCbazqMeUDP1pbyQas78eGdbLXxekcWn2UjTd1scSYPhN68oo8TqG8vi7eLF7og9JzWG5Pvmp/HBi9riGjtdmsAyEN8yDJgS0FxmTHGzOrfiGdzlhwQtGiiB3B92lXV9xLLcaicTZX+2RiId6mdvNh72SHefptTuvJxzJwejY+5nXZ/3PV9LbA6amEP5evvCgVYTkiNEINKggz8Mvn+IJU6hnJw0yEzdmJBoRtiON5t1Lt8+gwR8W2CuEu9pEN+J9RurJdpfMAcZWfJxUbOpqw6rcy3h0lH0c1pEbVTvVwG7WwHLdETimeKomOWc1O7d5CQhiK4pyW266S4ynXVkTvp1pHtfNa/nuj4/GqzaPi/aRAM6RJfLy6vDeaGLLtmhl9nstncsO6Wm0R26l+nAO+jlWE1KnarG6rFjucHbEzSeTCPxV7h7Qb04pORndZ+1G05tNW9ZCXu5cJWSq0azemJxM6GXL2q4OsOa0USoWQkFT2TjzBz5U+RLPn7bCu+MSeINLKn0HyUBKNkBrBw0Q10kQtMKpSW63JEnvAyMKGHGOU7R4/7swKb0NTQ9m/jp35Sv67RzK/V8mb5DDhUxMZMfddgj+ci+vCxWyVr5oNCulYHzKumVW62FcPqVGEuqiHflgnENNc/o8uHiHlzaHZVwi7MeDHb6zwFIWTqIfdqNuKTPDZVj+Hc4EZKNJcdYolppNqG/F5qFM/h1k+Bhzbp+UYNEJelPbWkc1TphbeIg8bqkmYUMnVukR1SsanUTEkCGM7OtljlnqDE5W5fZw/y+1MPxq72EIF0kmN8PDklZ5WRG0/zPoo9Z2yMBqFMJfJkWWydrLQF8focyz4JI4UeZNOrVg9pjEFRw+xu64FJsRx6Y4rvbpbQZkTPnXSOZRhh08LC5o6wu1U5ViN5Kv0PKWnitewzrzfJoM/EhrwQru6kHST30SvFWE36mNQyLXth1m+vxCQjdPtIbuWxNFkhvyYlG26hTzHm+0eKo8PUIQWOSZreM4UXThHdGYbGrj4gtagmAIibt7l+T721NfSwtjvLRaMaYd1ynHW6iusxj+YmX29MLwXyYpNqsFIHv1CeNn7PpHn0whw1MdkEhISErXDEyGIAGDekGFD7/HD27v5Uy5MDGnLfw4J4TXZkReYFHlBmQdE3DfnPp9M202lOUQqpYgDn/3JAWQCzEhLzSZW9ZjyvjcGhyJ5Q4u4Ie9f8/AgIVwm5owxMcDaexZM9M5nnK0FJzKF/TuC79M0yZUAeW6Rxtlc7SO6A26czdU+ecQcbkj/W8LiJ6THfWbZiedxo5GDOQUZKaRVy04ByzbixaWw4KpSPoMRWSxxtKZLoKOwdJEtBH9ZrlzYyReAyTostMVtG6m1dQu8j/UFVzq+YUKybJ5v35ONOSKLG2PzubG2oWLBKIQypPKFSCCozFZhnji+jHPk+UBHbug6j8p7owPWmUx7wZYVI935LFM2xqgcJhy05rNMUZiLXz7HF6hfr/KwnEpyaihCR2RCjxYzpq5Iw2VXfRqJhZjAqoVNVWwrojwkMkZkceMlA9ZMVRWZKnpvdDreSvOdCOeh8U1XOqqEicVxDNG1WdF7U945uGtMMfnU9yuDe0XsmVTMD6OF/nJ7BnyczYS3rPlMfr4qzCFSwlcbcoid4E6QODQnJI0vTivbe9S3xzQ3g8TscgwD8O7Au16F/D5RSz6PID/WD7Lm3Fe/yQQPQbxYOwtClkZz7ptobndsg1cHR4xOyz1L3GnpVYfofad0EEOU2LbvTMDZ47z1dgrFMvEjeGwSZ9Yp/3c6f5y35GJGkB/rBxkqB6jU1r8Zk+TH+kGtCPE7yJrTDZn9zpMmhgDEsjQ0Fv3lELnF1sWTuB+6kpfnL8NxcxjhkdnUcSvCHkjPrvh2YXlgLCMtlSE1woI/loO40/uKPPSj4hwiujA9wp3pyIWD8lrlMGpMDlEn3Gl0RfDgWNYpg6VXBDEiuGuiiq0qxFvR5hurSnKIyMnnr8Bc0k+4a3rKyPrbXXOjkexYg7smsmxMBnxjx6x4KyLiMxjpVsgIlHYsbZBLWZxzzXKmlBmRnA0eVsUIt3kNaGhvRn5GEpmVdk4lJb2QFvaNceV6LUgi1gSHumJ2+hD/kwkHSgQxpGnCOaa/LwgeXsM68/6MHrDsMOujovjjqgdvNnWmo2OcQizo1s4Z66SbfLYpB5cQYduZc8n0D3KjV54ddWKvcA/Rj6tMyDA7fYg3ZHlGuoU8x5uz28OSs8LviUtTemecY/o3dswd05QXuEnYNyZMGONMT88b3C7THMNrWGfeH9aD6ShFESzq81KYA9e2/8EbchGkXwsGnD3L3oho+rZoiXd3K4iS5ztxwse1hGu/XdX0nCm6QkpmHVrZa5M7BIrjMsis04ByNRN9IRZCwjZr/V6M3reWJfsEYUQVD/qFDMA0LoPmbTwwBO5FruB6/Sn09TIE7hG5YhNCpIk/wTP74mUIkM3l7V+w87rat5zcFlDrK24yUza22jge/QgZYEpcRnPaeBhq7nu5Aw4GquN69Avh5Q4OGABkX2b7FzsRTBLbeo+7/5rM5BIS/36eHEGkOJ1D4XLxoIirKfng9ZhtKhdDnJs605wsrtXWFLJwmW/jZIvJbGMyijJp5VUCZwzp2TYbX2z48nh5iVZLWNMyG6KdCblV0YLUHic7c8io2By3wDhiRG6a6k/NNXKIhNzjmEcVPAS22tBBfGd62pRLyXVEi9GHTOyaT+EFVwZXOGY+A76OZQB12fumu1ZRRsXW03X5+ZohE1sW0gxTpvXPwSzOnvdFi/iV05zosyORti+Vwsd1dLBVhthzQd7GtRhnDAnrn0PxBWferHGuiLrsfc9atmCGy8mmFD8G1/yV05xV8n5EHKhLSs9aTFzsl8/x1/K58bWr4tgB3d+bGqDwgPpMJKZsteFL/1zZdSR32arpe2NC0Csmov9lHiRVSkpsyFtvOKhsWXnSknGtilS2OTvaYUJehSN5eLmi4WkBgD1vd3Ul++wJ1iq8P9JZ908i/oOcGWQazc8PYvn9lAcTmrnQwShFEFSCnPHKjubL3VXME3JXHK6TS1p6GU6yXe3GeNAkO5p168sTBnSxFdhzmjUuPZnwUkve6d0I7+xo7V4x5eD13/8xtatqHaXnZ4TzPMCDGPavWsaO2sqQrUELXlv0Lp3El0FhFHtXruC3eM3Wh8OnkjhiLu8Gf8gy380s3blHZb9q4lMhuecogxwC65tybJ9yYV8qW/CPqF8IVzTzXpSPIGaMUvwvTyBahSFQ9QjZGmPBLJ98PNwA+Tg2eQx1s2RrDUJ+DBrk4gloODkAwV0yhTAjkfCz+Zgtb/sk07mlHVyBmZftCAwU2WFQSMf6phzfV5XzpQuOONmboXSpqJy6di7Uio+IiyteQJKWXV7DPGlhGM+u75TeH3e2R3G1cyeFaHA0Ipq+LbzwbW/G3v2FgDMdvOpw7Y8YbgMu8sFOJHFneBsGdczlypc53HHK4wHGAHQL9BASrMqTroLKuILAnsm5nXGkONkBmRz59ga3nVop2ncL9KBRcTw/71WOcWf7FQ4160b3lo447Ze7e6p6jRw9l8yIdrbUswbkAo9avhPXzFhWaIhFSurYuVCh3lHHDm2aSdHpr5h9utxhdabRc28wunMJh1eEaQgPumODr/1FVoT9yAP/YGb2nYbN5e0sC7tO++CZdOrnw7Gd12nYrz0O17azrLw8IB79COlYwI5lYYIo4R/MzJE9OLnpsEqzk5s/5KT8H/9gZvp3Yd/1w8J3uo0v9hdXEPbjA5m4EsSN2zux7tSW/MMrWCs+SP9gRjpfYWWY0NejXwgDgny4vfM67YP74JUQyYpNh3ng0Y+QlxuSH1vd8yMhIfEoeXIEkaeFnPt8suA0Uz7wY/o6oTxdccJ1Pl5wS6/iSEjDPCzyrflbHvaabsK59DoMlIXNNLd6iHG+mXK/BqU0sColN9Gwkso06aRkVB5bW6XwB7XFoW6JQLVXVclVu4HLTjSqpCpIXc4chzad85UChi5YF/O8reD3mptmpFUfsnYtxhkTknW0VXUcZaUdeIibXSnZlyo7lqcIrVVTjGvp+Er4anw6ZX+5afE+0e29qTHZJlzN0bLdupjnbUGnCD0tBDYuwghj4k+LvIZaqeUOyjbR0rOCMdVDiABQibMjOTWDh00qHid63x4uePVnyEJfYrVUfbFtLw7ZUIyseHXum2huf9GGwIFXOfGrrSBMRJ3gjB4TkbjbW2KQGcv5SsaszFbB3kucCOtK5yYp7NXmFVMBd77/H6HfC6+9/vs/pnYoeMQiiJirbJwXykYdW/cIXcnLvsVc3jyT8MhsMDAmHbCzFrwNSq7Y0+iKvcwDzTRyjwAADbhJREFUJF/U8wFd+sVq/N6UVSEMUKBqITTaMSVJ9CVeKvf6kLH5H1cgkWUKe6snupTFOeMVn09UpyQ2Z2jpb5POR2PS+Uhts1xAUYhGvoWQYCYTUSz5oqZ5WQyKcbaGzHj5p17w+qgKunmTVIOkm4TtMWHCmM5MTxR5UsixqM9LYfV5Sb2b/EW0TETo3ogm+29QNsyTFoZp7DpbCFjR0N4YCgCSOXOnlHZu6fwdBTgBFhbUs4YsAJemzFnXVG2Wwqrdx+XmcVNL/hMLOwtsgDLZmGm3Rcd44hKTlHHPghAzxYuhz8ewfL81QZ2dyLx0pcJKOKUZSRU7f5RmkK5F7NQXMX9tYMlf/gTPnMMcQ8i+vJ0vqpy4NIvLJ48JgkRKJpll97iyTxjjZNRd+vg4Ych1otMzseo7jHcoZw4nW2xtvRg2Q5Q1JbsADyNUBWwVbw9lm+sAWZc5eUzW+mQUd/v44GQIcZmZ/CdgGq+yQpEY1cPeljoNvZg2J0A59j0nDHmAvW0Olw/Jjil6H2ej2iIVsZaQeDqQBJHqoAjRQZG/5L0P0KMoUkS/+kVQN42tY9QDWYSwmU05JhTVL6anOZzQqmfUIS6nDk2tS2hERaJIAjFpBZg3ccIB9JNUtcqU8NWGZHzTxLkgql+eNelrR0LzqhiykW3E/kxoXVGTRCOS9WKrIQkZdWisEFiecvzyOf5aFuli0ay8sBc9MHVFohDuojWPif6uo2ohu44aV6tzCcObF2IUZ88qWY6Q0FamKvlrqly2ekQWnz5XxBVRaJY8xEZMdHw6DyxdcbUGKkiqunPFMVzDuhLyfh7n1cJHMiutOhPLlTutGOLTCNPWZjRxSOGfhfpNzBqbnktZMwvaGlGhgFG5rTB4Whc6517hizvuhJQjAv278GbE3Hfp5ZbCIXEOkTIzTsWjEdqhSfVEhcfF5n9c2fyP8Dq4ayLL+iWxuRr2l1yxZ4ZNIsv6ZbBUXcjRoerMrDhLRnYqYClGeLo9JOpazROzGrbIxxNTjsXIb/HiuJdeSN3Gunh9CN4k+Tfu1lYGEThxiU8bWPD+sI6Mva2WRySv8qozgpeFMz09E8hrZkvm+aNa2x9d+xdHyxskqfwSvF7DdD8UbeRl5JEFaMlPrEl0CtcTmwpeJVl2eBnGE7FXm9oOGLfEybaUjOvlqx1GDeywLc0gqdbr7p5k84eCz4VHvxCmz/HnsJZQlZpPs5kPT8rn6MsVbSEz92ReGWpdPUSv+gW2V3p7+Aczs9xwOyXykB//4JnMmZNA5IpNxAFZl7drqVzjoX0QCQmJp4J/WZWZYuIzCjD3cuE/j2rKnFQuxGgqEvkJeWSbu9CmV/ldnQMn81F4OOEfT2dwQ9GOxgU0rWvOn7+40+gb0d8OJ+KKCmjlVcLfmcY8rJtP7wYyt2+N5KmGXM42xMKlgJGyp+UhPe4zy1t1IQSQnpJBgX0T/PSVlnxEFuNa1eHCb+bVLhMbOD2DPm5iV3oTDtw2xC0wiV0vVl69JmK5I+GXSmkTklhxexVbhZAEszZpfC3qM3VFCr5Ftvz4jfaPi6atlWHI9TQDLD0KGWkrn0OLJ8AjQ9OemiF4cGgkP9UDgdNTCW1kxdoluglJ2t+bmh1vxIG6pNTNJGT2QxRBETW+5uVJac3Y+79yvKr88lnQU93TA4gyJqNY5hFVKQ/ZM0rdkwdITiXjoStNulYm5aSzbs5Fbrn7snaWh6xqQDon7+Rg074VIX4Vi48790eR2siDpaO8MDoXxa96vnk+l5RHma0zHdvK7FBPnqqjre3G9GSwdyp7P47m5DeXOFHcmJD3PZ7QKgnpJGWUYevpgl+1P3M9CF05hV5WN9g8UySGyJh52Y5Mm3SWP6/dy6A03pzr2Q/o0iWXERXOY0RMDti5FVbS7tGyNcZC0xtCnoejfuWeFZv/cWVLfA6jxmSwVDymTTqzu1SsopVcseZ4dg4DhqfSucyeL2qSOwRlSFPGNQcVcSc1JZ1CRy86VfbIum17mtimckdr9tUGDJz2MeHhK5hSwyo0d7Yf57tzJnSf0YOxsqyzd84mk2hUnwGvNFCEwWnlxF2OxVjQbpwfvRyTiVQTEHLTsiqMDjp6Lplsl6a8+apVBa0qRtsYXsNa0qtRnhBqo/NIOWz+K54Sn+bMerE+BedvlSsGGbdph4d1GnfOlqd2mBPYtDHFUdfQVnXX2O8tloSHE/7pZMopVFMtovetZUlYLYghanP8eccCGydD1R0pmWQ2aEs/n8q+/LLIShHusfw9G6Myio0v/l2Eb3ePfu3xzMsiRXQ7dnLzFs6kWWHvYSR4rPj600XjxyCa9EwrfP27CL8THv1o72mo3khCQuIJ5RF4iAiJTvsosrnLK69UpeqKWvUXgF4BbOilHq5SxIFvr9DmAz9ldReNSjGGuMn6Kii4JyQ/Va9WA/SaOpBeYls1KszI+6t6h2RHXmVnGydeeXkgG16GqlSZCWmYh0WqNV+q36GphM1Y887ZItb3uEdMDyDfhs/3OTH4uVxF87WHnfENus/4l7MYD+RFu/L+2RyWuKsOm7AngktdQmkVGES9y9UrvastqariibRGpYx8pm3JZJqinSFv/W7FjbGp7JePEefI5ksPeEE0x8pp9bk8PZXwkHvEKHJ0lV9lZuU0V3w23P9/e/ceU2Udx3H8U+NUgNmhnFMjEyaVTgcnUfIybWYc2Ilk5mpas3kW6tzUIWRsmrc1K8V5Ww5djbTN1Jmb10GzVMopjnmDKXMm5i2DNCOnf8Rcf5zzHJ5zec4Bjbw879ef+nDO73lkKp/zvSg7MM/EV5nRLz10u0j3wNdXLu6iqQp5j2anSguMWRBtO2ssxtl8z8E31+TDH5r1aWDfamjrh/F+sTaVmIVvfunuv6/QGTDGnBTjPObnGhbWGPNkjBkpxhwW05yZy5VdVZfUWrMe1rZhbHgJPNs2nNUIBOJums5pPmvb/2yi3W/Ms9Yk6JV5XXRoQZTv+Ta5GbQZRhe7KNvdGoZULu6s+iFXTNckaPfWp5QUmvbWJGje/gStNj3/wDPb3ElVuX8rO/D97NDxnc/ot5yQELdhq/aezNL7GXkaWbEqxurd81q0s6u+erNf0CDSVRqhaQVvqLzAdOm5kEGkJ07p5zOpyk9r0u55IRUaoeFFjkflOYqwRSYKY/aHcY7rDSorO6Oxk1s/q4111pxij/LTHlVDxU/+Ya/XtGbTL+o9tZ/KPk9s+1n8zO0z7TXafxZD7so85Sq8wmVbaa36rk7X5C9SNFlSe7fMpL09Qi/+uU8LP9kcsSrg9qUnlV7u0N6JjfrVa/4d46eCOL2zpYc2jb0c1iISui1l1vddNXBio+m6drTIhG1tUWDeSHu2soRtmPF/fXB1SJzGHUzSUbfpnqNUfBj3Nd6rwNBUV6V01G3eqCOF32+cxp/q5N8sE/LaYfdrnCW4Giepj/k9HtfBivAhrxd37FHd4Enqn5ujbvXWq3czXu4tp+U2Gl+liVKdShvi1ksV6xRraU00B8pqNWBJloaZhqbOXybNL3Rp8RqX6crrIZtYfCHCYG8v3ThQYwoQ4tU1yRF7W1t1rWZIWuF9VeVDTb/ur05pU6gd8TVCz9lG1ed08LVnfZtlrKpD5FC6K0Wdr9bLOg9x64VeLTq7LVIcYmypccnlTFUft1QZ+bKYfDNEeij4X7sIw0yDhp0OV/Hs4bpQVaqQ8R5RBQ1Dba7Td1tC/lJrqFDZHqdK3vqoddWwv2LEdJEqjlwNXNN8/pyumT8/+KtO154r1OzZxlDVXapvSVHOlHEaYPTYXKhSaX2LpI3a9PQUjSueLaNpxmgZOrzxR6WWvO5rp2mu0/5jV6kbAR4Qj/Ts2TP2x+146PXwFKnIk6Ta1XP0dYeXWgK476SMUcmMUXrs8GIt3NBx4/FHF3uU7zh5n21sAe6d1lXBdzs7JbrkvGLNzO2s4yvnal2kJCPDq0WT+qppe6mWVVhEJsl5Kp6Zq24Xtqt0mXWw0uGy+muF16kTdxJA3Hd8q3aH3aoLXids4luZ21+N26ZrecQgI175s5ZqVGK0lboOZRYskNfVSactX8dm/Ftm9q0xNsUAsKOHrGUGd+ryrqUqPywNmlgkT/d7fRoA/7uGrfrs22NKHDZV00ZGWq5898ytKIQhgG898ZGsGzpb3bFhiCRd3FGq9TVxyvqgUGEdL8l5Kp6QqZbqL63DEEkZ2YOV+sRNXTp17N6FISmpmv9uL906cOwhCEOkoVMGyd2lUbu/sWi1ic9XoTdd/xxaaxFiOJRZ8LGyk09rh2UYIineo5Eup2431WgPYQgABFAhApMe8hQVafDVcs2hTASwpZQxJZrR77yWL9yg/6pOpLX1o1G7p1f7W1EA+zKvL25Pu8/dS1Ze8UwNbFqruaYykQzvIr33VJV11UeGV4smZcqpP1RtVWHS0bL6a4W3lzpL+v3APpWst2oveRD4qkLczztiDJL1VXVMSNyv6VYlHfH5mrXEpStl87Q+4n/djMoQp1pOb7N+HQCwKQIRAAAAAABgO7TMAAAAAAAA2yEQAQAAAAAAtkMgAgAAAAAAbIdABAAAAAAA2A6BCAAAAAAAsB0CEQAAAAAAYDsEIgAAAAAAwHYIRAAAAAAAgO0QiAAAAAAAANshEAEAAAAAALZDIAIAAAAAAGznX9m5ZR6Tik2SAAAAAElFTkSuQmCC;" vertex="1" parent="1">
                    <mxGeometry x="390" y="670" width="1092" height="58" as="geometry"/>
                </mxCell>
                <mxCell id="60" value="keyindex 表示在本数据类的第几个&lt;br&gt;getfirstkeyid 是因为是从父类开始的，排到本类是从几开始，&lt;br&gt;keymemory&amp;nbsp; 是要用到的内存大小" style="text;html=1;align=center;verticalAlign=middle;resizable=0;points=[];autosize=1;strokeColor=none;fillColor=none;" vertex="1" parent="1">
                    <mxGeometry x="480" y="740" width="340" height="60" as="geometry"/>
                </mxCell>
                <mxCell id="63" value="具有自定义数据分配的实例化键" style="text;html=1;align=center;verticalAlign=middle;resizable=0;points=[];autosize=1;strokeColor=none;fillColor=none;" vertex="1" parent="1">
                    <mxGeometry x="660" y="317.5" width="190" height="30" as="geometry"/>
                </mxCell>
                <mxCell id="65" value="如果需要，处理实例化" style="text;html=1;align=center;verticalAlign=middle;resizable=0;points=[];autosize=1;strokeColor=none;fillColor=none;" vertex="1" parent="1">
                    <mxGeometry x="1570" y="102" width="140" height="30" as="geometry"/>
                </mxCell>
                <mxCell id="67" value="ValueMemory.AddZeroed(MemoryOffset);&amp;nbsp;&lt;br&gt;可以看出valuememory 就是基本数据保存的内存，（用数组当内存，memoryoffset 来当下表）" style="text;html=1;align=center;verticalAlign=middle;resizable=0;points=[];autosize=1;strokeColor=none;fillColor=none;" vertex="1" parent="1">
                    <mxGeometry x="240" y="860" width="520" height="40" as="geometry"/>
                </mxCell>
                <mxCell id="68" value="如果要独立创建实例， 放到&amp;nbsp;KeyInstances 李" style="text;html=1;align=center;verticalAlign=middle;resizable=0;points=[];autosize=1;strokeColor=none;fillColor=none;" vertex="1" parent="1">
                    <mxGeometry x="300" y="925" width="260" height="30" as="geometry"/>
                </mxCell>
                <mxCell id="69" value="临时数据，用来排序的" style="text;html=1;align=center;verticalAlign=middle;resizable=0;points=[];autosize=1;strokeColor=none;fillColor=none;" vertex="1" parent="1">
                    <mxGeometry x="2380" y="155" width="140" height="30" as="geometry"/>
                </mxCell>
                <mxCell id="70" value="UBehaviorTree" style="swimlane;fontStyle=1;align=center;verticalAlign=top;childLayout=stackLayout;horizontal=1;startSize=26;horizontalStack=0;resizeParent=1;resizeParentMax=0;resizeLast=0;collapsible=1;marginBottom=0;" vertex="1" parent="1">
                    <mxGeometry x="647" y="-800" width="160" height="86" as="geometry"/>
                </mxCell>
                <mxCell id="71" value="UBlackboardData* BlackboardAsset;" style="text;strokeColor=none;fillColor=none;align=left;verticalAlign=top;spacingLeft=4;spacingRight=4;overflow=hidden;rotatable=0;points=[[0,0.5],[1,0.5]];portConstraint=eastwest;" vertex="1" parent="70">
                    <mxGeometry y="26" width="160" height="26" as="geometry"/>
                </mxCell>
                <mxCell id="72" value="" style="line;strokeWidth=1;fillColor=none;align=left;verticalAlign=middle;spacingTop=-1;spacingLeft=3;spacingRight=3;rotatable=0;labelPosition=right;points=[];portConstraint=eastwest;strokeColor=inherit;" vertex="1" parent="70">
                    <mxGeometry y="52" width="160" height="8" as="geometry"/>
                </mxCell>
                <mxCell id="73" value="+ method(type): type" style="text;strokeColor=none;fillColor=none;align=left;verticalAlign=top;spacingLeft=4;spacingRight=4;overflow=hidden;rotatable=0;points=[[0,0.5],[1,0.5]];portConstraint=eastwest;" vertex="1" parent="70">
                    <mxGeometry y="60" width="160" height="26" as="geometry"/>
                </mxCell>
                <mxCell id="74" value="UBehaviorTreeComponent" style="swimlane;fontStyle=1;align=center;verticalAlign=top;childLayout=stackLayout;horizontal=1;startSize=26;horizontalStack=0;resizeParent=1;resizeParentMax=0;resizeLast=0;collapsible=1;marginBottom=0;" vertex="1" parent="1">
                    <mxGeometry x="270" y="-627" width="400" height="86" as="geometry"/>
                </mxCell>
                <mxCell id="75" value="+ field: type" style="text;strokeColor=none;fillColor=none;align=left;verticalAlign=top;spacingLeft=4;spacingRight=4;overflow=hidden;rotatable=0;points=[[0,0.5],[1,0.5]];portConstraint=eastwest;" vertex="1" parent="74">
                    <mxGeometry y="26" width="400" height="26" as="geometry"/>
                </mxCell>
                <mxCell id="76" value="" style="line;strokeWidth=1;fillColor=none;align=left;verticalAlign=middle;spacingTop=-1;spacingLeft=3;spacingRight=3;rotatable=0;labelPosition=right;points=[];portConstraint=eastwest;strokeColor=inherit;" vertex="1" parent="74">
                    <mxGeometry y="52" width="400" height="8" as="geometry"/>
                </mxCell>
                <mxCell id="77" value="+ method(type): type" style="text;strokeColor=none;fillColor=none;align=left;verticalAlign=top;spacingLeft=4;spacingRight=4;overflow=hidden;rotatable=0;points=[[0,0.5],[1,0.5]];portConstraint=eastwest;" vertex="1" parent="74">
                    <mxGeometry y="60" width="400" height="26" as="geometry"/>
                </mxCell>
                <mxCell id="78" value="UBrainComponent" style="swimlane;fontStyle=1;align=center;verticalAlign=top;childLayout=stackLayout;horizontal=1;startSize=26;horizontalStack=0;resizeParent=1;resizeParentMax=0;resizeLast=0;collapsible=1;marginBottom=0;" vertex="1" parent="1">
                    <mxGeometry x="240" y="-780" width="160" height="86" as="geometry"/>
                </mxCell>
                <mxCell id="79" value="+ field: type" style="text;strokeColor=none;fillColor=none;align=left;verticalAlign=top;spacingLeft=4;spacingRight=4;overflow=hidden;rotatable=0;points=[[0,0.5],[1,0.5]];portConstraint=eastwest;" vertex="1" parent="78">
                    <mxGeometry y="26" width="160" height="26" as="geometry"/>
                </mxCell>
                <mxCell id="80" value="" style="line;strokeWidth=1;fillColor=none;align=left;verticalAlign=middle;spacingTop=-1;spacingLeft=3;spacingRight=3;rotatable=0;labelPosition=right;points=[];portConstraint=eastwest;strokeColor=inherit;" vertex="1" parent="78">
                    <mxGeometry y="52" width="160" height="8" as="geometry"/>
                </mxCell>
                <mxCell id="81" value="+ method(type): type" style="text;strokeColor=none;fillColor=none;align=left;verticalAlign=top;spacingLeft=4;spacingRight=4;overflow=hidden;rotatable=0;points=[[0,0.5],[1,0.5]];portConstraint=eastwest;" vertex="1" parent="78">
                    <mxGeometry y="60" width="160" height="26" as="geometry"/>
                </mxCell>
                <mxCell id="82" value="&lt;div&gt;StartTree&lt;br&gt;&lt;/div&gt;" style="shape=step;perimeter=stepPerimeter;whiteSpace=wrap;html=1;fixedSize=1;" vertex="1" parent="1">
                    <mxGeometry x="160" y="-460" width="120" height="80" as="geometry"/>
                </mxCell>
                <mxCell id="83" value="UBehaviorTreeManager" style="swimlane;fontStyle=1;align=center;verticalAlign=top;childLayout=stackLayout;horizontal=1;startSize=26;horizontalStack=0;resizeParent=1;resizeParentMax=0;resizeLast=0;collapsible=1;marginBottom=0;" vertex="1" parent="1">
                    <mxGeometry x="410" y="-1070" width="160" height="86" as="geometry"/>
                </mxCell>
                <mxCell id="84" value="+ field: type" style="text;strokeColor=none;fillColor=none;align=left;verticalAlign=top;spacingLeft=4;spacingRight=4;overflow=hidden;rotatable=0;points=[[0,0.5],[1,0.5]];portConstraint=eastwest;" vertex="1" parent="83">
                    <mxGeometry y="26" width="160" height="26" as="geometry"/>
                </mxCell>
                <mxCell id="85" value="" style="line;strokeWidth=1;fillColor=none;align=left;verticalAlign=middle;spacingTop=-1;spacingLeft=3;spacingRight=3;rotatable=0;labelPosition=right;points=[];portConstraint=eastwest;strokeColor=inherit;" vertex="1" parent="83">
                    <mxGeometry y="52" width="160" height="8" as="geometry"/>
                </mxCell>
                <mxCell id="86" value="+ method(type): type" style="text;strokeColor=none;fillColor=none;align=left;verticalAlign=top;spacingLeft=4;spacingRight=4;overflow=hidden;rotatable=0;points=[[0,0.5],[1,0.5]];portConstraint=eastwest;" vertex="1" parent="83">
                    <mxGeometry y="60" width="160" height="26" as="geometry"/>
                </mxCell>
                <mxCell id="87" value="LoadTree" style="shape=step;perimeter=stepPerimeter;whiteSpace=wrap;html=1;fixedSize=1;" vertex="1" parent="1">
                    <mxGeometry x="470" y="-450" width="120" height="80" as="geometry"/>
                </mxCell>
                <mxCell id="88" value="PushInstance" style="shape=step;perimeter=stepPerimeter;whiteSpace=wrap;html=1;fixedSize=1;" vertex="1" parent="1">
                    <mxGeometry x="330" y="-460" width="120" height="80" as="geometry"/>
                </mxCell>
            </root>
        </mxGraphModel>
    </diagram>
</mxfile>